<svg width="21" height="20" viewBox="0 0 21 20" fill="none" xmlns="http://www.w3.org/2000/svg">
<path d="M10.5 0C4.97715 0 0.5 4.47715 0.5 10C0.5 15.5228 4.97715 20 10.5 20C16.0228 20 20.5 15.5228 20.5 10C20.4936 4.47982 16.0202 0.00642897 10.5 0Z" fill="#503C37" fill-opacity="0.15"/>
<path d="M16.2727 6.83313L10.5685 14.574C10.4325 14.7545 10.2296 14.8727 10.0055 14.9022C9.78143 14.9316 9.5549 14.8698 9.37683 14.7306L5.3035 11.474C4.94405 11.1863 4.88585 10.6617 5.1735 10.3023C5.46115 9.94285 5.98572 9.88465 6.34516 10.1723L9.74183 12.8898L14.931 5.8473C15.1012 5.59195 15.3979 5.45078 15.7033 5.47983C16.0088 5.50887 16.2736 5.70344 16.3926 5.98627C16.5116 6.26911 16.4655 6.59445 16.2727 6.83313Z" fill="#503C37"/>
</svg>
