<svg width="10" height="16" viewBox="0 0 10 16" fill="none" xmlns="http://www.w3.org/2000/svg">
<path d="M9.30576 6.45H7.90576H7.40576V5.95V4.4V3.9H7.90576H8.95576C9.23076 3.9 9.45576 3.7 9.45576 3.4V0.75C9.45576 0.475 9.25576 0.25 8.95576 0.25H7.13076C5.15576 0.25 3.78076 1.65 3.78076 3.725V5.9V6.4H3.28076H1.58076C1.23076 6.4 0.905762 6.675 0.905762 7.075V8.875C0.905762 9.225 1.18076 9.55 1.58076 9.55H3.23076H3.73076V10.05V15.075C3.73076 15.425 4.00576 15.75 4.40576 15.75H6.75576C6.90576 15.75 7.03076 15.675 7.13076 15.575C7.23076 15.475 7.30576 15.3 7.30576 15.15V10.075V9.575H7.83076H8.95576C9.28076 9.575 9.53076 9.375 9.58076 9.075V9.05V9.025L9.93076 7.3C9.95576 7.125 9.93076 6.925 9.78076 6.725C9.73076 6.6 9.50576 6.475 9.30576 6.45Z" fill="white"/>
</svg>
