<svg width="1440" height="671" viewBox="0 0 1440 671" fill="none" xmlns="http://www.w3.org/2000/svg">
<path d="M-152 70.4423C0 -66.0577 598.5 26.9422 509 108.942C463.396 150.725 503.771 143.501 660.75 108.791C660.75 108.791 684.554 108.632 685.076 101.618C685.553 95.198 676.369 94.5341 675.188 100.966C673.629 109.446 687.288 113.286 691.732 105.144C695.322 98.5675 691.732 66.5446 691.732 62.8744C691.732 40.1583 694.303 34.3337 699.785 36.3942C704.6 38.2105 703.946 54.1563 685.861 62.9746C667.776 71.793 675.709 89.8118 685.993 91.6281C696.277 93.4444 703.173 82.5529 697.314 75.294C692.952 69.8828 682.347 73.9976 683.523 81.2565C684.673 88.3838 693.731 94.1208 704.826 86.3233C709.843 82.7972 712.929 77.8118 720.843 80.0477C731.479 83.054 739.865 77.6302 739.154 73.2836C738.362 68.4485 729.216 69.9454 727.211 75.3692C725.206 80.7993 737.294 81.2251 739.965 76.1897C742.643 71.1542 737.985 44.4423 739.965 42.4631C741.945 40.4903 763.714 35.6114 764.273 36.0247C764.72 36.3567 764.707 37.9976 764.537 38.2231C764.035 38.8682 742.121 43.7345 741.619 44.4235C741.311 44.8494 741.197 47.8306 741.663 47.8306C742.128 47.8306 762.394 42.6322 764.537 42.0748C765.21 41.8995 764.537 46.1834 764.537 54.2815C764.537 62.3796 765.531 72.0498 757.208 73.2335C748.885 74.4172 748.785 65.3358 755.523 64.7408C762.262 64.1458 763.689 68.7366 764.167 71.6677C765.537 80.1103 763.997 87.2878 771.408 89.2105C781.334 91.7847 790.581 86.8431 789.87 82.5028C789.078 77.6677 779.781 79.1082 777.776 84.5383C775.771 89.9684 787.859 90.3942 790.53 85.3588C793.208 80.3233 787.84 52.3963 790.53 53.1792C793.045 53.912 792.058 61.0206 797.206 63.1876C802.354 65.3546 803.228 71.0853 801.833 72.4694C799.67 74.6051 800.883 66.8702 804.837 70.6719C807.773 73.4965 811.62 78.8577 817.699 80.1667C821.747 81.0402 829.5 82 833 80.5C836.5 79 838.141 74.1416 837.349 69.3003C836.557 64.4652 826.914 66.1187 824.909 71.5487C822.903 76.9788 834.991 77.4047 837.663 72.3692C840.341 67.3337 836.274 39.8201 837.254 41.3107C838.939 43.8786 840.077 48.5634 845.527 51.3128C849.324 53.2293 849.261 56.7742 848.928 58.722C848.217 62.8243 843.528 64.7095 846.904 60.5383C849.003 57.9517 845.659 81.0185 857.659 84.7763C868.207 88.0769 876.655 82.4402 875.945 78.0999C875.153 73.2648 865.831 79.7053 864.02 85.768C862.367 91.3107 874.103 91.6239 876.775 86.5884C879.453 81.5529 875.084 53.9809 877.064 52.008C879.044 50.0352 901.473 45.2126 901.712 45.8577C902.309 47.436 901.347 50.912 901.347 59.0039C901.347 67.0957 902.34 76.7721 894.017 77.9558C885.695 79.1395 885.846 69.2251 892.584 68.6301C899.323 68.0352 900.329 72.2001 901.944 74.6928C905.288 79.841 910.191 85.1709 918.684 87.3504C929.389 90.0999 937.844 85.0519 937.127 80.7116C936.335 75.8765 927.051 77.2481 925.045 82.6782C923.04 88.1082 935.128 88.5341 937.8 83.4986C940.478 78.4631 938.032 48.532 937.8 51.3191C937.328 56.9057 938.328 66.5132 939.748 74.0289C940.949 80.3671 946.525 84.9517 952.999 84.9517C959.917 84.9517 966.927 100.903 970.713 84.9517C974.5 69 1035 30 1037.5 24C1040 18 1015.5 30.0636 1012 37.5C1008 46 1014 55 1008.5 73.5C979.551 170.873 914.001 389.442 914.501 391.942C915.001 394.442 988.001 403.942 990.001 402.442C990.539 402.039 993.65 378.585 998.113 344L1009 336L1000.04 329C1001.07 321.055 1004 299.5 1004 299.5C1004 299.5 1016.11 298.033 1016.5 295C1016.5 295 1005.14 289.358 1005.51 286.5C1006.6 278.012 1007.73 269.314 1008.87 260.5C1009.11 258.671 1020.26 258.838 1020.5 257C1020.64 255.938 1009.86 252.875 1010 251.811C1010.66 246.729 1011.33 241.62 1012 236.5C1012 236.5 1024.3 234.5 1024.5 233L1013.5 227C1014.49 219.45 1014.51 218.93 1015.5 211.5C1015.63 210.498 1025.87 208.998 1026 208C1026.18 206.663 1016.5 203.5 1016.5 203.5C1017.06 199.294 1017.95 191.123 1018.5 187C1018.59 186.332 1027.41 185.165 1027.5 184.5C1027.61 183.665 1020 179 1020 179C1020.55 174.946 1020.96 172.942 1021.5 169C1021.55 168.666 1030.5 166.5 1030.5 166.5C1030.57 165.999 1021.98 162.999 1022.05 162.5C1022.32 160.482 1022.6 158.482 1022.87 156.5C1022.96 155.831 1032.41 154.165 1032.5 153.5L1024 148.5C1024 148.5 1023.84 151 1025.5 138.5L1035.5 136.5L1026.5 132C1026.79 129.965 1027.3 124.964 1027.58 123C1027.7 122.16 1035.5 121 1035.5 121L1028.31 118C1028.63 115.779 1029.19 112.053 1029.5 109.942C1029.5 109.942 1037.32 109.109 1037.5 107.942C1037.65 106.947 1030.09 105.967 1030.24 105C1030.88 100.779 1034 87 1034 87L1021.5 84.5C1021.69 85.5 1026.88 59.3412 1027.58 59L1075.5 66.266L1072 95L1040.5 89L1040 91.5L1063 96C1063 96 1061.62 107.778 1061.43 107.942C1060.86 108.442 1053 109.442 1053 109.942C1053 110.442 1060 111.942 1060.5 112.942C1061 113.942 1060.5 121.442 1059.5 121.942C1058.5 122.442 1050.5 123.442 1050.5 123.942C1050.5 124.442 1058.5 126.442 1059 127.442C1059.5 128.442 1058.5 137.942 1057.5 138.942C1056.5 139.942 1048 140.942 1048 141.442C1048 141.942 1056.5 143.942 1057 144.442C1057.5 144.942 1057 151.442 1056 151.942C1055 152.442 1046.5 153.442 1046.5 153.942C1046.5 154.442 1054.5 158.442 1055 158.942C1055.5 159.442 1055 167.442 1054 167.942C1053 168.442 1044.13 169.442 1044.13 169.942C1044.13 170.442 1052.63 173.442 1053.13 173.942C1053.63 174.442 1052.5 184.942 1051.5 185.442C1050.5 185.942 1042 186.442 1042 187.442C1042 188.442 1050 192.442 1050.5 192.942C1051 193.442 1050 206.942 1049 207.442C1048 207.942 1040 208.442 1040 209.942C1040 211.442 1047.5 214.442 1048 215.942C1048.5 217.442 1047.5 229.942 1046.5 230.442C1045.5 230.942 1036 232.942 1036 234.942C1036 236.942 1045.5 238.942 1045 240.942C1044.5 242.942 1044.5 255.442 1043.5 255.942C1042.5 256.442 1033.5 257.442 1033.5 258.442C1033.5 259.442 1042 262.942 1042 262.942C1042 262.942 1040.33 274.542 1038.07 290L1026 296.5C1025.76 298.15 1035.89 304.819 1035.64 306.5C1034.34 315.348 1032.96 324.535 1031.67 333L1021.5 338L1030 343C1028.5 352.649 1014.22 398.855 1013.5 402.442C1009 417 1099.92 258.442 1099.5 255.942C1099.08 253.442 1084.5 248.442 1084 246.442C1083.5 244.442 1107 198.942 1110.5 198.442C1114 197.942 1123.5 212.942 1128.5 211.442C1133.5 209.942 1167 148.442 1168.5 148.442C1170 148.442 1178 152.442 1178.5 153.942C1179 155.442 1140 216.442 1140 219.942C1140 223.442 1156.5 229.442 1157 232.442C1157.23 233.805 1151.78 247.521 1143.5 250.703C1131.46 255.332 1098.23 254.5 1115 234C1131.77 213.5 1140.39 245.682 1137.11 258C1135.09 265.624 1123.96 271.942 1122.5 271.942C1119 271.942 1111 264.942 1110 264.442C1109 263.942 1050.82 361.825 1033.5 388.5L1021.5 406.5C1042.43 409.503 1121.5 423.943 1123.5 421.738C1123.5 417.5 1085 71.5 1085 60.9422C1082.5 58.9422 1013 51.9422 1013.5 49.4114C1014 46.8806 1044.37 30.3944 1050.5 26.9422C1053.87 25.0462 1111 37.3199 1115 39.9422C1119 42.5645 1256.31 488.443 1256.31 515.943C1256.31 518.221 1254.33 522.039 1250.89 526.943C1249.69 528.651 1255.53 533.99 1254 535.943C1249.85 541.242 1239.96 549.87 1234 556.443C1232.22 558.406 1227.78 554.41 1225.89 556.443C1212.17 571.194 1181.59 603.446 1176.5 605.5C1171.41 607.554 1177.56 594.102 1180.5 591C1195.2 575.5 1251.5 515.943 1252 514C1252.5 512.057 1181.5 280 1181.5 280C1178.5 282.5 1248.42 509.686 1245.99 512.053C1243.28 514.694 1241.21 516.17 1238.17 519.092C1234.9 522.236 1178.8 305.395 1175.28 308.738C1172.53 311.349 1230.53 525.179 1229.29 526.349C1228.03 527.54 1223.17 532.47 1218.24 537.473C1216.46 539.283 1169.38 358.72 1167.74 360.376C1164.67 363.487 1210.02 544.77 1209.16 545.576C1207.53 547.097 1202.13 552.49 1200.52 553.992C1197.85 556.476 1164.56 405.639 1161.98 408.029C1159.42 410.39 1192.4 561.787 1189.98 564.004C1187.29 566.461 1184.35 570.351 1181.5 573C1179.06 575.268 1157.47 470.057 1155.16 472.192C1153.87 473.392 1172.19 583.404 1171 584.5C1167.82 587.43 1164.5 593.5 1162.86 597C1161.22 600.5 1162.86 618.019 1162.86 620C1162.86 621.981 1146 635.443 1146 635.443C1146 635.443 1129 635.443 1128.25 639.443C1127.5 643.443 1130 654.442 1128.25 654.942C1126.5 655.442 1097 646.943 1096 645.443C1095 643.943 1097.5 632.943 1096 631.443C1094.5 629.943 923.001 593.346 921.501 594.394C920.001 595.443 916.501 608.943 914.501 609.443C912.501 609.943 873.501 602.943 871.501 601.443C869.501 599.943 872.501 586.943 871.501 584.943C870.501 582.943 846.27 580.635 847.001 578.443C848.002 575.44 849.587 571.051 851.472 565.943C852.177 564.032 944.227 558.52 945.001 556.443C946.378 552.746 856.537 552.34 858.001 548.421C859.711 543.842 861.422 539.245 863.001 534.943C864.425 531.06 995.48 533.545 997.001 529.443C998.54 525.29 867.897 522.23 869.501 517.942C870.47 515.35 874.018 506.557 875.001 503.942C875.522 502.556 1033.45 513.453 1035.5 508.442C1036.59 505.775 878.971 492.351 880.167 489.442C883.473 481.4 886.729 473.478 887.501 471.442C888.258 469.442 1075.31 488.376 1077 483.942C1079.17 478.267 889.953 462.73 892.001 457.442C893.903 452.53 894.774 449.333 896.501 444.942C898.048 441.008 1098.15 473.32 1099.5 469.942C1100.83 466.622 901.017 434.601 902.115 431.942C905.274 424.29 906.5 418.442 907.849 419.442C909.198 420.443 1123.85 452.942 1125.35 453.942C1126.85 454.942 1139.5 615.943 1143.5 620C1147.5 624.057 1206.98 626.93 1213.5 633.462C1222.17 642.146 1217.79 652.751 1229.5 660.5C1238.17 666.236 1270.5 644 1268.5 650.555C1254.45 660.156 1254.31 670.452 1259.5 669.5C1264.02 668.671 1264.65 663.5 1263.68 658.346C1263.07 655.082 1259.93 652.363 1258.67 650.555C1257.69 649.155 1255.92 647.332 1254.32 645.62C1252.33 643.496 1251.02 642.102 1248.57 639.35C1247.24 637.856 1246.13 635.942 1244.72 633.914C1243.7 632.452 1242.3 631.041 1240.93 629.503C1238.33 626.59 1235.14 623.563 1233.48 620.01C1232.84 618.642 1231.48 614.325 1232.7 613.135C1233.64 612.218 1235.9 612.507 1236.76 613.532C1238.96 616.14 1238.66 621.58 1238.09 624.575C1237.3 628.73 1235.63 633.879 1235.06 638.104C1234.43 642.799 1235.11 646.241 1238.79 648.744C1241.85 650.818 1248.26 651.818 1251.71 650.611C1256.07 649.087 1259.66 647.051 1260.74 643.046C1261.13 641.624 1261.21 639.938 1261.39 638.284C1261.83 634.224 1261.31 629.812 1258.27 626.93C1255.17 623.984 1249.37 625.331 1246.07 627.807C1244.79 628.763 1243.2 631.473 1242.77 633.462C1242.39 635.182 1241.66 636.886 1241.66 639.35C1241.66 640.524 1241.78 641.102 1241.88 642.313C1242.07 644.63 1244.07 646.16 1246.49 647.051C1248.02 647.613 1249.1 647.857 1250.65 647.369C1251.87 646.985 1252.76 646.326 1253.36 645.516C1254.63 643.789 1255.02 640.897 1255.35 638.873C1255.7 636.797 1255.5 635.153 1254.88 634.135C1254.46 633.46 1253.27 633.279 1252.45 633.462C1250.56 633.882 1250.36 636.441 1250.65 637.711C1251.06 639.519 1253.78 640.098 1264.96 641.294C1270.94 641.934 1274.64 641.377 1276.38 641.193C1311.51 637.483 1334 675.618 1372 643.046C1410 610.474 1469 654.942 1469 654.942" stroke="#543F3A" stroke-width="2" stroke-linecap="round" stroke-linejoin="round"/>
</svg>
