<svg width="14" height="12" viewBox="0 0 14 12" fill="none" xmlns="http://www.w3.org/2000/svg">
<path d="M3.08219 1.33302C3.08202 1.68665 2.94137 2.02571 2.6912 2.27564C2.44102 2.52556 2.10182 2.66587 1.74819 2.66569C1.39457 2.66551 1.0555 2.52487 0.80558 2.27469C0.555657 2.02452 0.415351 1.68531 0.415528 1.33169C0.415704 0.978068 0.55635 0.639 0.806523 0.389076C1.0567 0.139153 1.39591 -0.00115321 1.74953 -0.000976396C2.10315 -0.000799585 2.44222 0.139846 2.69214 0.390019C2.94206 0.640193 3.08237 0.979401 3.08219 1.33302ZM3.12219 3.65302H0.455527V11.9997H3.12219V3.65302ZM7.33553 3.65302H4.68219V11.9997H7.30886V7.61969C7.30886 5.17969 10.4889 4.95302 10.4889 7.61969V11.9997H13.1222V6.71302C13.1222 2.59969 8.41553 2.75302 7.30886 4.77302L7.33553 3.65302Z" fill="white"/>
</svg>
