<svg width="130" height="48" viewBox="0 0 130 48" fill="none" xmlns="http://www.w3.org/2000/svg">
<path fill-rule="evenodd" clip-rule="evenodd" d="M4.20835 19.6568C4.20835 30.5349 4.2244 33.3175 4.28735 33.3322C4.33084 33.3424 4.62233 33.3936 4.93519 33.4461C5.27068 33.5023 5.67904 33.6185 5.93066 33.7295L6.35729 33.9175V23.1496C6.35729 17.2273 6.37536 12.3656 6.39748 12.3459C6.41967 12.3262 6.92119 13.0251 7.51209 13.8991C8.10298 14.7731 9.21253 16.413 9.97787 17.5435C10.7431 18.6739 11.7168 20.1182 12.1416 20.7531C13.9889 23.5142 16.6523 27.3867 16.9726 27.7773C17.332 28.2156 17.971 28.3673 18.4792 28.1351C18.7924 27.992 18.9288 27.8533 19.3261 27.2744C19.5107 27.0053 19.8732 26.4858 20.1317 26.12C20.821 25.1446 21.3685 24.3494 21.8108 23.6812C22.0261 23.356 22.5692 22.5651 23.0177 21.9237C23.4662 21.2822 24.114 20.3446 24.4572 19.8402C25.38 18.4839 26.5416 16.797 27.1555 15.922C27.4532 15.4976 28.1215 14.5168 28.6408 13.7426L29.5848 12.3348L29.6164 14.2212C29.6338 15.2587 29.6563 20.1102 29.6664 25.0022C29.6766 29.8942 29.6912 33.9023 29.6987 33.909C29.7063 33.9158 29.9397 33.8212 30.2175 33.6988C30.6007 33.5299 30.8559 33.4605 31.2755 33.411L31.8285 33.3459V19.673C31.8285 9.77505 31.8094 6 31.7591 6C31.7209 6 31.5985 6.03852 31.4873 6.08553C31.2372 6.19128 31.1584 6.29855 29.2552 9.12518C27.7206 11.4045 26.8269 12.7144 25.7594 14.2493C25.4363 14.7139 24.811 15.6261 24.3699 16.2765C23.3539 17.7744 20.2385 22.3423 19.2237 23.822C18.7989 24.4414 18.3544 25.0938 18.2359 25.2719C18.1174 25.45 18.0012 25.5957 17.9776 25.5957C17.9365 25.5957 16.2714 23.1834 15.0043 21.288C14.673 20.7925 14.0121 19.8208 13.5355 19.1286C12.7594 18.0013 7.16775 9.72944 5.68852 7.52036C5.36707 7.04032 5.03044 6.55212 4.9405 6.4355C4.77895 6.22603 4.44068 6.00062 4.28735 6.00023C4.22434 6.00006 4.20835 8.7688 4.20835 19.6568ZM7.30471 26.9331L7.30408 36.6042L7.14506 36.2998C7.04678 36.1118 6.82342 35.8535 6.56055 35.6241C5.87422 35.0252 5.03114 34.7169 4.08447 34.7188C2.44559 34.7222 1.09593 35.4908 0.375335 36.8311C-0.661528 38.7596 0.535494 41.1255 2.91266 41.8461C3.34687 41.9777 3.52094 41.9994 4.14514 41.9999C5.04915 42.0005 5.56161 41.8959 6.34591 41.5508C7.68236 40.9627 8.78476 39.6824 9.24818 38.1804L9.4218 37.6178L9.43981 30.2136L9.45789 22.8094L9.71355 23.1697C9.85418 23.3678 10.2768 24.0011 10.6526 24.5769C11.0284 25.1527 11.6622 26.118 12.061 26.7219C12.4598 27.3258 13.4552 28.8335 14.273 30.0723C16.2494 33.0665 16.8753 33.976 17.117 34.2049C17.5362 34.6019 18.1005 34.6637 18.5886 34.3659C18.9578 34.1408 19.3008 33.6502 23.6778 27.0879C25.8543 23.8247 26.3942 23.0223 26.4815 22.921C26.5689 22.8195 26.5788 23.5216 26.5806 29.9979C26.5819 34.7805 26.6052 37.3348 26.6502 37.6278C26.9662 39.6874 28.7224 41.4748 30.8489 41.9014C32.8028 42.2934 34.7474 41.4908 35.5775 39.9496C35.9094 39.3336 36 38.9951 36 38.3722C36 36.8921 35.14 35.6626 33.6639 35.0324C32.5477 34.5559 31.0875 34.6366 30.0454 35.2323C29.6735 35.4449 29.1628 35.9362 28.9174 36.3174L28.7327 36.6042L28.7321 26.927L28.7315 17.2497L28.5577 17.2872C27.9665 17.415 27.3325 17.8729 26.8385 18.5289C26.5349 18.932 25.7369 20.1235 23.8024 23.0618C23.201 23.9754 22.5752 24.9256 22.4118 25.1734C22.2485 25.4212 21.3384 26.7895 20.3895 28.2141C19.4406 29.6387 18.5083 31.0387 18.3177 31.3252C18.1271 31.6117 17.9617 31.8461 17.9501 31.8461C17.9385 31.8461 17.8518 31.7257 17.7574 31.5786C17.4177 31.049 14.9862 27.3592 11.8667 22.6395C11.5391 22.1439 10.7889 21.0037 10.1995 20.1055C9.61008 19.2074 9.01584 18.34 8.87907 18.178C8.50521 17.7353 7.74209 17.2619 7.40217 17.2619C7.31559 17.2619 7.30528 18.2842 7.30471 26.9331Z" fill="#543F3A"/>
<path d="M59.84 33.16L59.48 35.4C58.6 35.9067 57.7333 36.2 56.88 36.28C56.08 36.1467 55.44 35.8667 54.96 35.44C54.5067 34.9867 54.16 34.32 53.92 33.44H53.64C52.0667 34.8533 50.4667 35.7867 48.84 36.24C46.84 36.24 45.3067 35.7733 44.24 34.84C43.1733 33.9067 42.6533 32.5733 42.68 30.84L42.76 25.84L42.6 17.84L46.64 17.48L46.44 29.72C46.4133 30.7067 46.6267 31.48 47.08 32.04C47.56 32.6 48.2667 32.88 49.2 32.88C50.6133 32.88 52.0667 32.2133 53.56 30.88V17.84L57.44 17.48L57.16 31.72C57.16 32.2 57.24 32.5467 57.4 32.76C57.56 32.9467 57.84 33.04 58.24 33.04C58.56 33.04 58.9733 32.9867 59.48 32.88L59.84 33.16ZM68.9859 17.24C70.5859 17.24 72.1459 17.5467 73.6659 18.16L73.1059 21.36L72.5859 21.48C71.1993 20.5467 69.8393 20.08 68.5059 20.08C67.7059 20.08 67.0659 20.2933 66.5859 20.72C66.1326 21.1467 65.9059 21.6667 65.9059 22.28C65.9059 22.9467 66.1726 23.48 66.7059 23.88C67.2659 24.28 68.1193 24.72 69.2659 25.2C70.3059 25.6533 71.1459 26.08 71.7859 26.48C72.4526 26.88 73.0126 27.4133 73.4659 28.08C73.9459 28.7467 74.1859 29.5733 74.1859 30.56C74.1859 31.5733 73.9193 32.5333 73.3859 33.44C72.8526 34.32 72.0659 35.0267 71.0259 35.56C69.9859 36.0933 68.7326 36.36 67.2659 36.36C65.4259 36.36 63.5593 35.9467 61.6659 35.12L62.1459 31.72L62.5859 31.44C63.3593 32.1067 64.2126 32.64 65.1459 33.04C66.0793 33.4133 66.9326 33.6 67.7059 33.6C68.5593 33.6 69.2393 33.3733 69.7459 32.92C70.2793 32.44 70.5459 31.88 70.5459 31.24C70.5459 30.5733 70.2793 30.0533 69.7459 29.68C69.2126 29.28 68.3726 28.8133 67.2259 28.28C66.1859 27.8267 65.3326 27.4 64.6659 27C63.9993 26.6 63.4259 26.0533 62.9459 25.36C62.4926 24.6667 62.2659 23.8133 62.2659 22.8C62.2659 21.1733 62.8659 19.84 64.0659 18.8C65.2659 17.76 66.9059 17.24 68.9859 17.24ZM80.265 20.04L84.265 31.76H84.545L88.545 20.4L89.225 17.56H92.745L86.385 35.08C85.745 36.8933 85.0383 38.3333 84.265 39.4C83.4917 40.4933 82.5317 41.36 81.385 42C80.265 42.64 78.7983 43.1867 76.985 43.64H76.625C75.985 43 75.425 42.2 74.945 41.24L75.065 40.8C76.9583 40.4533 78.4517 39.9467 79.545 39.28C80.6383 38.6133 81.6383 37.52 82.545 36L75.825 17.64L79.665 17.44L80.265 20.04ZM107.408 23.88C107.434 22.8667 107.194 22.08 106.688 21.52C106.208 20.9333 105.501 20.64 104.568 20.64C103.021 20.64 101.421 21.44 99.7678 23.04L99.7278 27.92L99.9678 36H95.8878L96.1278 28.28L95.9278 17.84L99.8078 17.48L99.7678 20.16H100.048C101.621 18.7733 103.261 17.8267 104.968 17.32C107.021 17.32 108.568 17.7867 109.608 18.72C110.674 19.6533 111.194 20.9867 111.168 22.72L111.048 27.92L111.248 36H107.128L107.408 23.88ZM123.787 17.2C124.641 17.2 125.507 17.2933 126.387 17.48C127.267 17.6667 128.041 17.92 128.707 18.24L128.027 21.64L127.627 21.8C126.214 20.9733 124.907 20.56 123.707 20.56C122.294 20.56 121.187 21.0933 120.387 22.16C119.587 23.2267 119.187 24.72 119.187 26.64C119.187 28.6933 119.601 30.2933 120.427 31.44C121.254 32.56 122.427 33.12 123.947 33.12C125.281 33.12 126.707 32.72 128.227 31.92L128.587 32.16L128.187 35.44C126.561 36.0533 124.934 36.36 123.307 36.36C120.801 36.36 118.841 35.5333 117.427 33.88C116.041 32.2 115.347 29.8933 115.347 26.96C115.347 23.92 116.094 21.5333 117.587 19.8C119.081 18.0667 121.147 17.2 123.787 17.2Z" fill="#543F3A"/>
</svg>
