<svg width="21" height="20" viewBox="0 0 21 20" fill="none" xmlns="http://www.w3.org/2000/svg">
<g opacity="0.8">
<path d="M10.5 0C4.97715 0 0.5 4.47715 0.5 10C0.5 15.5228 4.97715 20 10.5 20C16.0228 20 20.5 15.5228 20.5 10C20.4936 4.47982 16.0202 0.00642897 10.5 0Z" fill="#543f3a" fill-opacity="0.15"/>
<circle cx="10.5" cy="10" r="10" stroke="#543f3a" stroke-width="1"/>
<path d="M14.9102 5.59716C14.8454 5.53226 14.7685 5.48078 14.6838 5.44565C14.5991 5.41053 14.5083 5.39245 14.4167 5.39245C14.325 5.39245 14.2342 5.41053 14.1495 5.44565C14.0648 5.48078 13.9879 5.53226 13.9232 5.59716L10.5002 9.01316L7.07716 5.59016C7.01235 5.52535 6.93541 5.47394 6.85074 5.43887C6.76606 5.40379 6.67531 5.38574 6.58366 5.38574C6.49201 5.38574 6.40125 5.40379 6.31658 5.43887C6.2319 5.47394 6.15496 5.52535 6.09016 5.59016C6.02535 5.65496 5.97394 5.7319 5.93887 5.81658C5.90379 5.90125 5.88574 5.99201 5.88574 6.08366C5.88574 6.17531 5.90379 6.26606 5.93887 6.35074C5.97394 6.43541 6.02535 6.51235 6.09016 6.57716L9.51316 10.0002L6.09016 13.4232C6.02535 13.488 5.97394 13.5649 5.93887 13.6496C5.90379 13.7343 5.88574 13.825 5.88574 13.9167C5.88574 14.0083 5.90379 14.0991 5.93887 14.1837C5.97394 14.2684 6.02535 14.3453 6.09016 14.4102C6.15496 14.475 6.2319 14.5264 6.31658 14.5614C6.40125 14.5965 6.49201 14.6146 6.58366 14.6146C6.67531 14.6146 6.76606 14.5965 6.85074 14.5614C6.93541 14.5264 7.01235 14.475 7.07716 14.4102L10.5002 10.9872L13.9232 14.4102C13.988 14.475 14.0649 14.5264 14.1496 14.5614C14.2343 14.5965 14.325 14.6146 14.4167 14.6146C14.5083 14.6146 14.5991 14.5965 14.6837 14.5614C14.7684 14.5264 14.8453 14.475 14.9102 14.4102C14.975 14.3453 15.0264 14.2684 15.0614 14.1837C15.0965 14.0991 15.1146 14.0083 15.1146 13.9167C15.1146 13.825 15.0965 13.7343 15.0614 13.6496C15.0264 13.5649 14.975 13.488 14.9102 13.4232L11.4872 10.0002L14.9102 6.57716C15.1762 6.31116 15.1762 5.86316 14.9102 5.59716Z" fill="#543f3a"/>
</g>
</svg>
