<svg width="17" height="12" viewBox="0 0 17 12" fill="none" xmlns="http://www.w3.org/2000/svg">
<path d="M15.8806 2.2752C15.7056 1.6002 15.1806 1.0752 14.5056 0.900195C13.3056 0.575195 8.45557 0.575195 8.45557 0.575195C8.45557 0.575195 3.60557 0.575195 2.40557 0.900195C1.73057 1.0752 1.20557 1.6002 1.03057 2.2752C0.705566 3.5002 0.705566 6.0002 0.705566 6.0002C0.705566 6.0002 0.705566 8.52519 1.03057 9.72519C1.20557 10.4002 1.73057 10.9252 2.40557 11.1002C3.60557 11.4252 8.45557 11.4252 8.45557 11.4252C8.45557 11.4252 13.3056 11.4252 14.5056 11.1002C15.1806 10.9252 15.7056 10.4002 15.8806 9.72519C16.2056 8.52519 16.2056 6.0002 16.2056 6.0002C16.2056 6.0002 16.2056 3.5002 15.8806 2.2752ZM6.90557 8.32519V3.6752L10.9306 6.0002L6.90557 8.32519Z" fill="white"/>
</svg>
