<svg xmlns="http://www.w3.org/2000/svg" width="1039" height="558" viewBox="0 0 1039 558" fill="none">
<path id="Vector" d="M212.599 214.349L212.149 266.508C212.149 266.508 190.553 266.25 190.764 262.774C190.957 259.594 195.546 259.904 195.701 263.14C195.905 267.406 188.889 268.342 187.234 264.042C185.898 260.569 189.815 245.116 190.06 243.316C191.579 232.178 190.696 229.144 187.845 229.775C185.341 230.332 184.599 238.196 192.959 243.772C201.319 249.348 196.188 257.634 190.978 257.813C185.767 257.991 183.083 252.173 186.467 249.02C188.988 246.668 193.961 249.42 192.894 252.898C191.848 256.313 186.982 258.499 182.013 253.907C180.031 252.076 177.065 247.522 173.916 245.718L175.783 283.61H224V289.463H30.4321V298.482H217.546V385.069H175.333V372.893L174.816 349.893C175.716 350.479 179.582 353.535 181.563 355.366C186.532 359.958 191.398 357.772 192.444 354.357C193.511 350.879 188.538 348.127 186.018 350.479C182.633 353.632 185.317 359.45 190.528 359.272C195.739 359.093 200.869 350.808 192.509 345.231C184.149 339.655 184.891 331.791 187.396 331.234C190.246 330.603 191.129 333.637 189.61 344.776C189.365 346.575 185.448 362.028 186.784 365.501C188.439 369.801 195.456 368.865 195.251 364.599C195.096 361.363 190.507 361.053 190.314 364.233C190.104 367.709 212.599 373.795 212.599 373.795L212.149 315.808C212.149 315.808 162.211 317.905 162.222 315.619C162.226 314.676 162.222 386.873 162.222 386.873L109.086 387.775C109.086 387.775 109.097 376.529 109.086 375.599C109.078 375.007 109.07 374.405 109.062 373.795C108.897 362.001 108.556 347.276 108.904 347.332C111.465 347.745 113.722 354.575 115.555 356.269C120.524 360.861 125.39 358.675 126.436 355.26C127.503 351.782 122.53 349.03 120.009 351.381C116.625 354.535 119.309 360.353 124.52 360.174C129.73 359.996 134.861 351.71 126.501 346.134C118.141 340.557 118.883 332.694 121.387 332.136C124.238 331.506 125.121 334.54 123.602 345.678C123.357 347.478 119.44 362.931 120.776 366.404C122.431 370.704 129.448 369.767 129.243 365.501C129.088 362.266 124.499 361.955 124.306 365.136C123.768 374.016 146.029 375.599 146.029 375.599V317.874C146.029 317.874 101.346 315.55 98.3511 315.619V384.746C94.8969 384.812 91.2611 384.875 87.5559 384.931C63.8006 385.289 37.1847 385.335 37.179 383.716C37.1488 375.193 36.5567 349.634 37.179 349.893C38.984 350.647 42.8403 356.271 44.3757 357.69C49.3449 362.282 58.3024 361.105 59.3481 357.69C60.4151 354.212 55.4425 351.46 52.9219 353.812C49.5374 356.965 52.2217 362.783 57.4323 362.605C62.6428 362.426 67.7732 354.14 59.4131 348.564C51.053 342.988 51.7954 335.124 54.2997 334.567C57.15 333.936 58.033 336.97 56.5144 348.108C56.2691 349.908 52.3521 365.361 53.6887 368.834C55.3437 373.134 62.36 372.198 62.1554 367.932C62.0006 364.696 57.4114 364.386 57.2186 367.566C57.0079 371.042 80.8091 375.599 80.8091 375.599V315.808H30.4321V393.638H223.394V408C170.768 409.804 26.9028 408 26.9028 408C26.9028 408 25.4834 451.608 26.9028 471C26.9028 471 210.965 434 207.052 490.875C206.153 503.953 163.94 501.698 152.177 501.227C141.038 500.781 121.665 499.613 113.495 485.464C108.547 476.895 112.139 466.777 123.391 466.523C139.427 466.161 142.064 478.176 138.234 485.464C132.515 496.344 104.198 506.389 86.656 506.389C86.656 506.389 46.4561 511.034 33.7405 508.619C21.0249 506.204 17.3001 502.517 14.9507 495.438C12.6003 488.357 11.6244 477.886 12.4506 450.676C14.9506 430.928 15.8611 81.2347 15.8611 65.7338C18.9807 60.7155 23.7587 56.7662 31.0211 54.72C38.2835 52.6738 48.0312 52.5322 54.7803 52.5056C61.5294 52.479 65.2796 52.5675 67.2501 53.8986C69.2212 55.2295 69.4126 57.8041 70.1885 60.6548C70.9644 63.5054 72.3241 66.6318 75.8293 68.2904C79.3337 69.9469 84.9829 70.1354 100.376 70.782C115.768 71.4277 140.905 72.5336 155.488 72.537C170.071 72.5406 174.101 71.4436 177.073 69.7448C180.047 68.0467 181.963 65.7468 183.518 63.0731C185.072 60.3994 186.266 57.3532 194.223 56.5989C202.18 55.8442 216.901 57.3827 226.46 60.314C236.019 63.2452 240.419 67.5687 241.934 75.0142C241.934 75.0142 240.662 467.675 240.369 485.464C237.733 498.909 231.155 499.519 227.855 501.227C224.555 502.935 220.768 504.591 218.634 506.389C216.498 508.185 216.016 510.124 215.836 511.997C215.657 513.87 215.779 515.676 184.524 514.523C153.268 513.368 90.0569 518 59.3481 518C59.3481 518 14.3534 518.52 9.5 513C4.64657 507.48 2.50814 497.155 1.5 485.236C1.5 441.935 2.35156 67.5865 2.35156 67.5865C6.07635 53.5984 12.0963 46.713 41.9304 43.8365C71.764 40.9602 125.413 42.0927 160.217 43.0248C195.021 43.9556 210.981 44.687 223.23 46.641C235.481 48.5955 245.504 51.7641 251 58C256.918 116.853 254.362 443.288 254.362 487.046C251.606 499.149 247.351 505.063 242.067 509.069C236.782 513.072 230.47 515.169 226.403 516.714C222.336 518.259 216.351 527.1 217.546 530C217.546 535.506 282.32 561.258 305.5 535.81C337 501.227 375.161 544.176 415 557M212.599 214.349C212.599 214.349 162.661 216.446 162.672 214.16C162.676 213.217 162.672 278.64 162.672 278.64H108.904L108.696 252.944C111.732 253.082 113.462 252.527 115.443 254.358C120.412 258.95 125.278 256.764 126.324 253.349C127.391 249.871 122.418 247.12 119.898 249.471C116.513 252.624 119.198 258.442 124.408 258.264C129.619 258.085 134.749 249.799 126.389 244.223C118.029 238.647 118.772 230.783 121.276 230.226C124.126 229.595 125.009 232.629 123.49 243.767C123.245 245.567 119.328 261.02 120.665 264.493C122.32 268.793 129.336 267.857 129.131 263.591C128.977 260.355 124.387 260.045 124.195 263.226C123.984 266.701 145.579 266.959 145.579 266.959L146.029 214.8L96.1021 214.611C96.1021 237.855 96.1021 256.298 96.1021 279.542L49.7731 279.992V252.945C52.809 253.082 54.5386 252.528 56.52 254.359C61.4892 258.951 66.3554 256.765 67.4011 253.35C68.4681 249.872 63.4952 247.12 60.9746 249.471C57.5901 252.625 60.2745 258.443 65.4851 258.264C70.6957 258.086 75.8262 249.8 67.4661 244.224C59.106 238.647 59.8484 230.783 62.3527 230.226C65.203 229.595 66.0859 232.63 64.5673 243.768C64.3219 245.567 60.4048 261.021 61.7415 264.494C63.3965 268.794 70.4128 267.857 70.2083 263.591C70.0534 260.356 65.4642 260.045 65.2715 263.226C65.0607 266.702 86.656 266.96 86.656 266.96L87.106 214.8H43.9258V280.5H37.179V214.612C37.1813 214.131 37.1796 205.005 37.179 199.268L223.394 198.817C223.393 197.457 223.394 191.711 223.394 190.699L37.179 191.601V105.203H87.5558V164.994C87.5558 164.994 63.7547 160.437 63.9655 156.961C64.1582 153.78 68.7474 154.091 68.9022 157.327C69.1068 161.593 62.0904 162.529 60.4354 158.229C59.0988 154.756 63.0159 139.303 63.2612 137.503C64.7798 126.365 63.8968 123.331 61.0465 123.962C58.5423 124.519 57.7998 132.383 66.1599 137.959C74.52 143.535 69.3897 151.821 64.1791 152C58.9685 152.178 56.2841 146.36 59.6686 143.206C62.1892 140.855 67.1619 143.607 66.095 147.085C65.0492 150.5 56.0917 151.677 51.1226 147.085C49.5871 145.666 45.7308 140.042 43.9258 139.288C43.3036 139.029 43.8956 164.588 43.9258 173.111C43.9315 174.73 70.5474 174.684 94.3027 174.326C98.008 174.27 101.644 174.207 105.098 174.141V105.014C108.092 104.944 152.776 107.269 152.776 107.269V164.994C152.776 164.994 130.515 163.411 131.053 154.531C131.246 151.35 135.835 151.661 135.99 154.896C136.194 159.162 129.178 160.099 127.523 155.799C126.186 152.326 130.104 136.873 130.349 135.073C131.867 123.935 130.984 120.9 128.134 121.531C125.63 122.088 124.887 129.952 133.248 135.529C141.608 141.105 136.477 149.391 131.267 149.569C126.056 149.748 123.372 143.93 126.756 140.776C129.277 138.425 134.25 141.177 133.183 144.655C132.137 148.07 127.271 150.256 122.302 145.664C120.469 143.97 118.212 137.139 115.651 136.727C115.303 136.671 115.643 151.396 115.808 163.19C115.817 163.8 115.825 164.402 115.833 164.994C115.844 165.924 115.833 177.17 115.833 177.17L168.969 176.268C168.969 176.268 168.973 104.071 168.969 105.014C168.958 107.3 218.896 105.203 218.896 105.203L219.345 163.19C219.345 163.19 196.851 157.104 197.061 153.628C197.254 150.448 201.843 150.758 201.998 153.994C202.202 158.26 195.186 159.196 193.531 154.896C192.195 151.423 196.112 135.97 196.357 134.17C197.876 123.032 196.993 119.998 194.142 120.629C191.638 121.186 190.896 129.05 199.256 134.626C207.616 140.202 202.485 148.488 197.275 148.667C192.064 148.845 189.38 143.027 192.764 139.874C195.285 137.522 200.258 140.274 199.191 143.752C198.145 147.167 193.279 149.353 188.31 144.761C186.328 142.93 182.462 139.874 181.563 139.288L182.08 162.288V174.464C182.08 174.464 235.393 175.848 269.5 174.357C400.68 168.621 513.5 36.917 598.5 105.014C683.5 173.111 992.326 100.374 1038 1.5M212.599 214.349C212.599 214.349 212.625 266.921 212.599 266.924" stroke="#543F3A" stroke-width="2" stroke-linecap="round" stroke-linejoin="round"/>
</svg>