<svg xmlns="http://www.w3.org/2000/svg" width="594" height="526" viewBox="0 0 594 526" fill="none">
<path id="Vector" d="M0.5 1.5C123.873 -5.00535 -45.0011 442.432 47.0492 465.888C80.5695 474.43 132.547 473.059 135.621 466.747C138.68 460.435 128.041 448.354 135.621 436.634C143.2 424.914 126.609 405.979 135.621 383.443C144.632 360.908 171.515 329.168 173.324 331.879C175.132 334.591 167.552 348.103 171.877 349.64C176.202 351.176 175.75 332.542 180.979 331.714C186.208 330.885 196.394 334.124 196.937 336.655C197.479 339.185 196.892 473.933 197.841 478.226C198.79 482.519 203.115 481.028 203.793 480.35C204.471 479.672 204.2 329.831 202.844 326.727C201.488 323.624 119.783 324.016 117.749 323.082C115.714 322.133 115.579 316.047 116.393 315.64C117.206 315.234 197.826 319.15 199.725 317.81C201.623 316.454 195.852 266.246 194.225 261.199C192.597 256.153 139.93 187.627 137.761 186.377C135.591 185.111 131.989 188.184 131.989 190.519C131.989 192.869 187.187 264.453 190.246 265.703C193.305 266.969 196.605 259.256 193.893 246C191.181 232.743 183.209 210.027 184.294 208.4C185.379 206.773 195.385 205.689 196.47 206.502C197.555 207.316 207.696 263.158 210.409 264.242C213.121 265.327 238.95 195.279 239.763 192.839C240.577 190.399 236.117 188.787 235.303 189.992C234.489 191.212 210.951 253.035 209.866 256.801C208.781 260.552 217.175 316.846 217.446 323.338C217.717 329.831 207.847 330.78 207.576 327.39C207.304 324.016 310.528 327.526 311.869 328.204C313.225 328.882 314.31 332.934 314.175 334.29C314.039 335.645 221.243 331.578 220.972 330.373C220.701 329.153 220.565 322.389 221.922 321.711C223.278 321.033 305.254 324.558 306.339 323.338C307.424 322.118 294.524 216.821 290.923 211.594C287.321 206.366 111.992 213.221 108.391 213.944C104.789 214.667 126.624 310.639 129.066 312.522C131.507 314.405 136.103 314.149 135.696 312.658C135.289 311.166 87.8366 190.504 88.9065 188.516C89.9914 186.527 159.43 173.557 163.936 175.711C168.441 177.865 178.462 204.649 178.01 206.005C177.558 207.361 167.371 208.716 167.733 206.095C168.095 203.474 192.446 203.926 192.627 201.41C192.808 198.895 186.675 180.231 187.85 179.869C189.026 179.507 288.632 179.598 290.531 182.445C292.43 185.292 295.127 204.077 291.481 205.568C287.834 207.059 289.13 153.01 287.698 150.75C286.252 148.491 279.214 159.231 262.442 155.616C245.67 152.016 236.373 124.419 238.633 104.956C240.894 85.4782 261.357 72.7642 269.118 71.8754C276.879 70.9867 289.416 84.0471 296.89 92.4377C304.38 100.828 302.391 145.629 282.454 155.631C262.518 165.634 245.655 151.458 242.853 146.322C240.05 141.185 242.039 138.473 242.672 140.281C243.305 142.089 246.454 174.356 244.299 175.079C242.129 175.802 236.991 163.088 233.841 165.98C230.692 168.872 228.431 176.344 225.176 173.919C221.937 171.478 212.187 163.645 197.495 163.826C182.787 164.007 168.547 182.4 173.504 182.038C178.462 181.677 185.59 165.814 203.628 157.966C221.665 150.118 220.58 143.806 220.942 136.515C221.304 129.209 220.038 70.4293 242.581 52.0362C265.125 33.6431 297.056 47.5321 305.344 72.5985C313.647 97.6649 309.307 143.505 313.376 169.068C317.43 194.632 331.64 182.596 330.555 188.139C329.47 193.683 316.616 187.868 316.345 192.462C316.073 197.057 321.754 218.839 317.836 219.367C313.918 219.894 307.831 201.923 305.389 208.008C302.948 214.094 300.929 228.435 299.03 221.671C297.131 214.908 294.705 170.695 294.434 163.118C294.163 155.541 300.929 205.041 307.288 200.582C313.647 196.123 307.228 186.121 318.786 186.467C330.344 186.813 343.544 195.174 346.242 214.094C348.954 233.03 348.276 282.123 341.51 316.74C334.744 351.357 316.525 369.931 314.371 367.942C312.201 365.954 306.203 347.697 292.686 349.052C279.154 350.408 276.185 350.815 278.883 343.373C281.595 335.932 288.211 337.423 287.939 340.27C287.668 343.117 279.681 356.901 272.795 356.765C265.893 356.629 205.556 340.27 210.559 338.101C215.562 335.932 276.984 354.189 274.272 358.527C271.559 362.851 261.96 372.868 266.692 372.868C271.424 372.868 276.969 364.749 286.719 370.835C296.468 376.921 289.296 385.04 269.811 393.28C250.327 401.52 221.379 398.281 213.935 396.127C206.491 393.958 208.209 385.628 210.017 385.085C211.825 384.543 214.523 394.365 228.688 393.657C242.853 392.934 251.683 386.17 249.513 385.899C247.343 385.628 234.459 391.397 227.964 389.861C221.469 388.324 221.017 383.458 230.496 382.012C239.959 380.566 247.177 375.429 253.763 376.423C260.348 377.418 258.992 380.928 264.492 379.406C269.992 377.87 274.588 371.648 282.258 372.1C289.928 372.552 298.488 384.181 296.966 388.957C295.444 393.732 284.157 390.493 286.508 389.589C288.859 388.686 305.902 395.268 309.865 389.499C313.828 383.729 316.993 373.094 313.376 373.185C309.774 373.275 308.418 385.085 310.754 404.563C313.105 424.041 320.308 438.457 315.26 447.661C310.211 456.865 285.86 482.097 294.509 481.916C303.174 481.736 307.318 459.923 325.356 448.022C343.394 436.122 353.852 430.714 352.058 433.064C350.265 435.414 311.839 460.465 308.946 472.366C306.052 484.266 330.766 468.042 343.574 478.316C356.383 488.59 369.373 487.867 378.203 483.363C387.049 478.858 449.993 428.002 442.955 427.641C435.918 427.279 410.481 453.25 401.47 472.532C392.459 491.828 404.529 495.61 411.566 495.971C418.604 496.333 451.243 476.855 456.291 482.263C461.34 487.671 460.074 496.694 471.978 491.813C483.883 486.948 530.959 470.001 532.767 463.147C534.575 456.293 489.474 414.641 454.167 418.166C418.86 421.676 418.317 406.265 402.359 406.401C386.401 406.536 373.547 417.217 376.651 417.488C379.755 417.759 398.426 412.893 407.633 398.688C416.825 384.483 422.386 340.134 425.626 342.56C428.866 345 418.86 380.43 422.642 387.721C426.424 395.027 479.317 386.772 511.791 405.979C544.265 425.185 555.085 444.528 551.287 443.985C547.505 443.443 523.831 428.846 526.257 435.866C528.699 442.901 547.354 449.258 549.117 455.072C550.88 460.887 544.25 471.161 540.859 465.888C537.484 460.616 568.722 454.123 571.163 425.999C573.604 397.875 562.107 384.347 566.974 356.223C571.841 328.098 571.841 267.376 567.11 241.812C562.378 216.248 540.452 211.925 526.664 236.54C512.876 261.154 515.573 306.858 518.406 315.655C521.254 324.453 536.128 326.607 534.229 321.741C532.33 316.876 492.834 310.654 478.353 303.348C463.871 296.042 456.578 305.653 452.509 319.301C448.456 332.964 445.336 337.83 443.98 337.83C442.624 337.83 430.448 333.1 431.262 329.168C432.075 325.251 450.113 291.297 452.991 292.111C455.885 292.924 460.933 298.513 458.672 300.32C456.412 302.128 434.592 280.481 428.368 281.746C422.145 283.012 434.14 291.478 429.363 293.466C424.586 295.455 416.916 296.976 413.586 300.953C410.255 304.93 367.956 395.027 367.143 401.656C366.329 408.284 369.855 415.454 373.637 420.516C377.42 425.592 369.237 435.399 348.336 426.195C327.435 417.006 312.683 399.351 322.222 394.952C331.76 390.553 365.44 405.632 364.626 412.667C363.812 419.702 341.631 396.308 329.183 399.682C316.736 403.057 347.643 425.246 358.809 422.263C369.976 419.28 337.095 407.651 334.94 402.725C332.77 397.784 345.895 398.266 361.853 372.703C377.811 347.139 399.888 306.451 399.978 302.113C400.069 297.79 389.309 296.419 389.49 293.722C389.671 291.011 393.272 287.591 394.448 287.591C395.623 287.591 405.267 295.53 405.81 290.92C406.352 286.326 396.075 285.332 396.799 281.37C397.522 277.408 399.33 275.781 401.123 275.781C402.932 275.781 410.406 282.816 413.118 280.647C415.831 278.478 406.563 272.422 403.113 271.337C399.662 270.253 394.267 277.092 390.665 281.822C387.064 286.552 385.12 295.078 386.567 297.82C388.013 300.576 397.658 300.034 395.668 304.674C393.679 309.314 384.442 312.854 380.916 310.022C377.39 307.19 385.994 305.834 384.367 300.893C382.739 295.952 374.361 292.442 375.37 294.671C376.38 296.901 379.092 287.847 383.146 286.627C387.2 285.407 386.386 281.355 384.773 279.05C383.146 276.745 375.099 278.447 376.32 279.517C377.54 280.587 394.312 275.736 394.041 273.371C393.77 271.006 383.493 266.411 383.824 269.319C384.156 272.226 398.501 271.413 398.366 267.285C398.23 263.158 389.641 262.073 385.316 263.158C380.991 264.242 372.809 275.932 370.91 284.789C369.011 293.647 373.351 314.405 380.855 315.625C388.36 316.846 386.537 313.26 384.171 313.998C381.805 314.737 355.901 361.058 356.172 363.499C356.443 365.939 366.269 372.16 368.755 368.635C379.846 352.954 431.518 253.004 437.606 242.731C443.694 232.457 454.785 228.254 461.279 240.968C467.774 253.682 450.912 286.853 448.651 288.57C446.391 290.288 443.332 287.305 444.236 285.422C445.14 283.524 458.898 254.089 457.226 244.222C455.553 234.355 447.31 239.357 443.784 243.951C440.273 248.546 408.07 313.547 409.788 314.179C411.506 314.812 418.709 311.558 416.916 310.037C415.108 308.5 406.187 321.124 407.362 321.847C408.537 322.57 416.373 320.853 414.49 320.039C412.606 319.226 403.399 324.995 404.936 328.61C406.473 332.211 421.165 328.52 418.016 327.074C414.866 325.628 415.303 333.024 408.281 333.928C401.244 334.832 400.521 338.613 405.75 340.149C410.979 341.686 418.468 338.523 418.649 340.511C418.83 342.499 403.143 383.383 399.345 384.874C395.563 386.366 389.475 380.687 391.494 376.89C393.529 373.109 409.216 345.783 409.758 346.326C410.301 346.868 394.809 380.882 386.763 387.164C378.716 393.446 387.983 400.752 378.173 398.733C368.363 396.7 380.479 385.146 385.075 377.101C389.671 369.057 402.66 345.663 406.036 343.976C409.411 342.289 415.846 341.882 423.953 332.497C432.075 323.127 437.124 328.354 443.347 332.045C449.571 335.736 531.275 387.044 550.941 371.166C570.606 355.304 564.292 250.715 559.605 229.987C554.919 209.244 520.998 201.862 515.769 202.405C510.54 202.947 496.059 225.98 473.335 228.827C450.61 231.674 450.746 223.012 452.841 222.334C454.935 221.656 463.253 223.344 474.284 216.52C485.315 209.696 492.337 199.482 489.157 200.025C485.978 200.567 475.022 216.053 460.888 217.815C446.753 219.578 448.305 215.586 449.314 213.01C450.324 210.434 452.162 208.475 452.554 210.569C452.961 212.663 418.604 270.012 415.213 271.895C411.838 273.793 406.684 270.479 407.437 268.852C408.191 267.225 444.161 209.018 445.457 203.866C446.738 198.729 447.265 199.558 448.968 200.1C450.686 200.642 455.417 206.005 451.364 206.683C447.31 207.361 433.884 200.085 432.136 189.465C430.373 178.845 427.268 173.301 425.309 169.445C423.35 165.588 419.628 151.127 421.663 150.78C423.697 150.449 425.852 162.35 429.514 157.68C433.16 153.01 453.187 131.845 455.146 136.184C457.105 140.507 455.885 148.491 460.496 147.542C465.092 146.593 471.451 143.083 475.987 147.677C480.523 152.272 485.45 170.469 487.56 167.291C489.654 164.112 489.112 143.685 497.566 144.499C506.02 145.312 506.893 159.578 507.843 156.128C508.792 152.679 512.71 108.903 483.22 98.629C453.73 88.3554 436.415 102.5 430.915 107.818C425.415 113.136 439.926 104.399 438.856 107.276C437.771 110.168 421 118.724 415.499 127.928C409.999 137.117 413.601 154.622 415.68 153.176C417.76 151.73 417.941 136.229 421.542 137.856C425.144 139.482 425.234 152.995 429.031 148.31C432.814 143.625 437.952 121.27 444.718 118.739C451.484 116.209 442.82 133.788 449.134 130.64C455.448 127.492 463.027 115.772 469.959 115.501C476.906 115.229 464.007 141.2 473.289 138.398C482.572 135.596 492.05 124.87 496.737 127.672C501.423 130.474 484.561 143.173 489.971 143.083C495.381 142.992 501.966 136.229 505.025 143.806C508.084 151.383 505.115 173.015 499.434 176.359C493.753 179.703 491.041 172.232 493.286 172.578C495.516 172.909 498.5 189.284 506.472 196.515C514.458 203.745 495.381 219.035 477.313 220.918C459.26 222.816 468.497 242.083 496.812 226.221C525.127 210.358 525.511 207.11 559.605 214.094C585.343 219.367 570.361 308.423 575.338 368.635C580.397 429.844 605.354 487.97 585.343 525" stroke="#543F3A" stroke-width="2" stroke-miterlimit="10"/>
</svg>