<svg xmlns="http://www.w3.org/2000/svg" width="686" height="561" viewBox="0 0 686 561" fill="none">
<path id="Vector" d="M1.5 41.3708C69.5 62.9755 12.2494 223.785 43 241.403C73.7506 259.021 64.6705 313.098 80.5772 309.515C84.5509 308.627 165.096 308.627 166.838 311.72C168.611 314.814 175.641 321.858 166.838 322.746C158.034 323.634 135.14 319.224 133.825 322.317C132.511 325.41 133.397 458.603 136.454 459.92C139.541 461.237 148.773 462.125 148.773 459.92C148.773 457.715 149.201 326.299 147.458 326.299C145.716 326.299 92.4373 324.522 91.5508 325.87C90.6644 327.217 88.9221 460.379 86.2627 460.808C83.6339 461.237 88.0356 303.819 89.35 302.471C90.6644 301.155 163.598 304.677 171.148 302.471C178.698 300.266 193.676 287.924 190.589 286.607C187.501 285.29 168.58 298.949 164.606 298.949C160.633 298.949 174.724 287.036 174.296 284.402C173.868 281.768 160.205 296.744 152.716 298.949C145.227 301.155 118.817 299.378 112.214 295.427C105.612 291.446 95.9219 273.377 96.3804 249.55C96.839 225.722 98.5813 223.517 101.21 223.517C103.839 223.517 161.519 229.244 161.519 231.909C161.519 234.573 164.148 238.953 161.947 239.841C159.746 240.729 114.415 234.757 114.415 233.011C114.415 231.266 114.629 222.415 117.502 222.415C120.376 222.415 119.031 230.837 117.716 232.338C116.402 233.838 94.3936 230.133 94.3936 229.03C94.3936 227.928 95.28 220.21 98.1228 220.424C100.996 220.639 149.17 206.306 152.257 203.672C155.345 201.038 103.166 216.473 101.852 216.014C100.538 215.555 132.236 203.488 133.336 203.365C134.437 203.243 102.524 211.389 102.096 209.858C101.669 208.327 100.782 196.628 105.398 195.311C110.013 193.994 122.118 195.311 135.537 190.472C148.956 185.633 162.834 178.558 163.475 175.924C164.148 173.291 159.502 161.163 160.847 157.855C162.161 154.547 172.799 149.188 175.305 148.3C177.812 147.412 193.217 150.352 194.226 152.281C195.235 154.211 184.903 156.109 184.995 155.068C185.087 154.027 192.698 153.966 193.584 156.018C194.471 158.069 184.995 159.693 184.842 158.651C184.689 157.61 194.165 158.131 194.318 160.275C194.471 162.418 184.842 163.735 184.781 162.633C184.72 161.53 193.279 162.204 193.951 163.95C194.624 165.726 183.375 167.472 181.113 168.145C178.851 168.819 176.925 174.454 171.056 175.189C165.187 175.924 164.056 161.683 162.986 159.019C161.917 156.354 118.817 170.351 114.14 170.473C109.433 170.626 129.699 164.164 131.013 163.276C132.327 162.388 105.184 170.932 104.603 168.268C104.022 165.634 127.498 162.541 129.974 161.224C132.48 159.907 134.803 141.531 136.729 140.95C138.624 140.368 132.328 159.907 133.214 160.489C134.1 161.071 155.956 156.232 157.576 156.967C159.196 157.702 162.558 175.036 161.672 175.924C160.786 176.813 136.576 189.737 124.686 191.054C112.795 192.371 92.1011 195.158 86.9658 183.704C81.8305 172.249 90.9395 155.037 99.59 145.053C108.241 135.069 126.581 115.07 137.004 113.141C147.428 111.242 167.235 148.575 168.702 148.575C170.17 148.575 133.336 86.8332 134.07 84.7813C134.803 82.7293 143.179 80.0649 144.34 78.3192C145.502 76.5429 137.738 69.652 140.367 68.4576C142.995 67.2632 144.035 67.7226 144.921 69.7745C145.808 71.8265 152.104 69.9276 152.41 66.6813C152.716 63.4349 149.904 58.9023 146.847 59.6373C143.76 60.3723 140.825 66.4056 138.471 65.8237C136.118 65.2419 133.183 61.4136 133.336 60.3723C133.489 59.331 136.576 60.3723 139.052 60.8011C141.528 61.2298 144.249 58.8716 143.943 55.809C143.637 52.7158 142.323 49.1938 139.694 50.3576C137.065 51.5214 133.397 57.1259 131.93 57.5547C130.463 57.9835 125.328 59.1779 120.498 54.6146C115.668 50.0513 118.603 44.6305 119.764 44.4774C120.926 44.3242 117.991 51.5214 122.699 53.7264C127.406 55.9315 131.502 54.7677 135.904 48.8875C140.306 43.0073 135.476 31.9819 125.205 30.9406C114.935 29.8994 101.302 36.3921 105.551 48.4281C109.799 60.4948 118.756 64.5987 119.061 66.0687C119.367 67.5388 115.088 67.9676 114.232 70.0501C113.376 72.1327 114.66 77.7067 111.297 77.5535C107.935 77.4004 101.607 69.7745 103.808 67.2632C106.009 64.7518 109.983 65.64 112.612 65.4869C115.24 65.3337 116.86 62.3936 118.481 62.9755C120.101 63.5574 128.17 74.8891 127.59 76.3591C127.009 77.8292 120.987 78.7173 120.987 80.9224C120.987 83.1275 122.301 88.1195 118.481 87.1089C114.66 86.0982 113.345 81.0755 114.812 78.1354C116.28 75.1953 119.367 73.419 121.568 74.0315C123.769 74.6134 126.55 75.8078 127.865 79.0236C129.179 82.2393 131.533 87.4151 132.694 87.997C133.856 88.5789 144.279 79.7586 146.205 80.7999C148.1 81.8412 181.632 144.594 183.191 145.697C184.72 146.799 165.371 111.947 166.471 110.201C167.572 108.425 172.34 109.619 173.96 109.466C175.58 109.313 185.392 116.663 185.851 117.98C186.279 119.297 185.545 128.423 186.584 129.158C187.624 129.894 188.357 119.297 189.947 118.439C191.567 117.551 198.75 115.928 199.484 116.541C200.217 117.122 200.217 123.309 200.37 123.738C200.523 124.166 190.405 133.293 187.593 134.028C184.811 134.763 170.292 113.294 170.139 111.824C169.986 110.354 178.637 101.534 178.79 98.5936C178.943 95.6535 173.074 90.6615 172.34 85.6694C171.606 80.6774 177.475 74.9503 179.982 77.7373C182.488 80.5243 182.183 84.9344 181.449 85.8226C180.715 86.7107 178.087 86.5576 178.943 88.7627C179.798 90.9678 177.047 92.009 176.008 89.804C174.969 87.5989 171.912 74.3684 178.637 65.1193C185.362 55.8703 200.34 51.7358 210.488 58.9329C220.636 66.13 227.055 67.7532 230.295 65.1193C233.536 62.4855 231.916 72.1633 230.295 76.1447C228.675 80.1261 219.444 84.3831 215.042 82.9131C210.641 81.443 198.322 74.0928 195.235 73.7865C192.148 73.4803 193.034 80.8305 192.606 84.0769C192.178 87.3232 187.776 93.2035 190.405 99.8187C193.034 106.434 200.37 110.415 204.772 110.262C209.174 110.109 215.776 98.5018 216.51 100.125C217.243 101.748 211.069 112.62 205.933 113.784C200.798 114.948 190.833 116.296 187.165 113.355C183.497 110.415 179.248 96.1436 183.344 91.6109C187.44 87.0476 184.964 80.4324 183.191 78.2273C181.418 76.0222 193.034 67.5082 197.864 71.1833C202.693 74.8584 212.964 81.4737 216.357 81.3205C219.719 81.1674 221.064 83.9544 220.025 87.507C218.986 91.0596 220.453 104.566 214.156 110.14C207.859 115.714 202.265 116.326 201.837 117.643C201.409 118.96 201.532 122.941 202.418 123.83C203.305 124.718 222.47 128.393 229.745 132.68C237.02 136.968 270.675 174.699 271.684 185.602C272.662 196.505 250.898 234.237 246.435 232.583C241.972 230.929 229.256 212.737 231.824 211.083C234.391 209.429 246.374 199.384 254.077 195.862C261.78 192.34 245.273 197.179 244.387 196.291C243.501 195.403 254.077 178.65 254.077 175.771C254.077 172.893 247.26 187.011 245.273 186.123C243.287 185.235 222.593 165.389 214.248 164.501C205.903 163.613 186.523 167.135 184.108 170.687C181.694 174.209 149.231 181.59 157.821 220.302C166.41 259.013 177.292 261.984 184.903 264.281C192.514 266.578 209.326 272.213 209.326 293.375C209.326 314.538 208.012 420.045 206.025 424.363C204.038 428.651 177.964 428.651 176.314 426.691C174.663 424.7 172.34 414.44 175.977 413.797C179.615 413.154 203.366 410.826 203.366 414.471C203.366 418.115 200.737 435.634 202.051 438.604C203.366 441.575 228.278 449.844 231.824 454.162C235.37 458.45 231.243 459.461 231.824 460.778C232.405 462.094 182.886 462.768 181.571 459.461C180.257 456.153 181.571 431.009 179.584 423.077C177.598 415.145 165.065 333.771 168.366 329.147C171.667 324.522 171.668 324.522 171.668 324.522C171.668 324.522 173.991 382.405 176.619 383.722C179.248 385.039 187.501 369.512 188.846 372.483C190.161 375.453 177.903 400.689 180.257 406.876C182.611 413.062 192.484 388.01 193.462 391.655C194.44 395.299 185.514 408.468 188.174 410.52C190.833 412.541 209.968 412.511 210.305 408.866C210.641 405.222 210.977 344.368 210.977 344.368C210.977 344.368 221.217 386.693 237.723 391.991C254.23 397.29 247.627 417.135 246.466 419.126C245.304 421.117 221.523 412.511 220.544 414.165C219.566 415.818 210.977 436.981 214.278 439.646C217.58 442.279 250.256 456.184 253.893 454.53C257.531 452.876 238.365 437.012 238.06 430.397C237.723 423.781 242.339 416.829 242.675 414.839C243.012 412.848 221.217 412.848 220.544 408.897C219.872 404.916 229.592 380.445 231.854 380.782C234.086 381.119 246.313 396.647 256.553 396.34C266.793 396.003 289.229 390.399 295.19 385.744C301.12 381.119 302.77 379.128 304.421 378.455C306.072 377.781 344.036 458.511 344.036 458.511C344.036 458.511 292.194 382.436 292.194 380.445C292.194 378.455 316.617 365.224 322.884 351.351C329.15 337.446 324.198 315.947 316.954 303.727C309.709 291.507 290.88 269.671 291.216 258.094C291.552 246.518 284.95 264.373 276.36 261.739C267.771 259.105 247.321 239.259 255.238 227.346C263.155 215.432 246.221 230.531 244.448 228.785C242.675 227.039 227.942 238.708 223.112 239.81C218.283 240.913 215.837 235.4 218.038 233.318C220.239 231.235 225.068 228.019 225.068 229.336C225.068 230.653 214.4 235.952 213.728 232.858C213.056 229.765 220.331 225.569 221.217 225.692C222.103 225.814 213.3 232.093 212.077 231.082C210.855 230.102 209.54 228.111 212.75 225.784C215.929 223.456 219.689 220.394 220.575 221.251C221.462 222.109 209.999 229.643 208.593 228.203C207.156 226.764 204.405 223.027 212.994 218.617C221.584 214.207 228.95 212.002 229.929 213.227C230.907 214.452 239.894 227.223 239.16 228.264C238.426 229.306 233.872 230.623 233.872 231.633C233.872 232.644 292.867 333.741 292.194 336.374C291.522 339.008 284.063 341.887 283.819 344.092C283.605 346.297 298.797 371.656 299.897 371.441C300.998 371.227 307.6 368.134 307.386 364.826C307.172 361.518 295.587 340.999 292.867 339.896C290.146 338.794 288.251 344.092 286.05 344.092C283.849 344.092 229.776 241.617 228.034 241.403C226.261 241.189 220.544 243.822 214.828 238.984C209.112 234.145 202.296 223.334 204.497 220.455C206.698 217.576 206.698 217.576 206.698 217.576C206.698 217.576 219.903 211.849 219.903 209.429C219.903 207.01 198.567 168.421 195.265 168.635C191.964 168.85 186.676 169.524 183.161 174.822C179.646 180.12 171.943 218.25 184.934 236.35C197.925 254.419 206.514 259.289 203.427 266.547C200.34 273.805 196.396 260.361 204.099 255.95C211.802 251.54 233.505 269.395 231.793 289.7C230.081 310.005 221.278 318.152 218.833 318.366C216.418 318.581 220.82 304.922 229.409 315.488C237.998 326.084 228.095 352.974 251.203 369.726C274.312 386.479 285.745 384.274 288.832 384.059C291.919 383.845 306.225 377.444 309.954 372.146C313.683 366.847 325.36 362.008 329.333 347.89C350.563 389.535 366.578 443.801 396.789 459.086C427 474.371 510.718 458.491 515.756 457.657C520.777 456.824 611.916 459.817 632.797 452.25C653.389 444.785 617.429 431.47 614.053 432.949C610.661 434.429 629.506 433.545 630.185 428.494C630.88 423.461 591.409 346.871 586.676 341.004C581.927 335.121 583.996 332.281 583.996 332.281C583.996 332.281 583.996 332.281 584.013 330.121C584.013 327.962 582.656 326.482 580.62 324.272C578.585 322.061 596.192 280.858 599.008 255.419C601.823 230.099 602.417 219.199 602.18 215.747C601.942 212.295 592.596 211.785 582.978 212.227C573.293 212.669 545.271 207.397 539.622 199.762C533.957 192.11 555.126 167.147 556.975 161.926C558.824 156.723 547.408 160.413 559.926 147.2C572.309 134.107 572.902 122.764 572.919 120.384C572.936 118.003 575.871 135.722 570.341 160.515C564.777 185.461 552.293 205.969 555.872 210.22C559.451 214.471 587.372 198.725 596.463 194.321C605.504 189.95 591.035 209.506 596.345 208.52C601.637 207.55 604.453 203.843 606.217 200.799C607.981 197.756 617.056 151.928 619.074 146.061C621.076 140.211 622.959 102.069 622.229 97.5801C621.5 93.0909 618.752 98.8045 619.736 102.018C620.703 105.232 633.255 109.756 643.517 112.238C653.729 114.721 655.408 118.734 660.005 119.397C664.585 120.061 655.9 114.398 651.303 114.245C646.689 114.092 633.967 117.612 629.048 118.734C624.112 119.856 628.064 116.558 621.161 115.945C614.223 115.333 597.43 126.182 597.43 126.182C597.43 126.182 616.36 136.419 618.345 138.154C620.33 139.888 619.091 137.167 619.838 136.708C620.584 136.249 623.807 137.814 624.299 136.81C624.757 135.892 490.194 66.0362 467.735 54.4389C465.072 53.0615 464.699 53.9798 462.663 52.3983C462.341 52.1602 462.104 51.9732 462.104 51.9732L457.456 53.4016C457.456 53.4016 461.493 56.5305 462.85 56.9386C464.19 57.3637 464.75 56.5985 464.75 56.5985C464.75 56.5985 593.936 124.839 599.958 125.094C605.962 125.349 595.717 120.01 593.97 117.221C592.223 114.449 607.252 117.612 611.984 115.673C616.717 113.735 595.53 106.338 591.239 106.729C586.947 107.137 583.894 111.337 582.588 117.017C581.282 122.713 589.441 111.303 589.441 111.303C589.441 111.303 585.353 117.782 585.082 122.237C584.81 126.709 590.679 115.35 591.443 114.636C592.206 113.905 587.88 120.112 588.864 124.669C589.848 129.226 592.935 118.7 591.409 120.673C589.882 122.645 589.356 127.356 591.629 125.961C593.902 124.567 594.428 120.945 599.194 120.826C603.944 120.707 603.639 130.655 610.39 130.433C617.107 130.212 615.377 129.804 618.599 130.076C621.822 130.348 622.552 133.29 618.345 132.933C614.121 132.576 617.904 120.367 618.396 119.363C618.905 118.36 620.872 119.584 623.349 120.316C625.825 121.064 623.841 123.496 623.824 127.135C623.807 130.791 625.52 135.365 630.948 135.297C636.359 135.229 663.584 140.075 674.406 134.294C685.143 128.546 686.042 120.945 681.751 110.062C677.442 99.1616 629.184 72.1069 622.552 68.842C615.885 65.5601 618.04 83.1601 619.515 86.425C622.348 89.3498 622.942 71.5798 617.853 68.876C614.647 65.6961 590.73 60.5946 586.727 56.7686C582.707 52.9425 591.239 58.0269 592.681 68.893C594.123 79.7421 587.813 84.0953 587.049 85.8638C586.286 87.6323 582.283 80.4223 580.519 79.9801C578.755 79.538 580.519 79.9801 582.826 74.9637C585.132 69.9473 584.691 61.0028 582.452 55.5272C580.213 50.0516 583.317 37.8422 581.604 28.7786C579.891 19.698 577.126 18.3376 564.964 16.127C552.717 13.8994 546.984 22.4528 539.741 25.0545C532.464 27.6563 540.284 22.997 540.284 22.997C540.284 22.997 535.348 23.4901 534.33 22.0447C533.312 20.6163 536.196 18.3036 534.906 16.8242C533.617 15.3618 534.94 13.3892 539.351 11.5357C543.744 9.68217 555.906 0.363524 563.539 2.08101C571.138 3.7815 570.85 8.7129 570.833 11.8418C570.816 14.9707 568.56 10.5154 574.395 9.64816C580.213 8.78092 588.457 18.8648 588.118 32.6217C587.796 46.4126 580.196 51.0719 579.688 51.8031C579.179 52.5343 583.029 43.5218 581.027 40.1718C579.026 36.8219 575.701 43.2497 575.701 43.2497C575.701 43.2497 574.989 36.6178 573.242 33.2849C571.495 29.9519 568.441 30.3941 563.878 27.2482C559.299 24.1023 561.639 19.3919 562.42 17.3854C563.2 15.3788 562.131 22.3338 555.465 24.1873C548.782 26.0578 540.046 22.1467 538.927 30.7512C537.807 39.3556 545.542 72.243 553.786 72.277C561.996 72.311 571.478 65.1009 576.074 62.1591C580.637 59.2343 570.884 76.8853 562.708 78.4497C554.481 80.0312 548.29 80.7454 549.087 77.9056C549.884 75.0657 576.244 72.9572 579.518 75.6439C582.792 78.3307 552.124 83.5172 550.071 83.3131C548.002 83.126 548.036 80.2012 545.712 79.1809C543.405 78.1606 523.016 84.9796 527.189 86.1869C531.361 87.3943 533.193 86.2379 534.279 82.5989C535.348 78.9769 532.735 80.3203 532.735 80.3203C532.735 80.3203 536.942 75.6609 546.831 71.0696C556.652 66.5123 568.119 71.6308 570.409 72.1239C572.682 72.6171 581.757 80.3543 582.978 88.6186C584.182 96.8829 575.006 104.467 562.471 108.089C549.834 111.745 550.105 108.582 547.798 107.307C545.474 106.032 552.938 109.637 553.718 109.433C554.498 109.245 553.006 101.134 549.172 97.5972C545.322 94.0431 537.502 97.3081 532.769 102.222C528.02 107.137 529.546 110.487 531.87 114.177C534.177 117.867 530.089 108.667 528.529 107.46C526.968 106.253 515.569 115.724 507.359 116.643C499.099 117.561 496.487 112.731 495.978 111.065C495.469 109.399 522.1 94.2982 524.763 90.7952C527.426 87.2922 521.387 87.5303 519.555 87.0882C517.724 86.646 453.928 123.036 454.437 125.281C454.946 127.526 458.898 119.074 453.656 122.203C448.398 125.349 448.33 130.57 444.666 135.79C441.002 141.027 436.015 141.759 438.458 144.428C440.901 147.098 441.342 136.079 434.692 136.946C428.009 137.814 433.369 150.414 440.29 150.652C447.177 150.89 449.568 137.848 453.47 134.294C457.354 130.757 454.64 128.07 452.486 125.978C450.332 123.887 454.352 130.808 456.54 130.433C458.728 130.059 489.26 112.697 493.823 112.272C498.369 111.847 498.013 120.214 504.9 122.679C511.77 125.145 522.643 119.856 528.698 117.697C534.737 115.537 527.681 115.197 526.086 117.476C524.492 119.754 522.286 129.515 518.792 136.776C515.281 144.054 514.45 148.05 517.571 152.88C520.692 157.709 513.704 142.847 509.785 137.95C505.867 133.035 500.405 122.577 497.776 118.564C495.163 114.551 488.446 116.694 482.51 118.36C476.556 120.027 476.878 116.507 475.012 114.177C473.146 111.83 471.976 119.363 473.842 121.166C475.708 122.951 471.45 117.425 468.244 114.143C465.021 110.861 468.431 120.163 471.111 122.849C473.791 125.519 469.279 118.87 465.768 116.932C462.256 114.993 466.429 127.917 465.344 127.832C464.258 127.747 463.766 124.414 461.069 121.999C458.372 119.584 459.084 127.05 461.205 131.335C463.325 135.62 473.163 131.216 482.391 128.138C491.568 125.077 488.022 129.685 489.6 132.525C491.16 135.365 487.954 134.566 487.463 131.267C486.971 127.951 497.436 125.553 498.776 125.672C500.116 125.774 501.389 130.212 501.626 132.95C501.864 135.671 492.517 136.283 492.483 138.46C492.466 140.619 506.07 170.089 519.844 169.358C533.499 168.643 548.494 125.247 546.458 110.674C544.439 96.1007 543.184 115.928 543.642 124.839C544.117 133.766 543.456 147.608 537.909 162.25C532.345 176.959 524.526 201.565 522.354 199.745C520.183 197.909 528.885 201.854 536.45 206.275C543.998 210.662 547.221 210.866 560.062 216.699C572.818 222.481 550.902 222.821 546.068 221.409C541.217 219.998 547.238 210.866 547.238 210.866C547.238 210.866 562.233 215.152 578.161 216.155C593.953 217.141 596.582 213.468 597.074 218.995C597.566 224.538 583.928 222.056 572.292 222.447C560.571 222.838 554.159 220.219 536.399 214.097C518.453 207.907 521.744 207.55 522.32 204.779C522.897 202.007 520.098 208.01 516.723 217.379C513.33 226.766 477.149 295.959 476.929 313.899C476.708 331.873 487.836 441.588 482.645 447.523C477.438 453.474 457.354 450.788 457.235 459.086C457.134 467.401 502.864 462.487 505.12 461.858C507.376 461.228 508.106 446.638 507.563 444.309C507.02 441.979 491.194 446.247 486.089 445.72C480.966 445.193 482.17 439.887 482.17 439.887C482.17 439.887 491.839 438.629 496.945 436.827C502.05 435.041 504.798 439.666 508.733 439.632C512.652 439.598 509.225 342.365 509.259 338.913C509.293 335.461 509.31 334.304 509.344 331.431C509.378 328.557 509.955 326.278 509.955 326.278C509.955 326.278 509.955 326.278 508.886 322.231C507.818 318.184 508.886 322.231 511.685 321.16C514.467 320.088 544.558 278.035 548.968 266.982C553.379 255.98 543.099 257.154 540.979 252.545C538.842 247.937 545.288 253.889 549.596 255.793C553.905 257.698 548.561 251.814 547.001 243.89C545.44 235.948 552.378 244.723 554.99 255.504C557.602 266.268 543.693 314.596 545.729 331.125C547.764 347.67 600.992 424.583 606.777 431.895C612.544 439.19 612.018 437.507 621.483 436.282C630.88 435.058 635.036 437.83 635.036 437.83C635.036 437.83 633.459 442.336 626.674 444.666C619.872 447.012 610.949 441.469 610.949 441.469C610.949 441.469 585.913 454.274 588.033 457.657C590.153 461.041 627.165 457.045 635.511 455.787C643.806 454.529 644.509 444.819 644 441.469C643.491 438.119 646.956 452.998 648.5 455.787C650.044 458.559 584.013 554.871 508.733 559.871" stroke="#543F3A" stroke-width="2" stroke-linecap="round" stroke-linejoin="round"/>
</svg>