<svg xmlns="http://www.w3.org/2000/svg" width="685" height="653" viewBox="0 0 685 653" fill="none">
<path id="Vector" d="M685 619.5C603.5 619.5 330.28 689.897 278.107 622.51C274.989 619.105 212.67 184.468 212.045 174.8C211.404 165.135 217.632 160.385 228.724 159.959C239.816 159.534 489.437 168.455 499.096 169.346C508.751 170.22 516.318 180.66 519.344 192.457C522.348 204.226 622.835 570.217 624.173 584.143C625.511 598.069 614.876 604.425 600.409 605.643C585.943 606.862 307.051 622.795 300.502 622.51C293.965 622.207 287.445 616.458 285.246 606.71C283.046 596.961 215.835 185.5 216.207 174.525C216.579 163.549 229.461 163.856 231.001 164.72C232.526 165.588 299.254 592.372 302.668 595.797C303.168 596.3 316.132 595.722 336.228 594.515C442.053 586.809 341.357 593.929 544.009 580.272C544.009 580.272 593.362 578.255 596.012 577.708C601.616 576.553 599.792 569.496 598.429 563.105C597.066 556.714 501.701 195.431 500.369 190.135C499.021 184.843 494.829 184.185 485.911 184.372C477.59 184.547 280.115 179.356 253.059 178.66C251.599 178.622 250.708 180.084 251.455 181.338C282.038 232.636 473.164 215.208 473.164 215.208L477.452 231.555C348.646 228.116 288.104 247.018 288.104 247.018L289.385 255.025C392.833 233.538 480.191 240.84 480.191 240.84L484.583 259.064C415.992 252.016 343.156 259.077 294.446 267.427C294.446 267.427 305.786 263.07 305.593 259.215C305.416 255.687 299.506 254.716 299.234 258.205C298.875 262.805 307.88 265.829 310.106 261.606C311.903 258.195 307.21 240.204 306.935 238.169C305.231 225.574 306.435 222.513 310.088 224.015C313.297 225.338 314.076 234.136 303.196 237.84C292.316 241.543 298.73 252.055 305.429 253.736C312.129 255.417 315.712 249.831 311.429 245.422C308.239 242.135 301.78 243.721 303.075 247.823C304.344 251.851 310.555 255.626 317.05 252.03C319.987 250.403 321.583 247.842 326.801 249.6C333.814 251.965 338.759 249.507 337.98 247.051C337.112 244.318 331.387 244.548 330.514 247.424C329.642 250.303 337.388 251.332 338.715 248.715C340.046 246.099 335.07 230.982 336.185 230.015C337.301 229.051 350.827 227.773 351.215 228.039C351.525 228.252 351.64 229.161 351.549 229.275C351.276 229.6 337.657 230.861 337.388 231.21C337.223 231.426 337.374 233.072 337.671 233.102C337.968 233.133 350.512 231.579 351.838 231.411C352.254 231.358 352.146 233.689 352.753 238.179C353.361 242.669 354.72 248.096 349.497 248.207C344.275 248.317 343.529 243.275 347.785 243.387C352.041 243.499 353.296 246.138 353.821 247.795C355.329 252.566 354.884 256.445 359.758 257.997C366.285 260.075 371.816 257.941 371.037 255.488C370.169 252.755 364.344 252.944 363.471 255.824C362.599 258.703 370.345 259.732 371.672 257.115C373.004 254.499 367.483 238.662 369.259 239.272C370.918 239.844 370.822 243.72 374.27 245.259C377.718 246.799 378.705 250.033 377.919 250.709C376.699 251.752 376.893 247.543 379.701 249.91C381.787 251.668 384.644 254.893 388.621 256.018C395.688 258.018 400.374 254.349 399.446 251.904C398.512 249.446 393.524 250.385 394.247 252.367C394.813 253.921 401.215 254.018 400.346 251.281C399.478 248.548 393.449 248.833 392.576 251.712C391.704 254.591 399.45 255.62 400.777 253.003C402.109 250.387 397.449 234.865 398.187 235.756C399.455 237.29 400.532 239.962 404.216 241.844C406.783 243.156 407.009 245.117 406.942 246.175C406.797 248.403 403.946 249.141 405.787 247.049C406.933 245.753 406.529 258.323 414.469 261.194C421.448 263.716 426.417 261.144 425.638 258.691C424.77 255.958 418.879 255.778 418.178 259.021C417.539 261.985 425.052 262.929 426.379 260.312C427.71 257.695 423.279 245.262 424.395 244.297C425.51 243.333 439.462 242.13 439.663 242.504C440.162 243.418 439.809 245.282 440.416 249.769C441.023 254.256 442.383 259.686 437.16 259.797C431.938 259.907 431.29 254.42 435.546 254.532C439.802 254.644 440.756 257.019 441.974 258.507C444.495 261.581 448.023 264.858 453.607 266.623C460.645 268.85 465.662 266.605 464.879 264.151C464.011 261.419 458.188 261.57 457.316 264.45C456.444 267.329 464.19 268.358 465.517 265.741C466.848 263.124 463.043 246.368 463.103 247.898C463.222 250.965 464.58 256.358 466.05 260.618C467.292 264.211 471.194 267.119 475.326 267.543L486.631 268.705L490.285 282.559C490.285 282.559 395.758 274.788 301.315 284.256L306.983 317.388C384.547 296.879 496.917 303.337 496.917 303.337L501.205 319.684C372.4 316.245 311.857 335.147 311.857 335.147L313.138 343.154C416.587 321.667 503.945 328.969 503.945 328.969L508.337 347.193C439.746 340.145 366.91 347.206 318.2 355.556C318.2 355.556 329.54 351.199 329.347 347.344C329.17 343.816 323.259 342.845 322.987 346.334C322.629 350.934 331.634 353.958 333.859 349.735C335.657 346.324 330.964 328.333 330.689 326.298C328.985 313.703 330.189 310.642 333.841 312.144C337.051 313.467 337.829 322.265 326.949 325.969C316.069 329.672 322.484 340.183 329.183 341.865C335.882 343.546 339.466 337.96 335.183 333.551C331.993 330.264 325.534 331.85 326.828 335.952C328.097 339.98 334.308 343.754 340.804 340.159C343.741 338.532 345.336 335.971 350.555 337.729C357.568 340.094 362.513 337.636 361.733 335.18C360.865 332.447 355.141 332.677 354.268 335.553C353.395 338.432 361.142 339.461 362.469 336.844C363.8 334.228 358.824 319.111 359.939 318.144C361.055 317.18 374.581 315.902 374.969 316.168C375.279 316.381 375.394 317.29 375.302 317.404C375.03 317.729 361.41 318.99 361.141 319.339C360.976 319.555 361.128 321.201 361.425 321.231C361.722 321.262 374.265 319.708 375.591 319.54C376.007 319.487 375.9 321.818 376.507 326.308C377.114 330.798 378.474 336.225 373.251 336.336C368.028 336.446 367.283 331.404 371.539 331.516C375.795 331.628 377.05 334.267 377.574 335.924C379.082 340.695 378.638 344.574 383.512 346.126C390.039 348.204 395.569 346.07 394.791 343.617C393.922 340.884 388.097 341.073 387.225 343.953C386.353 346.832 394.099 347.861 395.426 345.244C396.757 342.627 391.237 326.791 393.012 327.401C394.672 327.972 394.575 331.849 398.023 333.388C401.471 334.928 402.459 338.162 401.672 338.838C400.452 339.881 400.646 335.672 403.455 338.039C405.54 339.797 408.397 343.022 412.375 344.147C419.442 346.147 424.127 342.478 423.199 340.033C422.265 337.574 417.278 338.514 418.001 340.496C418.567 342.05 424.969 342.146 424.1 339.41C423.232 336.677 417.202 336.962 416.33 339.841C415.457 342.72 423.204 343.749 424.531 341.132C425.862 338.516 421.203 322.994 421.94 323.885C423.208 325.419 424.286 328.091 427.97 329.973C430.537 331.285 430.762 333.246 430.696 334.304C430.55 336.532 427.699 337.27 429.54 335.178C430.686 333.882 430.282 346.452 438.222 349.323C445.201 351.845 450.17 349.273 449.391 346.82C448.523 344.087 442.632 343.907 441.932 347.15C441.292 350.114 448.806 351.058 450.133 348.441C451.464 345.824 447.033 333.39 448.148 332.426C449.264 331.462 463.216 330.259 463.417 330.633C463.916 331.547 463.563 333.411 464.17 337.898C464.777 342.384 466.137 347.815 460.914 347.925C455.691 348.036 455.044 342.549 459.3 342.661C463.556 342.773 464.51 345.148 465.728 346.636C468.248 349.71 471.777 352.987 477.36 354.752C484.398 356.979 489.415 354.734 488.632 352.28C487.764 349.548 481.942 349.699 481.07 352.579C480.197 355.458 487.944 356.487 489.271 353.87C490.602 351.253 486.796 334.497 486.857 336.027C486.975 339.094 488.334 344.487 489.804 348.747C491.046 352.34 494.948 355.248 499.08 355.672L510.385 356.834L514.039 370.688C514.039 370.688 411.493 365.882 317.05 375.351L325.406 406.177C402.97 385.668 515.34 392.126 515.34 392.126L519.628 408.474C390.823 405.034 330.28 423.936 330.28 423.936L331.561 431.943C435.01 410.456 522.368 417.758 522.368 417.758L526.76 435.982C458.169 428.934 385.333 435.995 336.623 444.345C336.623 444.345 347.963 439.988 347.77 436.133C347.593 432.605 341.682 431.634 341.41 435.123C341.052 439.723 350.057 442.747 352.282 438.524C354.08 435.113 349.387 417.122 349.112 415.087C347.408 402.492 348.612 399.431 352.264 400.933C355.474 402.256 356.252 411.054 345.372 414.758C334.492 418.461 340.907 428.972 347.606 430.654C354.305 432.335 357.889 426.749 353.606 422.34C350.416 419.053 343.957 420.639 345.251 424.741C346.52 428.769 352.731 432.543 359.227 428.948C362.164 427.321 363.759 424.76 368.978 426.518C375.991 428.883 380.936 426.425 380.156 423.969C379.288 421.236 373.563 421.466 372.691 424.342C371.818 427.221 379.564 428.25 380.892 425.633C382.223 423.017 377.247 407.9 378.362 406.933C379.478 405.969 393.004 404.691 393.392 404.957C393.702 405.17 393.817 406.079 393.725 406.193C393.453 406.518 379.833 407.779 379.564 408.128C379.399 408.344 379.551 409.99 379.848 410.02C380.145 410.051 392.688 408.497 394.014 408.329C394.43 408.276 394.322 410.607 394.93 415.097C395.537 419.587 396.896 425.014 391.674 425.125C386.451 425.235 385.706 420.193 389.962 420.305C394.218 420.417 395.473 423.056 395.997 424.713C397.505 429.484 397.061 433.363 401.935 434.915C408.462 436.993 413.992 434.859 413.214 432.406C412.345 429.673 406.52 429.862 405.648 432.742C404.775 435.621 412.522 436.65 413.849 434.033C415.18 431.416 409.66 415.58 411.435 416.19C413.095 416.762 412.998 420.638 416.446 422.177C419.894 423.717 420.882 426.951 420.095 427.627C418.875 428.67 419.069 424.461 421.878 426.828C423.963 428.586 426.82 431.811 430.798 432.936C437.864 434.936 442.55 431.267 441.622 428.822C440.688 426.363 435.7 427.303 436.423 429.285C436.99 430.839 443.391 430.935 442.523 428.199C441.655 425.466 435.625 425.751 434.753 428.63C433.88 431.509 441.626 432.538 442.954 429.921C444.285 427.305 439.626 411.783 440.363 412.674C441.631 414.208 442.708 416.88 446.393 418.762C448.96 420.074 449.185 422.035 449.119 423.093C448.973 425.321 446.122 426.059 447.963 423.967C449.109 422.671 448.705 435.241 456.645 438.112C463.624 440.634 468.593 438.062 467.814 435.609C466.946 432.876 461.055 432.696 460.355 435.939C459.715 438.903 467.228 439.847 468.556 437.23C469.887 434.613 465.456 422.179 466.571 421.215C467.687 420.251 481.639 419.048 481.839 419.422C482.339 420.336 481.986 422.2 482.593 426.687C483.2 431.174 484.56 436.604 479.337 436.714C474.114 436.825 473.467 431.338 477.723 431.45C481.979 431.562 482.933 433.937 484.151 435.425C486.671 438.499 490.2 441.776 495.783 443.541C502.821 445.768 507.838 443.523 507.055 441.069C506.187 438.337 500.365 438.488 499.493 441.368C498.62 444.247 506.366 445.276 507.694 442.659C509.025 440.042 505.219 423.286 505.28 424.816C505.398 427.883 506.757 433.276 508.227 437.536C509.469 441.129 513.371 444.037 517.503 444.461L528.808 445.623L532.462 459.477C532.462 459.477 423.498 452.462 329.055 461.931L336.623 496.199C414.187 475.69 540.994 481.392 540.994 481.392L545.282 497.74C416.476 494.3 355.934 513.202 355.934 513.202L357.215 521.209C460.663 499.722 548.021 507.024 548.021 507.024L552.413 525.248C483.822 518.2 410.986 525.261 362.276 533.611C362.276 533.611 373.616 529.254 373.423 525.399C373.246 521.871 367.336 520.9 367.064 524.389C366.705 528.989 375.71 532.013 377.936 527.79C379.733 524.379 375.04 506.388 374.765 504.353C373.061 491.758 374.265 488.697 377.918 490.199C381.127 491.522 381.906 500.32 371.026 504.024C360.146 507.727 366.56 518.239 373.259 519.92C379.959 521.601 383.542 516.015 379.259 511.606C376.069 508.319 369.61 509.905 370.905 514.007C372.174 518.035 378.385 521.81 384.88 518.214C387.817 516.587 389.413 514.026 394.631 515.784C401.644 518.149 406.589 515.691 405.81 513.235C404.942 510.502 399.217 510.732 398.344 513.608C397.472 516.487 405.218 517.516 406.545 514.899C407.876 512.283 402.9 497.166 404.015 496.199C405.131 495.235 418.657 493.957 419.045 494.223C419.355 494.436 419.47 495.345 419.379 495.459C419.106 495.784 405.487 497.045 405.217 497.394C405.053 497.61 405.204 499.256 405.501 499.286C405.798 499.317 418.341 497.763 419.668 497.595C420.084 497.542 419.976 499.873 420.583 504.363C421.191 508.853 422.55 514.28 417.327 514.391C412.105 514.501 411.359 509.459 415.615 509.571C419.871 509.683 421.126 512.322 421.651 513.979C423.158 518.75 422.714 522.629 427.588 524.181C434.115 526.259 439.646 524.125 438.867 521.672C437.999 518.939 432.174 519.128 431.301 522.008C430.429 524.887 438.175 525.916 439.502 523.299C440.834 520.683 435.313 504.846 437.089 505.456C438.748 506.027 438.651 509.904 442.1 511.443C445.548 512.983 446.535 516.217 445.748 516.893C444.529 517.936 444.723 513.726 447.531 516.094C449.616 517.852 452.474 521.077 456.451 522.202C463.518 524.202 468.204 520.533 467.276 518.088C466.342 515.629 461.354 516.569 462.077 518.551C462.643 520.105 469.045 520.201 468.176 517.465C467.308 514.732 461.278 515.017 460.406 517.896C459.534 520.775 467.28 521.804 468.607 519.187C469.938 516.571 465.279 501.049 466.017 501.94C467.284 503.474 468.362 506.146 472.046 508.028C474.613 509.34 474.839 511.301 474.772 512.359C474.627 514.587 471.775 515.325 473.617 513.233C474.763 511.937 474.359 524.507 482.299 527.378C489.278 529.9 494.247 527.328 493.468 524.875C492.6 522.142 486.709 521.962 486.008 525.205C485.369 528.169 492.882 529.113 494.209 526.496C495.54 523.879 491.109 511.445 492.225 510.481C493.34 509.517 507.292 508.314 507.493 508.688C507.992 509.602 507.639 511.466 508.246 515.953C508.853 520.44 510.213 525.87 504.99 525.98C499.768 526.091 499.12 520.604 503.376 520.716C507.632 520.828 508.586 523.203 509.804 524.691C512.325 527.765 515.853 531.042 521.437 532.807C528.475 535.034 533.492 532.789 532.709 530.335C531.841 527.603 526.018 527.754 525.146 530.634C524.274 533.513 532.02 534.542 533.347 531.925C534.678 529.308 530.873 512.552 530.933 514.082C531.052 517.149 532.41 522.542 533.88 526.802C535.122 530.395 539.024 533.303 543.156 533.727L554.461 534.889L558.115 548.743C558.115 548.743 371.305 518.778 310.482 611.491C310.178 611.953 310.272 612.38 310.822 612.442C327.366 614.301 589.494 601.419 601.064 600.148C612.978 598.824 621.836 592.82 619.237 579.234C616.635 565.633 511.5 188.5 507.369 177.858C473.163 39 -158.455 259.717 -93.4999 0.5" stroke="#543F3A" stroke-width="2"/>
</svg>