<svg xmlns="http://www.w3.org/2000/svg" width="1152" height="509" viewBox="0 0 1152 509" fill="none">
<path id="Vector" d="M1151 1.87085C724.5 11.8708 717.783 352.732 676.266 367.214C649.982 376.383 671.639 347.608 660.976 345.173C650.247 342.721 603.407 341.977 609.236 347.151C615.066 352.309 618.936 353.848 620.862 363.859C622.788 373.87 623.397 470.616 629.818 457.088C636.222 443.61 620.22 353.172 632.42 350.669C644.535 348.2 673.514 354.66 674.14 337.867C674.765 321.075 671.03 281.673 673.514 283.906C676.015 286.121 435.919 264.881 433.756 275.247C431.593 285.63 438.707 309.88 425.122 314.615C411.435 319.384 391.817 315.647 391.8 324.745C391.783 333.843 396.852 361.999 390.296 360.325C383.706 358.651 433.655 355.404 442.915 366.852C452.124 378.25 449.184 476.738 453.425 478.953C457.666 481.152 466.098 486.292 466.115 475.892C466.132 465.492 466.909 380.787 473.229 374.225C479.514 367.698 507.868 358.076 508.561 355.15C509.254 352.225 520.153 343.6 512.617 342.653C505.064 341.706 383.74 340.421 412.127 345.782C440.093 351.075 556.601 343.397 579.818 344.091C601.666 338.459 659.709 341.537 665.37 333.352C667.888 316.594 658.459 278.241 667.262 275.873C676.015 273.522 526.354 273.1 514.796 265.93C507.514 261.431 447.257 203.292 401.888 157.684C374.193 129.849 352.294 106.919 352.294 104.619C352.31 98.5139 436.832 101.169 438.251 103.536C439.67 105.904 462.279 128.057 476.963 132.318C491.546 136.529 561.383 163.535 604.775 181.309C647.12 198.659 682.876 234.07 672.281 255.8C661.619 277.682 592.339 270.614 578.551 257.677C564.661 244.673 456.686 87.4713 455.976 91.868C455.267 96.2648 439.67 114.156 453.121 126.552C466.487 138.846 543.269 262.328 553.999 262.175C564.661 262.023 566.655 253.466 547.307 256.02C527.74 258.607 520.254 265.507 503.154 265.355C485.885 265.202 376.694 264.255 383.317 259.267C389.924 254.295 394.993 141.061 400.08 146.777C405.149 152.476 390.786 268.077 387.846 264.898C384.906 261.702 289.908 253.619 302.953 259.723C315.913 265.777 418.008 270.766 421.59 276.194C425.172 281.623 429.464 292.31 420.847 299.463C412.195 306.634 393.304 311.199 384.517 314.666C375.696 318.15 354.727 313.939 359.137 316.577C363.547 319.215 373.534 316.273 380.681 320.636C387.812 324.982 390.955 330.816 387.795 329.48C384.635 328.144 377.893 324.221 377.893 324.221C377.893 324.221 384.635 331.425 381.847 330.917C379.076 330.41 373.906 325.726 373.906 325.726C373.906 325.726 380.648 333.335 375.883 332.777C371.101 332.219 370.323 325.607 363.108 327.417C355.876 329.243 355.487 327.586 351.043 327.011C346.599 326.453 287.509 326.588 283.758 323.104C280.006 319.604 275.005 306.786 275.005 305.095C275.005 303.404 300.013 300.596 300.858 295.608C301.703 290.619 298.813 285.039 300.047 288.877C301.28 292.699 304.575 301.628 303.325 304.097C302.074 306.566 297.935 312.282 299.59 306.887C301.263 301.51 304.981 300.816 311.976 302.761C318.955 304.706 329.989 310.54 345.805 312.789C361.503 315.021 313.21 301.56 308.681 296.369C304.153 291.16 300.03 285.529 296.312 277.412C292.595 269.261 293.862 253.805 283.048 246.922C272.166 240.022 260.371 240.631 256.958 259.52C253.528 278.427 264.055 306.82 266.167 302.254C268.28 297.688 247.175 273.472 247.58 283.686C247.986 293.9 271.625 311.757 264.461 314.023C257.279 316.306 247.952 312.163 256.417 322.648C264.849 333.082 287.509 324.525 289.993 331.34C292.477 338.138 292.46 343.6 289.536 350.246C286.613 356.909 278.232 364.282 258.868 365.111C239.3 365.956 214.816 355.539 216.117 356.013C217.418 356.469 211.335 363.622 220.848 365.111C230.311 366.599 243.136 371.57 260.135 369.795C276.982 368.053 285.768 363.183 289.114 357.382C292.46 351.582 284.957 348.014 294.116 348.268C303.24 348.521 344.538 347.98 351.804 352.732C359.036 357.467 382.472 436.44 382.067 442.189C381.661 447.939 370.915 454.517 364.51 452.86C358.089 451.203 358.512 444.591 359.306 449.14C360.1 453.689 354.862 469.399 364.882 471.428C374.869 473.44 385.193 468.452 393.895 466.372C402.547 464.292 415.845 461.806 412.736 456.124C409.627 450.425 388.387 445.081 384.821 449.173C381.239 453.283 368.093 457.409 365.693 457.409C363.294 457.409 362.094 449.562 363.294 457.409C364.477 465.256 356.839 477.262 367.67 476.366C378.434 475.47 412.702 474.861 413.108 468.333C413.513 461.823 417.906 368.679 414.797 365.364C411.688 362.033 395.602 363.284 396.396 364.941C397.173 366.599 394.318 446.316 396.295 434.867C398.272 423.435 394.824 357.957 389.299 363.538C383.757 369.152 382.067 444.641 384.061 427.832C386.072 411.023 388.116 362.286 379.803 356.74C371.455 351.176 292.899 334.79 294.572 332.744C296.245 330.697 297.056 336.176 297.039 340.793C297.039 345.41 284.957 348.014 276.61 343.989C268.212 339.947 263.16 336.836 266.1 341.165C269.04 345.477 276.154 354.947 260.574 357.957C244.86 360.984 218.702 359.073 214.394 348.69C210.085 338.273 211.082 276.972 215.002 263.021C218.922 249.086 223.265 231.364 234.011 228.557C244.691 225.767 278.029 241.189 274.261 237.181C270.493 233.174 254.897 221.268 250.655 220.169C246.397 219.07 234.451 223.467 242.139 224.346C249.794 225.226 228.942 200.35 229.381 189.29C268.499 143.871 250.389 113.031 276.5 116.371C319.5 121.871 327.46 86.177 323.5 68C317.599 40.9095 251.58 33 224.5 37C197.42 41 168.467 81.6787 205 98.8708C230.5 110.871 236.926 98.6665 247.58 111.371C264.79 131.893 239.129 177.384 239.25 177.216C240.111 175.999 244.809 167.002 255.437 165.683C265.998 164.364 280.26 164.618 280.26 167.56C280.26 170.503 268.499 175.542 268.499 177.656C268.499 179.77 271.017 178.687 268.905 185.705C266.793 192.74 260.034 191.421 258.766 196.833C257.482 202.244 258.749 207.841 258.749 207.841C258.749 207.841 257.499 194.634 252.835 202.379C248.155 210.141 257.465 216.652 256.198 217.007C254.931 217.345 241.75 213.134 241.767 204.628C241.784 196.122 248.222 173.225 261.352 171.23C274.396 169.251 277.337 170.739 282.338 177.842C287.34 184.927 294.335 218.563 288.1 223.213C281.831 227.881 266.319 221.032 266.742 219.374C267.164 217.717 271.355 225.564 270.932 229.758C270.51 233.951 256.603 220.152 239.993 234.476C223.231 248.917 212.822 273.675 217.976 291.025C223.113 308.341 250.453 333.978 239.368 333.217C228.232 332.456 220.933 324.102 219.175 333.031C217.435 341.977 211.757 360.68 214.343 372.315C216.911 383.932 246.076 392.523 264.731 392.81C283.2 393.098 325.765 389.58 332.709 382.63C339.637 375.697 336.816 360.697 334.349 371.029C331.881 381.379 328.62 384.642 335.937 394.332C343.22 403.988 363.311 443.847 354.862 450.036C346.38 456.242 324.835 452.522 330.969 451.27C337.069 450.019 332.169 465.831 334.197 468.316C336.224 470.802 354.423 471.124 354.034 467.826C353.645 464.511 342.73 464.545 338.269 459.168C333.808 453.773 332.997 454.179 330.986 439.196C328.975 424.196 329.431 391.728 327.792 394.62C326.153 397.511 317.147 396.97 310.151 396.446C303.139 395.922 296.921 392.895 297.749 395.009C298.577 397.122 303.528 402.213 299.388 406.778C295.231 411.344 225.056 410.6 214.698 406.626C204.289 402.635 183.758 389.411 186.411 383.848C189.064 378.284 210.879 368.831 206.08 376.458C201.281 384.101 183.336 382.934 183.758 392.015C184.181 401.096 181.967 405.815 188.118 408.486C194.252 411.141 206.857 421.153 221.592 420.425C236.208 419.698 288.573 421.389 289.824 417.195C291.074 413.002 288.185 402.872 287.34 412.122C286.495 421.372 288.016 498.417 285.109 489.184C282.203 479.934 281.054 423.435 276.441 422.556C271.828 421.677 230.193 420.493 230.176 425.194C230.159 429.895 224.853 506.873 224.025 490.622C223.197 474.353 224.16 429.422 217.689 426.395C211.2 423.351 195.536 416.773 194.235 419.766C192.917 422.776 194.961 484.432 189.301 475.842C183.606 467.234 185.516 405.426 187.239 414.946C188.98 424.467 196.736 474.506 184.029 475.436C171.237 476.383 -70.5 474.871 -57 507.871" stroke="#543F3A" stroke-width="2" stroke-miterlimit="10" stroke-linecap="round" stroke-linejoin="round"/>
</svg>