<svg width="89" height="79" viewBox="0 0 89 79" fill="none" xmlns="http://www.w3.org/2000/svg">
<path d="M79.1546 75.7987C77.9483 75.7987 76.7774 75.5125 75.7131 74.8865L75.5357 74.7792L52.8998 60.6318C52.687 60.4887 52.616 60.2026 52.7579 59.9879C52.8998 59.7733 53.1837 59.7018 53.3965 59.8449L53.5562 59.9343C53.5739 59.9522 53.5917 59.9522 53.6094 59.9701L76.192 74.0817C79.5448 76.0312 84.2281 74.2426 86.6407 70.1111C89.0356 66.0153 88.3792 61.2042 85.1328 59.1831L62.497 45.0357C62.2841 44.8926 62.2132 44.6065 62.3551 44.3918C62.497 44.1772 62.7808 44.1057 62.9937 44.2488L85.6296 58.3961C89.3017 60.7034 90.1177 66.0511 87.4567 70.594C85.5054 73.8849 82.2413 75.7987 79.1546 75.7987Z" fill="#543F3A"/>
<path d="M56.5189 61.6511C55.3126 61.6511 54.1418 61.365 53.0774 60.739C52.4565 60.3813 51.9066 59.9162 51.4276 59.3618C51.2679 59.1651 51.2857 58.8789 51.4808 58.7C51.676 58.5212 51.9598 58.557 52.1372 58.7537C52.5452 59.2187 53.0242 59.6301 53.5564 59.9341C56.8914 61.8836 61.5747 60.113 64.005 55.9636C65.3355 53.6921 65.7613 51.0808 65.1758 48.8273C64.7324 47.1103 63.7389 45.7689 62.3375 44.9461C61.6456 44.5348 60.8828 44.2844 60.0491 44.1949C59.8007 44.1592 59.6056 43.9446 59.6411 43.6763C59.6765 43.4259 59.9072 43.247 60.1555 43.2649C61.1135 43.3722 62.0004 43.6584 62.7987 44.1234C64.3953 45.0534 65.5484 46.6274 66.0628 48.5769C66.7192 51.0808 66.258 53.9425 64.8033 56.4286C62.8697 59.7374 59.6056 61.6511 56.5189 61.6511Z" fill="#543F3A"/>
<path d="M55.2948 57.2333C54.6384 57.2333 53.9998 57.1081 53.3967 56.8398C53.1661 56.7325 53.0596 56.4642 53.1483 56.2317C53.2548 55.9992 53.5208 55.8919 53.7515 55.9813C55.8447 56.8934 58.6121 55.6951 60.0491 53.2269C61.5924 50.5978 61.1667 47.5215 59.1088 46.2337L59.0024 46.1622C58.7895 46.0191 58.7186 45.7329 58.8605 45.5183C59.0024 45.3037 59.2862 45.2321 59.4991 45.3752L59.6056 45.4468C62.1069 47.0028 62.6568 50.6335 60.8651 53.7098C59.5701 55.9097 57.3881 57.2333 55.2948 57.2333Z" fill="#543F3A"/>
<path d="M22.5827 79.0001C19.7798 79.0001 17.1721 78.3384 14.8837 77.0149C9.33114 73.7955 6.26217 67.0527 6.24443 58.0384C6.17347 39.5627 19.088 16.9913 35.0182 7.70877C42.8414 3.14798 50.2034 2.41468 55.7914 5.65194C61.3439 8.87132 64.4129 15.6141 64.4306 24.6463C64.4838 43.1041 51.5871 65.6755 35.6568 74.958C31.0623 77.6408 26.6096 79.0001 22.5827 79.0001ZM48.0924 4.5967C44.2251 4.5967 39.9321 5.92022 35.4794 8.51361C19.7976 17.6352 7.09594 39.8489 7.1669 58.0205C7.18464 66.695 10.0939 73.1516 15.3449 76.1921C20.6313 79.2505 27.674 78.5351 35.1956 74.1353C50.8597 64.9958 63.5614 42.7821 63.5081 24.6284C63.4904 15.9361 60.5811 9.47943 55.3301 6.4389C53.1836 5.22269 50.7356 4.5967 48.0924 4.5967Z" fill="#543F3A"/>
<path d="M15.0612 77.0326C14.9902 77.0326 14.9015 77.0147 14.8305 76.961L8.58617 73.3303C3.06913 70.093 0.0179038 63.3681 0.000164117 54.3717C-0.0530549 35.914 12.8437 13.3246 28.7739 4.0421C36.6326 -0.536572 44.0301 -1.25199 49.6181 2.03893L55.8624 5.68756C56.093 5.81276 56.164 6.09893 56.0221 6.33144C55.8979 6.56395 55.6141 6.63549 55.3835 6.49241L49.1391 2.84378C43.8527 -0.268291 36.7923 0.447127 29.2529 4.84695C13.571 13.9864 0.869409 36.2001 0.922628 54.3717C0.940367 63.0104 3.83194 69.4492 9.0474 72.5076L15.2918 76.1562C15.5224 76.2814 15.5933 76.5676 15.4514 76.8001C15.3627 76.961 15.2208 77.0326 15.0612 77.0326Z" fill="#543F3A"/>
<path d="M30.9516 59.0712C26.8072 60.4764 23.0876 60.1418 21.1699 59.7975C20.6991 59.7027 20.3056 59.4199 20.0237 58.9835C19.5286 58.2495 19.3821 57.0965 19.6238 55.9276C20.7818 50.4239 24.2413 36.7624 31.0447 29.0671C37.9875 21.232 46.3211 21.8061 49.6026 22.428C50.0733 22.5227 50.4669 22.8056 50.7487 23.242C51.2439 23.976 51.3904 25.129 51.1487 26.2979C49.9698 31.8086 46.5035 45.4493 39.7141 53.1168C36.8494 56.3083 33.8048 58.1038 30.9516 59.0712ZM40.154 24.3827C37.4883 25.2866 34.6383 26.9698 32.0034 29.9446C25.4162 37.3816 22.0343 50.7856 20.9114 56.1849C20.734 56.9851 20.8198 57.8117 21.1225 58.241C21.2119 58.3725 21.3153 58.4762 21.4331 58.4826C24.4794 59.0223 32.259 59.5298 38.7137 52.2534C45.2801 44.8234 48.6757 31.4611 49.8403 26.0477C50.0176 25.2475 49.9318 24.4209 49.6292 23.9916C49.5329 23.8392 49.4363 23.7563 49.3186 23.75C47.4909 23.3983 44.0277 23.0693 40.154 24.3827Z" fill="#543F3A"/>
<path d="M35.3983 50.6241C34.6812 50.8672 33.9727 50.9224 33.2729 50.7896C31.6215 50.4706 30.3368 49.1252 29.6409 47.0019C28.2689 42.8874 29.5776 36.8694 32.5233 33.5576C34.0669 31.8315 35.812 31.0779 37.4845 31.3898C39.1359 31.7088 40.4206 33.0542 41.1166 35.1774C42.4886 39.292 41.1867 45.3308 38.2341 48.6217C37.342 49.6181 36.3686 50.2951 35.3983 50.6241ZM33.0171 33.9916L33.5109 34.4255C30.8555 37.4075 29.6852 42.8467 30.8996 46.552C31.4455 48.2173 32.3896 49.2387 33.5441 49.4718C34.6986 49.7048 35.994 49.0806 37.1976 47.7473C39.8529 44.7653 41.0444 39.319 39.802 35.6C39.263 33.9555 38.312 32.9133 37.1643 32.7011C35.9887 32.4752 34.6934 33.0994 33.4898 34.4327L33.0171 33.9916Z" fill="#543F3A"/>
<path d="M34.6833 39.0033C35.7639 37.9834 36.9581 38.1014 37.3381 39.2608C37.7181 40.4203 37.1621 42.1773 36.076 43.1803C34.9899 44.1834 33.8224 44.0751 33.4212 42.9228C33.0411 41.7634 33.5972 40.0064 34.6833 39.0033Z" fill="#543F3A"/>
</svg>
