<svg width="85" height="98" viewBox="0 0 85 98" fill="none" xmlns="http://www.w3.org/2000/svg">
<path d="M70.4589 48.2768L70.5421 49.3138C72.6234 48.3314 74.6492 46.7758 76.5363 44.8382L70.4589 48.2768ZM50.4507 67.4347C48.3972 68.6082 46.4269 69.1813 44.6786 69.154L44.6231 70.1364C46.5656 70.191 48.7579 69.5906 50.978 68.3353C53.864 66.6706 56.6391 64.0234 58.8869 60.9123L59.0534 58.8382C56.7223 62.4678 53.6975 65.5789 50.4507 67.4347ZM80.8931 17.1111C80.8653 17.0838 80.8931 17.0838 80.8931 17.1111L72.4292 12.2534C71.1249 11.4893 69.5709 11.1891 67.9058 11.3255C66.9901 9.03313 65.4915 7.23196 63.5767 6.14034C63.3825 5.94931 55.3071 1.3918 55.0851 1.25535C51.5052 -0.791435 46.7876 -0.354788 41.7925 2.45613C41.5428 2.59258 41.4595 2.89278 41.5983 3.13839C41.737 3.384 42.0423 3.46588 42.292 3.32942C46.9541 0.682249 51.311 0.272893 54.5578 2.10135L59.3309 4.8304C56.1118 4.55749 52.5875 5.9766 49.8125 7.64131C41.4873 12.5809 33.8004 23.5789 32.3573 34.8226C32.3573 34.8499 32.3573 34.8499 32.3573 34.8499L24.8647 30.538C26.3659 21.56 33.8428 6.05847 42.292 3.32942C42.4585 3.08381 42.403 2.78361 42.181 2.61987C41.959 2.42884 42.0834 2.45613 41.7925 2.45613C31.4817 6.66403 24.5317 24.3158 23.8657 30.5107C16.6228 32.7212 8.65835 42.7641 7.65933 52.6978C3.27474 55.6452 -0.027577 61.5945 0.000173604 66.6433C0.0279242 69.3177 0.971444 71.3099 2.66423 72.2924L11.1282 77.1501H11.1837C13.1539 78.2963 15.5682 77.7232 17.5663 76.577C18.7041 75.922 19.8141 75.076 20.8686 73.9571C21.2571 74.1754 22.6169 75.0214 22.8111 75.0214C25.7805 76.7134 29.3048 75.922 32.5238 74.0663L32.4406 72.9474C29.3603 74.8031 25.9747 75.6764 23.1719 74.0663C22.7834 73.8752 22.0896 73.3294 21.4791 72.6199C21.3404 72.4016 20.9519 72.347 20.7021 72.5926C19.6753 73.7661 18.4543 74.885 17.0668 75.6491C15.0132 76.7953 13.0984 77.0136 11.7109 76.2222H11.6554C10.0459 75.267 9.49087 73.2748 9.49087 71.4191C9.46312 66.6979 12.7099 60.9123 16.8448 58.1559C16.8725 58.1286 16.8725 58.1286 16.9003 58.1286C17.1778 57.9376 17.1223 57.692 17.15 57.692C18.0658 47.6764 26.169 38.0156 32.9401 36.1325H32.9679C32.9956 36.1053 33.0511 36.1053 33.0789 36.078C33.1899 36.0234 33.3286 35.8323 33.3286 35.6959C34.3276 25.1618 41.7093 13.5633 50.312 8.46003C53.5588 6.5497 57.3051 5.15788 60.9404 6.05847C61.6897 6.2495 62.3835 6.52241 63.0495 6.87718C63.0772 6.90447 63.105 6.90447 63.1327 6.90447C67.5728 9.49706 68.3221 15.2008 67.9336 20.2222C67.9058 20.4132 68.0168 20.6043 68.1833 20.7134L68.2111 20.7407C68.4053 20.8499 68.6273 20.7953 68.7938 20.6862C71.9574 18.0117 76.8415 15.8284 80.3936 17.8752C80.4213 17.8752 80.4213 17.9025 80.4213 17.9025C82.7246 19.2398 83.9734 22.0234 84.0012 25.7895C84.0289 31.9844 80.6711 38.8343 76.2587 43.5555L76.9803 44.2924C81.6146 39.3255 85.0279 32.1754 85.0279 25.7895C84.9724 21.7232 83.5294 18.5848 80.8931 17.1111ZM8.49185 71.501C8.49185 72.9747 8.82486 74.1754 9.10236 74.7212C9.07461 74.7485 9.10236 74.7758 9.13011 74.8031L3.19149 71.4191C1.80396 70.6004 1.02694 68.9084 1.02694 66.616C0.999194 61.9766 4.13501 56.3002 8.18659 53.5166L15.6792 57.8284C14.9022 57.8557 8.49185 64.1598 8.49185 71.501ZM16.2065 56.9552L8.6861 52.6706C9.68512 42.9006 17.5385 33.4581 24.2542 31.4113L31.5526 35.5867C25.1144 38.152 17.7328 46.5575 16.2065 56.9552ZM69.0158 19.267C69.1268 16.9746 68.9604 14.5185 68.2666 12.308C69.6264 12.2261 70.8474 12.499 71.9297 13.0994L77.1745 16.1014C74.2607 16.1286 71.3746 17.575 69.0158 19.267Z" fill="#543F3A"/>
<path d="M77.4523 44.1557L67.5453 34.3312C67.4066 34.222 67.4621 34.2493 67.4343 34.2493L63.133 31.7932C62.8555 31.6294 62.5225 31.7659 62.4115 32.0115L52.5878 53.0251C52.4768 53.2707 52.56 53.5436 52.8098 53.6801L57.1111 56.1362C57.2221 56.1908 57.4719 56.2181 57.6384 56.1362L58.7484 55.5086L56.6949 83.1811C56.6671 83.3721 56.7781 83.5631 56.9446 83.6723L61.246 86.1284C61.4402 86.2376 61.6345 86.183 61.7732 86.1284L73.3452 79.5787C73.5117 79.4696 73.6227 79.3058 73.595 79.0875L72.7902 69.645C72.7625 69.3721 72.4849 69.1538 72.2352 69.1811C71.9577 69.2084 71.7357 69.454 71.7634 69.7269L72.5405 78.8419L62.1062 84.7639L64.5483 51.9608C64.5483 51.7698 64.465 51.606 64.2985 51.4969C64.132 51.3877 63.9378 51.3877 63.7713 51.4969L58.4987 54.4715L67.3233 35.5592L76.259 44.4013L70.1817 47.8399C70.0151 47.9491 69.9041 48.1128 69.9319 48.3312L71.7634 69.7269C71.7912 69.9998 72.0409 70.1908 72.3184 70.1908C72.5959 70.1635 72.818 69.9179 72.7902 69.645L70.9864 48.5768L77.369 44.9472C77.6466 44.7834 77.7021 44.4013 77.4523 44.1557ZM61.0795 84.8185L57.7494 82.9355L59.8307 54.8809L63.4383 52.8341L61.0795 84.8185ZM63.1053 32.9394L66.5186 34.9043L57.1389 54.99L53.7256 53.0251L63.1053 32.9394Z" fill="#543F3A"/>
<path d="M50.8671 76.1126C50.1733 75.7033 46.205 73.4382 46.4548 73.5746C46.316 73.4927 46.094 73.4927 45.9275 73.5746L44.7897 74.2296C45.761 60.9937 46.8433 46.2842 46.8433 46.5025C46.8433 46.3114 46.7045 46.1477 46.5935 46.0658C46.3993 45.9294 42.0702 43.4732 42.2922 43.5824C42.1257 43.5005 41.9314 43.5005 41.7649 43.5824C34.078 47.9489 45.539 41.4537 30.1929 50.1594C30.0819 50.2413 29.9432 50.4596 29.9432 50.596C29.9432 50.7871 31.5527 70.1906 31.5805 69.9996C31.6082 70.2725 31.858 70.4635 32.1355 70.4635C32.413 70.4362 32.635 70.1906 32.6072 69.9177L31.0532 51.5239H31.081L34.2723 53.3524L35.4378 66.9703L36.7976 82.9625L33.5785 81.1068L32.6072 69.9177C32.5795 69.6448 32.302 69.4265 32.0522 69.4537C31.7747 69.481 31.5527 69.7267 31.5805 69.9996L32.524 81.1341L26.1413 84.7637C25.9193 84.8728 25.7806 85.2276 26.0026 85.5005C26.2801 85.7734 36.5756 96.0073 35.9373 95.3797C35.9651 95.407 35.9928 95.4342 36.0483 95.4615L40.3496 97.9177C40.6271 98.0814 40.9602 97.945 41.0712 97.6994C46.7323 85.6097 45.1505 88.9664 50.8949 76.6857C51.0614 76.4674 51.0059 76.2218 50.8671 76.1126ZM46.205 74.6116L49.4796 76.4674C49.2853 76.5766 44.096 79.5239 44.429 79.3329L44.7065 75.4303L46.205 74.6116ZM42.0424 44.6194L45.317 46.5025C45.095 46.6389 34.1335 52.8612 34.7718 52.4791L31.4972 50.596L42.0424 44.6194ZM33.1345 82.0074L36.4091 83.8904C36.1871 83.9996 30.4149 87.2744 30.7757 87.0834L27.5011 85.2003L33.1345 82.0074ZM29.5824 87.5746L30.4704 88.0931C30.6647 88.2841 38.0463 95.6253 37.6023 95.1614L36.7143 94.6428L29.5824 87.5746ZM40.5161 96.635L31.6082 87.7929C32.2187 87.4382 29.3604 89.0756 37.6856 84.327C37.9353 84.1633 37.9076 84.0268 37.9353 83.8631L35.3268 53.3251C35.5765 53.1886 46.1773 47.1574 45.761 47.4031L43.3467 80.2335C43.319 80.6428 43.763 80.9157 44.1237 80.6974L49.3963 77.7227L40.5161 96.635Z" fill="#543F3A"/>
</svg>
