<svg width="50" height="100" viewBox="0 0 50 100" fill="none" xmlns="http://www.w3.org/2000/svg">
<path d="M11.0798 99.1517C10.2798 99.1517 9.51979 98.9515 8.83979 98.5711C7.23979 97.6501 6.35979 95.7681 6.35979 93.2655L6.19979 34.4631C6.17979 29.5779 9.63979 23.5915 13.8998 21.1289L40.8798 5.53235C43.0598 4.27101 45.1398 4.09082 46.7598 5.01179C48.3598 5.93277 49.2398 7.79475 49.2398 10.2974L49.3998 69.0998C49.4198 74.005 45.9598 79.9914 41.6998 82.454L14.6998 98.0506C13.4398 98.7914 12.1998 99.1517 11.0798 99.1517ZM41.4598 6.59347L14.4998 22.19C10.5798 24.4524 7.39979 29.9583 7.39979 34.4631L7.55979 93.2655C7.55979 95.3077 8.23979 96.8293 9.43979 97.51C10.6398 98.2107 12.2998 98.0305 14.0998 96.9894L41.0798 81.3929C44.9998 79.1305 48.1798 73.6046 48.1798 69.0998L47.9998 10.3174C47.9998 8.27526 47.3398 6.77366 46.1198 6.07292C44.8998 5.37218 43.2598 5.55237 41.4598 6.59347Z" fill="#543F3A"/>
<path d="M13.8799 91.2237C13.3999 91.2237 12.9599 91.1036 12.5599 90.8834C11.6199 90.3428 11.0999 89.2617 11.0999 87.8602L10.9399 34.4435C10.9399 31.7406 12.7799 28.5372 15.1199 27.1758L18.2799 25.3538C18.6599 25.1336 19.0599 25.1336 19.3599 25.3138C19.6799 25.494 19.8599 25.8544 19.8799 26.2948V27.2558C19.8799 27.396 19.9199 27.4761 19.9199 27.4761C19.9199 27.4761 19.9999 27.4561 20.1399 27.396L34.6199 19.0271C35.0799 18.7668 35.4799 18.0661 35.4799 17.5455V16.5845C35.4799 15.9238 35.8999 15.183 36.4799 14.8627L39.6199 13.0408C40.8599 12.32 42.0599 12.2399 42.9999 12.7605C43.9399 13.301 44.4599 14.3822 44.4599 15.7837L44.6199 69.1804C44.6199 71.8432 42.7399 75.1066 40.4199 76.4481L15.9199 90.6031C15.2199 91.0035 14.5199 91.2237 13.8799 91.2237ZM18.6999 26.5151L15.7599 28.2169C13.7799 29.3581 12.1799 32.141 12.1799 34.4235L12.3399 87.8402C12.3399 88.8012 12.6399 89.5019 13.1799 89.8223C13.7199 90.1426 14.4999 90.0425 15.3399 89.542L39.8399 75.3869C41.7999 74.2657 43.4399 71.4027 43.4199 69.1603L43.2599 15.7637C43.2599 14.8026 42.9599 14.1019 42.4199 13.7815C41.8799 13.4612 41.0999 13.5613 40.2599 14.0618L37.1199 15.8838C36.9199 16.0039 36.7199 16.3443 36.7399 16.5645V17.5255C36.7399 18.4865 36.1199 19.5877 35.2799 20.0682L20.7999 28.4371C20.2999 28.7174 19.7799 28.7574 19.3799 28.5172C18.9799 28.2769 18.7399 27.8164 18.7399 27.2558L18.6999 26.5151Z" fill="#543F3A"/>
<path d="M9.12 98.6515C9.02 98.6515 8.92 98.6315 8.82 98.5714L2.64 94.9676C1.04 94.0466 0.18 92.1646 0.18 89.682L0 30.8796C0 28.9375 0.54 26.7552 1.58 24.5729C1.66 24.4127 1.78 24.3126 1.94 24.2525C2.1 24.1925 2.28 24.2125 2.42 24.3126L8.62 27.9164C8.9 28.0766 9 28.417 8.86 28.6973C7.9 30.7194 7.4 32.7015 7.4 34.4634L7.58 93.2658C7.58 95.308 8.24 96.8296 9.44 97.5303C9.74 97.6905 9.82 98.0709 9.66 98.3512C9.54 98.5514 9.34 98.6515 9.12 98.6515ZM2.4 25.6941C1.62 27.496 1.2 29.2779 1.22 30.8796L1.4 89.682C1.4 91.7242 2.06 93.2258 3.26 93.9265L6.8 95.9887C6.52 95.2079 6.38 94.2869 6.38 93.2858L6.2 34.4634C6.2 32.6815 6.66 30.6994 7.54 28.6772L2.4 25.6941Z" fill="#543F3A"/>
<path d="M8.31992 29.0376C8.21992 29.0376 8.09992 29.0176 8.01992 28.9575L1.81992 25.3537C1.53992 25.1935 1.43992 24.8532 1.57992 24.5729C3.03992 21.4896 5.27992 18.9269 7.69992 17.5454L34.6799 1.94885C36.8199 0.687511 38.9599 0.50732 40.5599 1.4283L46.7599 5.03212C47.0399 5.19229 47.1399 5.5727 46.9799 5.85299C46.8199 6.15331 46.4399 6.2334 46.1599 6.07323C44.9399 5.37248 43.2799 5.55268 41.4799 6.59378L14.4999 22.1903C12.2999 23.4717 10.2399 25.8342 8.87992 28.7173C8.79992 28.8774 8.67992 28.9775 8.51992 29.0376C8.43992 29.0376 8.37992 29.0376 8.31992 29.0376ZM2.91992 24.5929L8.05992 27.5761C9.51992 24.7531 11.6199 22.4306 13.8799 21.1292L40.8399 5.55268C41.7399 5.03212 42.6199 4.69176 43.4799 4.53159L39.9399 2.4694C38.7399 1.76866 37.0399 1.96887 35.2799 2.98996L8.29992 18.5865C6.21992 19.7878 4.27992 21.9701 2.91992 24.5929Z" fill="#543F3A"/>
<path d="M23.5798 22.7708C23.3798 22.7708 23.1598 22.6707 23.0598 22.4705C22.8998 22.1702 22.9998 21.8098 23.2798 21.6496L31.5198 16.8845C31.8198 16.7244 32.1798 16.8245 32.3398 17.1048C32.4998 17.4051 32.3998 17.7655 32.1198 17.9257L23.8798 22.6907C23.7998 22.7508 23.6798 22.7708 23.5798 22.7708Z" fill="#543F3A"/>
<path d="M3.47988 52.8627C3.15988 52.8627 2.89988 52.6025 2.89988 52.2821L2.87988 48.2378C2.87988 47.9175 3.13988 47.6572 3.45988 47.6572C3.77988 47.6572 4.03988 47.9175 4.03988 48.2378L4.05988 52.2821C4.07988 52.6025 3.79988 52.8627 3.47988 52.8627Z" fill="#543F3A"/>
<path d="M3.45986 45.0744C3.13986 45.0744 2.87986 44.8142 2.87986 44.4938L2.85986 37.5464C2.85986 37.2261 3.11986 36.9658 3.43986 36.9658C3.75986 36.9658 4.01986 37.2261 4.01986 37.5464L4.03986 44.4938C4.03986 44.8142 3.77986 45.0744 3.45986 45.0744Z" fill="#543F3A"/>
<path d="M22.8201 59.1295C21.6601 59.1295 20.5801 58.8492 19.6201 58.3086C17.3201 56.9872 16.0601 54.2643 16.0601 50.6405C16.0401 43.3728 21.1401 34.5034 27.4601 30.8795C30.6401 29.0376 33.6601 28.7573 35.9801 30.0987C38.2801 31.4201 39.5401 34.143 39.5601 37.7868C39.5801 45.0345 34.4601 53.904 28.1601 57.5478C26.2601 58.5889 24.4601 59.1295 22.8201 59.1295ZM32.7401 30.4591C31.3201 30.4591 29.7201 30.9396 28.0401 31.9206C22.0801 35.3643 17.2401 43.7532 17.2601 50.6405C17.2601 53.8239 18.3201 56.1664 20.2201 57.2675C22.1401 58.3687 24.7201 58.0884 27.5201 56.4867C33.5001 53.043 38.3401 44.6341 38.3201 37.7868C38.3201 34.6035 37.2601 32.241 35.3601 31.1398C34.5801 30.6793 33.7001 30.4591 32.7401 30.4591Z" fill="#543F3A"/>
<path d="M27.82 49.1992C28.56 48.7588 29.18 49.1191 29.18 49.98C29.18 50.841 28.58 51.9021 27.82 52.3225C27.06 52.763 26.46 52.4026 26.46 51.5417C26.46 50.6808 27.06 49.6397 27.82 49.1992Z" fill="#543F3A"/>
<path d="M27.7802 36.1053C28.8602 35.4846 29.7202 36.0452 29.6402 37.3466L29.1402 45.6754C29.1002 46.4963 28.5202 47.4573 27.8202 47.8577C27.1202 48.2582 26.5402 47.9779 26.4802 47.2171L25.9202 39.5089C25.8402 38.2876 26.7002 36.7259 27.7802 36.1053Z" fill="#543F3A"/>
<path d="M18.0802 71.6425C17.8802 71.6425 17.6602 71.5424 17.5602 71.3422C17.4002 71.0419 17.5002 70.6815 17.7802 70.5214L29.4202 63.7942C29.7202 63.634 30.0802 63.7342 30.2402 64.0144C30.4002 64.3148 30.3002 64.6752 30.0202 64.8353L18.3802 71.5625C18.2802 71.6225 18.1802 71.6425 18.0802 71.6425Z" fill="#543F3A"/>
<path d="M33.86 62.5133C33.66 62.5133 33.44 62.4131 33.34 62.2129C33.18 61.9126 33.28 61.5522 33.56 61.3921L37.36 59.1897C37.64 59.0296 38.02 59.1297 38.18 59.41C38.34 59.7103 38.24 60.0707 37.96 60.2308L34.16 62.4332C34.08 62.4932 33.98 62.5133 33.86 62.5133Z" fill="#543F3A"/>
<path d="M18.0802 79.9318C17.8802 79.9318 17.6602 79.8317 17.5602 79.6315C17.4002 79.3311 17.5002 78.9707 17.7802 78.8106L22.8802 75.8675C23.1602 75.7073 23.5402 75.8074 23.7002 76.0877C23.8602 76.388 23.7602 76.7484 23.4802 76.9086L18.3802 79.8517C18.2802 79.9117 18.1802 79.9318 18.0802 79.9318Z" fill="#543F3A"/>
<path d="M27.2399 74.6459C27.0399 74.6459 26.8199 74.5458 26.7199 74.3456C26.5599 74.0453 26.6599 73.6849 26.9399 73.5247L37.3799 67.4983C37.6599 67.3381 38.0399 67.4383 38.1999 67.7186C38.3599 68.0189 38.2599 68.3793 37.9799 68.5394L27.5399 74.5658C27.4399 74.6059 27.3399 74.6459 27.2399 74.6459Z" fill="#543F3A"/>
</svg>
