<svg width="57" height="98" viewBox="0 0 57 98" fill="none" xmlns="http://www.w3.org/2000/svg">
<path d="M9.82026 97.9997C9.11302 97.9997 8.4462 97.8384 7.8602 97.4957C6.46593 96.6893 5.69808 95.0563 5.69808 92.8991L5.51622 30.7847C5.49601 26.5712 8.4664 21.4504 12.1238 19.3336L40.0092 3.28585C40.191 3.18505 40.4133 3.18505 40.5952 3.26569L56.4575 11.592C56.6595 11.6928 56.7808 11.9145 56.7808 12.1363L56.9222 64.0696C56.9424 68.2832 53.9518 73.4039 50.2944 75.5208L12.9523 97.0521C11.8611 97.6771 10.7902 97.9997 9.82026 97.9997ZM40.3123 4.51564L12.7502 20.4021C9.43633 22.3173 6.72862 26.9744 6.74883 30.7847L6.93069 92.8991C6.93069 94.6127 7.49648 95.8627 8.48661 96.4473C9.49695 97.032 10.871 96.8707 12.3663 96.0038L49.7084 74.4926C53.0425 72.5774 55.73 67.9203 55.73 64.11L55.5482 12.4992L40.3123 4.51564Z" fill="#543F3A"/>
<path d="M42.3735 20.2407C41.9088 20.2407 41.4844 20.1399 41.1207 19.9182C40.2316 19.4142 39.7467 18.386 39.7265 17.0352L39.686 3.80997C39.686 3.5882 39.8073 3.3866 39.9891 3.2858C40.171 3.16483 40.3933 3.16483 40.5953 3.26564L56.4577 11.5919C56.6597 11.6927 56.781 11.8943 56.781 12.1161C56.781 12.3378 56.6597 12.5394 56.4779 12.6604L44.3336 19.6561C43.6668 20.0391 42.9999 20.2407 42.3735 20.2407ZM40.9186 4.81799L40.9591 17.0151C40.9591 17.9021 41.242 18.5674 41.7269 18.8497C42.2119 19.1319 42.9393 19.0311 43.7274 18.5876L54.9017 12.1564L40.9186 4.81799Z" fill="#543F3A"/>
<path d="M7.35549 26.3898C7.25445 26.3898 7.13321 26.3696 7.05239 26.3092L1.53594 23.1036C1.25304 22.9424 1.15201 22.5996 1.29346 22.3174C2.54628 19.6159 4.50633 17.3579 6.62804 16.1281L34.4932 0.0804033C34.675 -0.0405594 34.9175 -0.020399 35.0994 0.0804033L40.6158 3.28592C40.7977 3.38672 40.9189 3.58832 40.9189 3.81009C40.9189 4.03185 40.7977 4.23346 40.6158 4.33426L12.7305 20.382C10.8513 21.4707 9.05285 23.5673 7.90107 26.0068C7.82024 26.168 7.699 26.289 7.53735 26.3293C7.47673 26.3696 7.41611 26.3898 7.35549 26.3898ZM2.64731 22.3376L7.0928 24.9181C8.34562 22.4787 10.1642 20.4828 12.1243 19.3336L39.0801 3.81009L34.7963 1.33035L7.23425 17.1966C5.47626 18.2047 3.7991 20.0997 2.64731 22.3376Z" fill="#543F3A"/>
<path d="M8.14333 97.5765C8.04229 97.5765 7.94126 97.5564 7.84023 97.4959L2.34399 94.2904C0.969925 93.5041 0.202068 91.8711 0.181861 89.7139L0 27.5996C0 25.9666 0.444549 24.1521 1.29323 22.3175C1.37406 22.1562 1.4953 22.0353 1.65695 21.995C1.81861 21.9345 2.00047 21.9546 2.14192 22.0554L7.65837 25.261C7.94126 25.4222 8.04229 25.765 7.90085 26.0472C7.13299 27.7004 6.70865 29.3535 6.70865 30.7849L6.89051 92.8993C6.89051 94.5928 7.43609 95.8629 8.42622 96.4475C8.70912 96.6088 8.81015 96.9919 8.6485 97.2943C8.56767 97.4556 8.3656 97.5765 8.14333 97.5765ZM2.12171 23.4465C1.51551 24.8981 1.21241 26.3093 1.21241 27.5794L1.39427 89.6938C1.41447 91.4074 1.96006 92.6574 2.95019 93.2219L5.9812 94.9758C5.79934 94.3508 5.69831 93.6452 5.69831 92.8791L5.51645 30.7648C5.51645 29.293 5.88017 27.66 6.58741 26.0069L2.12171 23.4465Z" fill="#543F3A"/>
<path d="M9.42284 68.3238C9.22077 68.3238 8.9985 68.223 8.89746 68.0214C8.73581 67.719 8.83684 67.3561 9.11974 67.1948L26.1742 57.3666L43.2288 47.5384C43.5319 47.3771 43.8956 47.4779 44.0572 47.7602C44.2189 48.0626 44.1179 48.4255 43.835 48.5867L9.74615 68.2432C9.64511 68.3037 9.54408 68.3238 9.42284 68.3238Z" fill="#543F3A"/>
<path d="M33.2383 63.2591C33.0362 63.2591 32.8139 63.1583 32.7129 62.9567C32.5512 62.6543 32.6523 62.2914 32.9352 62.1301L42.2303 56.7674C42.5334 56.6061 42.8971 56.7069 43.0588 56.9892C43.2204 57.2916 43.1194 57.6545 42.8365 57.8157L33.5414 63.1784C33.4605 63.2389 33.3595 63.2591 33.2383 63.2591Z" fill="#543F3A"/>
<path d="M18.2432 51.2128C18.0411 51.2128 17.8188 51.112 17.7178 50.9104C17.5561 50.608 17.6572 50.2451 17.94 50.0838L42.1882 36.1126C42.4913 35.9513 42.855 36.0521 43.0166 36.3344C43.1783 36.6368 43.0773 36.9997 42.7944 37.161L18.5463 51.1322C18.4654 51.1725 18.3644 51.2128 18.2432 51.2128Z" fill="#543F3A"/>
<path d="M15.5972 41.0772C15.3951 41.0772 15.1728 40.9764 15.0718 40.7748C14.9101 40.4724 15.0112 40.1095 15.2941 39.9483L49.4031 20.2918C49.7062 20.1305 50.0699 20.2313 50.2315 20.5136C50.3932 20.816 50.2922 21.1789 50.0093 21.3402L15.9205 40.9966C15.8194 41.0571 15.7184 41.0772 15.5972 41.0772Z" fill="#543F3A"/>
<path d="M18.2432 81.7852C18.0411 81.7852 17.8188 81.6844 17.7178 81.4828C17.5561 81.1804 17.6572 80.8175 17.94 80.6562L36.5303 69.951C36.8334 69.7897 37.1971 69.8905 37.3588 70.1728C37.5204 70.4752 37.4194 70.8381 37.1365 70.9993L18.5463 81.7045C18.4654 81.765 18.3644 81.7852 18.2432 81.7852Z" fill="#543F3A"/>
</svg>
