<svg width="1331" height="2723" viewBox="0 0 1331 2723" fill="none" xmlns="http://www.w3.org/2000/svg">
<g id="Vector-3" clip-path="url(#clip0_0_1)">
<path id="Vector" d="M1154 2215.87C727.5 2225.87 720.783 2566.73 679.266 2581.21C652.982 2590.38 674.639 2561.61 663.976 2559.17C653.247 2556.72 606.407 2555.98 612.236 2561.15C618.066 2566.31 621.936 2567.85 623.862 2577.86C625.788 2587.87 626.397 2684.62 632.818 2671.09C639.222 2657.61 623.22 2567.17 635.42 2564.67C647.535 2562.2 676.514 2568.66 677.14 2551.87C677.765 2535.08 674.03 2495.67 676.514 2497.91C679.015 2500.12 438.919 2478.88 436.756 2489.25C434.593 2499.63 441.707 2523.88 428.122 2528.61C414.435 2533.38 394.817 2529.65 394.8 2538.74C394.783 2547.84 399.852 2576 393.296 2574.33C386.706 2572.65 436.655 2569.4 445.915 2580.85C455.124 2592.25 452.184 2690.74 456.425 2692.95C460.666 2695.15 469.098 2700.29 469.115 2689.89C469.132 2679.49 469.909 2594.79 476.229 2588.23C482.514 2581.7 510.868 2572.08 511.561 2569.15C512.254 2566.22 523.153 2557.6 515.617 2556.65C508.064 2555.71 386.74 2554.42 415.127 2559.78C443.093 2565.08 559.601 2557.4 582.818 2558.09C604.666 2552.46 662.709 2555.54 668.37 2547.35C670.888 2530.59 661.459 2492.24 670.262 2489.87C679.015 2487.52 529.354 2487.1 517.796 2479.93C510.514 2475.43 450.257 2417.29 404.888 2371.68C377.193 2343.85 355.294 2320.92 355.294 2318.62C355.31 2312.51 439.832 2315.17 441.251 2317.54C442.67 2319.9 465.279 2342.06 479.963 2346.32C494.546 2350.53 564.383 2377.54 607.775 2395.31C650.12 2412.66 685.876 2448.07 675.281 2469.8C664.619 2491.68 595.339 2484.61 581.551 2471.68C567.661 2458.67 459.686 2301.47 458.976 2305.87C458.267 2310.26 442.67 2328.16 456.121 2340.55C469.487 2352.85 546.269 2476.33 556.999 2476.17C567.661 2476.02 569.655 2467.47 550.307 2470.02C530.74 2472.61 523.254 2479.51 506.154 2479.36C488.885 2479.2 379.694 2478.25 386.317 2473.27C392.924 2468.29 397.993 2355.06 403.08 2360.78C408.149 2366.48 393.786 2482.08 390.846 2478.9C387.906 2475.7 292.908 2467.62 305.953 2473.72C318.913 2479.78 421.008 2484.77 424.59 2490.19C428.172 2495.62 432.464 2506.31 423.847 2513.46C415.195 2520.63 396.304 2525.2 387.517 2528.67C378.696 2532.15 357.727 2527.94 362.137 2530.58C366.547 2533.21 376.534 2530.27 383.681 2534.64C390.812 2538.98 393.955 2544.82 390.795 2543.48C387.635 2542.14 380.893 2538.22 380.893 2538.22C380.893 2538.22 387.635 2545.42 384.847 2544.92C382.076 2544.41 376.906 2539.73 376.906 2539.73C376.906 2539.73 383.648 2547.34 378.883 2546.78C374.101 2546.22 373.323 2539.61 366.108 2541.42C358.876 2543.24 358.487 2541.59 354.043 2541.01C349.599 2540.45 290.509 2540.59 286.758 2537.1C283.006 2533.6 278.005 2520.79 278.005 2519.1C278.005 2517.4 303.013 2514.6 303.858 2509.61C304.703 2504.62 301.813 2499.04 303.047 2502.88C304.28 2506.7 307.575 2515.63 306.325 2518.1C305.074 2520.57 300.935 2526.28 302.59 2520.89C304.263 2515.51 307.981 2514.82 314.976 2516.76C321.955 2518.71 332.989 2524.54 348.805 2526.79C364.503 2529.02 316.21 2515.56 311.681 2510.37C307.153 2505.16 303.03 2499.53 299.312 2491.41C295.595 2483.26 296.862 2467.8 286.048 2460.92C275.166 2454.02 263.371 2454.63 259.958 2473.52C256.528 2492.43 267.055 2520.82 269.167 2516.25C271.28 2511.69 250.175 2487.47 250.58 2497.69C250.986 2507.9 274.625 2525.76 267.461 2528.02C260.279 2530.31 250.952 2526.16 259.417 2536.65C267.849 2547.08 290.509 2538.52 292.993 2545.34C295.477 2552.14 295.46 2557.6 292.536 2564.25C289.613 2570.91 281.232 2578.28 261.868 2579.11C242.3 2579.96 217.816 2569.54 219.117 2570.01C220.418 2570.47 214.335 2577.62 223.848 2579.11C233.311 2580.6 246.136 2585.57 263.135 2583.8C279.982 2582.05 288.768 2577.18 292.114 2571.38C295.46 2565.58 287.957 2562.01 297.116 2562.27C306.24 2562.52 347.538 2561.98 354.804 2566.73C362.036 2571.47 385.472 2650.44 385.067 2656.19C384.661 2661.94 373.915 2668.52 367.51 2666.86C361.089 2665.2 361.512 2658.59 362.306 2663.14C363.1 2667.69 357.862 2683.4 367.882 2685.43C377.869 2687.44 388.193 2682.45 396.895 2680.37C405.547 2678.29 418.845 2675.81 415.736 2670.12C412.627 2664.42 391.387 2659.08 387.821 2663.17C384.239 2667.28 371.093 2671.41 368.693 2671.41C366.294 2671.41 365.094 2663.56 366.294 2671.41C367.477 2679.26 359.839 2691.26 370.67 2690.37C381.434 2689.47 415.702 2688.86 416.108 2682.33C416.513 2675.82 420.906 2582.68 417.797 2579.36C414.688 2576.03 398.602 2577.28 399.396 2578.94C400.173 2580.6 397.318 2660.32 399.295 2648.87C401.272 2637.44 397.824 2571.96 392.299 2577.54C386.757 2583.15 385.067 2658.64 387.061 2641.83C389.072 2625.02 391.116 2576.29 382.803 2570.74C374.455 2565.18 295.899 2548.79 297.572 2546.74C299.245 2544.7 300.056 2550.18 300.039 2554.79C300.039 2559.41 287.957 2562.01 279.61 2557.99C271.212 2553.95 266.16 2550.84 269.1 2555.17C272.04 2559.48 279.154 2568.95 263.574 2571.96C247.86 2574.98 221.702 2573.07 217.394 2562.69C213.085 2552.27 214.082 2490.97 218.002 2477.02C221.922 2463.09 226.265 2445.36 237.011 2442.56C247.691 2439.77 281.029 2455.19 277.261 2451.18C273.493 2447.17 257.897 2435.27 253.655 2434.17C249.397 2433.07 237.451 2437.47 245.139 2438.35C252.794 2439.23 231.942 2414.35 232.381 2403.29C271.499 2357.87 253.389 2327.03 279.5 2330.37C322.5 2335.87 330.46 2300.18 326.5 2282C320.599 2254.91 254.58 2247 227.5 2251C200.42 2255 171.467 2295.68 208 2312.87C233.5 2324.87 239.926 2312.67 250.58 2325.37C267.79 2345.89 242.129 2391.38 242.25 2391.22C243.111 2390 247.809 2381 258.437 2379.68C268.998 2378.36 283.26 2378.62 283.26 2381.56C283.26 2384.5 271.499 2389.54 271.499 2391.66C271.499 2393.77 274.017 2392.69 271.905 2399.71C269.793 2406.74 263.034 2405.42 261.766 2410.83C260.482 2416.24 261.749 2421.84 261.749 2421.84C261.749 2421.84 260.499 2408.63 255.835 2416.38C251.155 2424.14 260.465 2430.65 259.198 2431.01C257.931 2431.35 244.75 2427.13 244.767 2418.63C244.784 2410.12 251.222 2387.22 264.352 2385.23C277.396 2383.25 280.337 2384.74 285.338 2391.84C290.34 2398.93 297.335 2432.56 291.1 2437.21C284.831 2441.88 269.319 2435.03 269.742 2433.37C270.164 2431.72 274.355 2439.56 273.932 2443.76C273.51 2447.95 259.603 2434.15 242.993 2448.48C226.231 2462.92 215.822 2487.67 220.976 2505.02C226.113 2522.34 253.453 2547.98 242.368 2547.22C231.232 2546.46 223.933 2538.1 222.175 2547.03C220.435 2555.98 214.757 2574.68 217.343 2586.32C219.911 2597.93 249.076 2606.52 267.731 2606.81C286.2 2607.1 328.765 2603.58 335.709 2596.63C342.637 2589.7 339.816 2574.7 337.349 2585.03C334.881 2595.38 331.62 2598.64 338.937 2608.33C346.22 2617.99 366.311 2657.85 357.862 2664.04C349.38 2670.24 327.835 2666.52 333.969 2665.27C340.069 2664.02 335.169 2679.83 337.197 2682.32C339.224 2684.8 357.423 2685.12 357.034 2681.83C356.645 2678.51 345.73 2678.54 341.269 2673.17C336.808 2667.77 335.997 2668.18 333.986 2653.2C331.975 2638.2 332.431 2605.73 330.792 2608.62C329.153 2611.51 320.147 2610.97 313.151 2610.45C306.139 2609.92 299.921 2606.9 300.749 2609.01C301.577 2611.12 306.528 2616.21 302.388 2620.78C298.231 2625.34 228.056 2624.6 217.698 2620.63C207.289 2616.64 186.758 2603.41 189.411 2597.85C192.064 2592.28 213.879 2582.83 209.08 2590.46C204.281 2598.1 186.336 2596.93 186.758 2606.02C187.181 2615.1 184.967 2619.81 191.118 2622.49C197.252 2625.14 209.857 2635.15 224.592 2634.42C239.208 2633.7 291.573 2635.39 292.824 2631.2C294.074 2627 291.185 2616.87 290.34 2626.12C289.495 2635.37 291.016 2712.42 288.109 2703.18C285.203 2693.93 284.054 2637.43 279.441 2636.56C274.828 2635.68 233.193 2634.49 233.176 2639.19C233.159 2643.9 227.853 2720.87 227.025 2704.62C226.197 2688.35 227.16 2643.42 220.689 2640.39C214.2 2637.35 198.536 2630.77 197.235 2633.77C195.917 2636.78 197.961 2698.43 192.301 2689.84C186.606 2681.23 188.516 2619.43 190.239 2628.95C191.98 2638.47 199.736 2688.51 187.029 2689.44C174.237 2690.38 -67.5 2688.87 -54 2721.87" stroke="#543F3A" stroke-width="2" stroke-miterlimit="10" stroke-linecap="round" stroke-linejoin="round"/>
</g>
<g id="Vector-2" clip-path="url(#clip1_0_1)">
<path id="Vector_2" d="M646.5 1697.37C714.5 1718.98 657.249 1879.78 688 1897.4C718.751 1915.02 709.671 1969.1 725.577 1965.52C729.551 1964.63 810.096 1964.63 811.838 1967.72C813.611 1970.81 820.641 1977.86 811.838 1978.75C803.034 1979.63 780.14 1975.22 778.825 1978.32C777.511 1981.41 778.397 2114.6 781.454 2115.92C784.541 2117.24 793.773 2118.13 793.773 2115.92C793.773 2113.72 794.201 1982.3 792.458 1982.3C790.716 1982.3 737.437 1980.52 736.551 1981.87C735.664 1983.22 733.922 2116.38 731.263 2116.81C728.634 2117.24 733.036 1959.82 734.35 1958.47C735.664 1957.16 808.598 1960.68 816.148 1958.47C823.698 1956.27 838.676 1943.92 835.589 1942.61C832.501 1941.29 813.58 1954.95 809.606 1954.95C805.633 1954.95 819.724 1943.04 819.296 1940.4C818.868 1937.77 805.205 1952.74 797.716 1954.95C790.227 1957.16 763.817 1955.38 757.214 1951.43C750.612 1947.45 740.922 1929.38 741.38 1905.55C741.839 1881.72 743.581 1879.52 746.21 1879.52C748.839 1879.52 806.519 1885.24 806.519 1887.91C806.519 1890.57 809.148 1894.95 806.947 1895.84C804.746 1896.73 759.415 1890.76 759.415 1889.01C759.415 1887.27 759.629 1878.41 762.502 1878.41C765.376 1878.41 764.031 1886.84 762.716 1888.34C761.402 1889.84 739.394 1886.13 739.394 1885.03C739.394 1883.93 740.28 1876.21 743.123 1876.42C745.996 1876.64 794.17 1862.31 797.257 1859.67C800.345 1857.04 748.166 1872.47 746.852 1872.01C745.538 1871.56 777.236 1859.49 778.336 1859.37C779.437 1859.24 747.524 1867.39 747.096 1865.86C746.669 1864.33 745.782 1852.63 750.398 1851.31C755.013 1849.99 767.118 1851.31 780.537 1846.47C793.956 1841.63 807.834 1834.56 808.475 1831.92C809.148 1829.29 804.502 1817.16 805.847 1813.85C807.161 1810.55 817.799 1805.19 820.305 1804.3C822.812 1803.41 838.217 1806.35 839.226 1808.28C840.235 1810.21 829.903 1812.11 829.995 1811.07C830.087 1810.03 837.698 1809.97 838.584 1812.02C839.471 1814.07 829.995 1815.69 829.842 1814.65C829.689 1813.61 839.165 1814.13 839.318 1816.27C839.471 1818.42 829.842 1819.73 829.781 1818.63C829.72 1817.53 838.279 1818.2 838.951 1819.95C839.624 1821.73 828.375 1823.47 826.113 1824.15C823.851 1824.82 821.925 1830.45 816.056 1831.19C810.187 1831.92 809.056 1817.68 807.986 1815.02C806.917 1812.35 763.817 1826.35 759.14 1826.47C754.433 1826.63 774.699 1820.16 776.013 1819.28C777.327 1818.39 750.184 1826.93 749.603 1824.27C749.022 1821.63 772.498 1818.54 774.974 1817.22C777.48 1815.91 779.803 1797.53 781.729 1796.95C783.624 1796.37 777.328 1815.91 778.214 1816.49C779.1 1817.07 800.956 1812.23 802.576 1812.97C804.196 1813.7 807.558 1831.04 806.672 1831.92C805.786 1832.81 781.576 1845.74 769.686 1847.05C757.795 1848.37 737.101 1851.16 731.966 1839.7C726.83 1828.25 735.939 1811.04 744.59 1801.05C753.241 1791.07 771.581 1771.07 782.004 1769.14C792.428 1767.24 812.235 1804.57 813.702 1804.57C815.17 1804.57 778.336 1742.83 779.07 1740.78C779.803 1738.73 788.179 1736.06 789.34 1734.32C790.502 1732.54 782.738 1725.65 785.367 1724.46C787.995 1723.26 789.035 1723.72 789.921 1725.77C790.808 1727.83 797.104 1725.93 797.41 1722.68C797.716 1719.43 794.904 1714.9 791.847 1715.64C788.76 1716.37 785.825 1722.41 783.471 1721.82C781.118 1721.24 778.183 1717.41 778.336 1716.37C778.489 1715.33 781.576 1716.37 784.052 1716.8C786.528 1717.23 789.249 1714.87 788.943 1711.81C788.637 1708.72 787.323 1705.19 784.694 1706.36C782.065 1707.52 778.397 1713.13 776.93 1713.55C775.463 1713.98 770.328 1715.18 765.498 1710.61C760.668 1706.05 763.603 1700.63 764.764 1700.48C765.926 1700.32 762.991 1707.52 767.699 1709.73C772.406 1711.93 776.502 1710.77 780.904 1704.89C785.306 1699.01 780.476 1687.98 770.205 1686.94C759.935 1685.9 746.302 1692.39 750.551 1704.43C754.799 1716.49 763.756 1720.6 764.061 1722.07C764.367 1723.54 760.088 1723.97 759.232 1726.05C758.376 1728.13 759.66 1733.71 756.297 1733.55C752.935 1733.4 746.607 1725.77 748.808 1723.26C751.009 1720.75 754.983 1721.64 757.612 1721.49C760.24 1721.33 761.86 1718.39 763.481 1718.98C765.101 1719.56 773.17 1730.89 772.59 1732.36C772.009 1733.83 765.987 1734.72 765.987 1736.92C765.987 1739.13 767.301 1744.12 763.481 1743.11C759.66 1742.1 758.345 1737.08 759.812 1734.14C761.28 1731.2 764.367 1729.42 766.568 1730.03C768.769 1730.61 771.55 1731.81 772.865 1735.02C774.179 1738.24 776.533 1743.42 777.694 1744C778.856 1744.58 789.279 1735.76 791.205 1736.8C793.1 1737.84 826.632 1800.59 828.191 1801.7C829.72 1802.8 810.371 1767.95 811.471 1766.2C812.572 1764.42 817.34 1765.62 818.96 1765.47C820.58 1765.31 830.392 1772.66 830.851 1773.98C831.279 1775.3 830.545 1784.42 831.584 1785.16C832.624 1785.89 833.357 1775.3 834.947 1774.44C836.567 1773.55 843.75 1771.93 844.484 1772.54C845.217 1773.12 845.217 1779.31 845.37 1779.74C845.523 1780.17 835.405 1789.29 832.593 1790.03C829.811 1790.76 815.292 1769.29 815.139 1767.82C814.986 1766.35 823.637 1757.53 823.79 1754.59C823.943 1751.65 818.074 1746.66 817.34 1741.67C816.606 1736.68 822.475 1730.95 824.982 1733.74C827.488 1736.52 827.183 1740.93 826.449 1741.82C825.715 1742.71 823.087 1742.56 823.943 1744.76C824.798 1746.97 822.047 1748.01 821.008 1745.8C819.969 1743.6 816.912 1730.37 823.637 1721.12C830.362 1711.87 845.34 1707.74 855.488 1714.93C865.636 1722.13 872.055 1723.75 875.295 1721.12C878.536 1718.49 876.916 1728.16 875.295 1732.14C873.675 1736.13 864.444 1740.38 860.042 1738.91C855.641 1737.44 843.322 1730.09 840.235 1729.79C837.148 1729.48 838.034 1736.83 837.606 1740.08C837.178 1743.32 832.776 1749.2 835.405 1755.82C838.034 1762.43 845.37 1766.42 849.772 1766.26C854.174 1766.11 860.776 1754.5 861.51 1756.12C862.243 1757.75 856.069 1768.62 850.933 1769.78C845.798 1770.95 835.833 1772.3 832.165 1769.36C828.497 1766.42 824.248 1752.14 828.344 1747.61C832.44 1743.05 829.964 1736.43 828.191 1734.23C826.418 1732.02 838.034 1723.51 842.864 1727.18C847.693 1730.86 857.964 1737.47 861.357 1737.32C864.719 1737.17 866.064 1739.95 865.025 1743.51C863.986 1747.06 865.453 1760.57 859.156 1766.14C852.859 1771.71 847.265 1772.33 846.837 1773.64C846.409 1774.96 846.532 1778.94 847.418 1779.83C848.305 1780.72 867.47 1784.39 874.745 1788.68C882.02 1792.97 915.675 1830.7 916.684 1841.6C917.662 1852.51 895.898 1890.24 891.435 1888.58C886.972 1886.93 874.256 1868.74 876.824 1867.08C879.391 1865.43 891.374 1855.38 899.077 1851.86C906.78 1848.34 890.273 1853.18 889.387 1852.29C888.501 1851.4 899.077 1834.65 899.077 1831.77C899.077 1828.89 892.26 1843.01 890.273 1842.12C888.287 1841.24 867.593 1821.39 859.248 1820.5C850.903 1819.61 831.523 1823.13 829.108 1826.69C826.694 1830.21 794.231 1837.59 802.821 1876.3C811.41 1915.01 822.292 1917.98 829.903 1920.28C837.514 1922.58 854.326 1928.21 854.326 1949.38C854.326 1970.54 853.012 2076.05 851.025 2080.36C849.038 2084.65 822.964 2084.65 821.314 2082.69C819.663 2080.7 817.34 2070.44 820.977 2069.8C824.615 2069.15 848.366 2066.83 848.366 2070.47C848.366 2074.12 845.737 2091.63 847.051 2094.6C848.366 2097.58 873.278 2105.84 876.824 2110.16C880.37 2114.45 876.243 2115.46 876.824 2116.78C877.405 2118.09 827.886 2118.77 826.571 2115.46C825.257 2112.15 826.571 2087.01 824.584 2079.08C822.598 2071.14 810.065 1989.77 813.366 1985.15C816.667 1980.52 816.668 1980.52 816.668 1980.52C816.668 1980.52 818.991 2038.4 821.619 2039.72C824.248 2041.04 832.501 2025.51 833.846 2028.48C835.161 2031.45 822.903 2056.69 825.257 2062.88C827.611 2069.06 837.484 2044.01 838.462 2047.65C839.44 2051.3 830.514 2064.47 833.174 2066.52C835.833 2068.54 854.968 2068.51 855.305 2064.87C855.641 2061.22 855.977 2000.37 855.977 2000.37C855.977 2000.37 866.217 2042.69 882.723 2047.99C899.23 2053.29 892.627 2073.14 891.466 2075.13C890.304 2077.12 866.523 2068.51 865.544 2070.17C864.566 2071.82 855.977 2092.98 859.278 2095.65C862.58 2098.28 895.256 2112.18 898.893 2110.53C902.531 2108.88 883.365 2093.01 883.06 2086.4C882.723 2079.78 887.339 2072.83 887.675 2070.84C888.012 2068.85 866.217 2068.85 865.544 2064.9C864.872 2060.92 874.592 2036.45 876.854 2036.78C879.086 2037.12 891.313 2052.65 901.553 2052.34C911.793 2052 934.229 2046.4 940.19 2041.74C946.12 2037.12 947.77 2035.13 949.421 2034.45C951.072 2033.78 989.036 2114.51 989.036 2114.51C989.036 2114.51 937.194 2038.44 937.194 2036.45C937.194 2034.46 961.617 2021.22 967.884 2007.35C974.15 1993.45 969.198 1971.95 961.954 1959.73C954.709 1947.51 935.88 1925.67 936.216 1914.09C936.552 1902.52 929.95 1920.37 921.36 1917.74C912.771 1915.11 892.321 1895.26 900.238 1883.35C908.155 1871.43 891.221 1886.53 889.448 1884.79C887.675 1883.04 872.942 1894.71 868.112 1895.81C863.283 1896.91 860.837 1891.4 863.038 1889.32C865.239 1887.23 870.068 1884.02 870.068 1885.34C870.068 1886.65 859.4 1891.95 858.728 1888.86C858.056 1885.77 865.331 1881.57 866.217 1881.69C867.103 1881.81 858.3 1888.09 857.077 1887.08C855.855 1886.1 854.54 1884.11 857.75 1881.78C860.929 1879.46 864.689 1876.39 865.575 1877.25C866.462 1878.11 854.999 1885.64 853.593 1884.2C852.156 1882.76 849.405 1879.03 857.994 1874.62C866.584 1870.21 873.95 1868 874.929 1869.23C875.907 1870.45 884.894 1883.22 884.16 1884.26C883.426 1885.31 878.872 1886.62 878.872 1887.63C878.872 1888.64 937.867 1989.74 937.194 1992.37C936.522 1995.01 929.063 1997.89 928.819 2000.09C928.605 2002.3 943.797 2027.66 944.897 2027.44C945.998 2027.23 952.6 2024.13 952.386 2020.83C952.172 2017.52 940.587 1997 937.867 1995.9C935.146 1994.79 933.251 2000.09 931.05 2000.09C928.849 2000.09 874.776 1897.62 873.034 1897.4C871.261 1897.19 865.544 1899.82 859.828 1894.98C854.112 1890.14 847.296 1879.33 849.497 1876.46C851.698 1873.58 851.698 1873.58 851.698 1873.58C851.698 1873.58 864.903 1867.85 864.903 1865.43C864.903 1863.01 843.567 1824.42 840.265 1824.63C836.964 1824.85 831.676 1825.52 828.161 1830.82C824.646 1836.12 816.943 1874.25 829.934 1892.35C842.925 1910.42 851.514 1915.29 848.427 1922.55C845.34 1929.8 841.396 1916.36 849.099 1911.95C856.802 1907.54 878.505 1925.4 876.793 1945.7C875.081 1966.01 866.278 1974.15 863.833 1974.37C861.418 1974.58 865.82 1960.92 874.409 1971.49C882.998 1982.08 873.095 2008.97 896.203 2025.73C919.312 2042.48 930.745 2040.27 933.832 2040.06C936.919 2039.84 951.225 2033.44 954.954 2028.15C958.683 2022.85 970.36 2018.01 974.333 2003.89C995.563 2045.54 1011.58 2099.8 1041.79 2115.09C1072 2130.37 1155.72 2114.49 1160.76 2113.66C1165.78 2112.82 1256.92 2115.82 1277.8 2108.25C1298.39 2100.78 1262.43 2087.47 1259.05 2088.95C1255.66 2090.43 1274.51 2089.54 1275.18 2084.49C1275.88 2079.46 1236.41 2002.87 1231.68 1997C1226.93 1991.12 1229 1988.28 1229 1988.28C1229 1988.28 1229 1988.28 1229.01 1986.12C1229.01 1983.96 1227.66 1982.48 1225.62 1980.27C1223.58 1978.06 1241.19 1936.86 1244.01 1911.42C1246.82 1886.1 1247.42 1875.2 1247.18 1871.75C1246.94 1868.29 1237.6 1867.79 1227.98 1868.23C1218.29 1868.67 1190.27 1863.4 1184.62 1855.76C1178.96 1848.11 1200.13 1823.15 1201.97 1817.93C1203.82 1812.72 1192.41 1816.41 1204.93 1803.2C1217.31 1790.11 1217.9 1778.76 1217.92 1776.38C1217.94 1774 1220.87 1791.72 1215.34 1816.51C1209.78 1841.46 1197.29 1861.97 1200.87 1866.22C1204.45 1870.47 1232.37 1854.72 1241.46 1850.32C1250.5 1845.95 1236.03 1865.51 1241.34 1864.52C1246.64 1863.55 1249.45 1859.84 1251.22 1856.8C1252.98 1853.76 1262.06 1807.93 1264.07 1802.06C1266.08 1796.21 1267.96 1758.07 1267.23 1753.58C1266.5 1749.09 1263.75 1754.8 1264.74 1758.02C1265.7 1761.23 1278.26 1765.76 1288.52 1768.24C1298.73 1770.72 1300.41 1774.73 1305.01 1775.4C1309.59 1776.06 1300.9 1770.4 1296.3 1770.25C1291.69 1770.09 1278.97 1773.61 1274.05 1774.73C1269.11 1775.86 1273.06 1772.56 1266.16 1771.94C1259.22 1771.33 1242.43 1782.18 1242.43 1782.18C1242.43 1782.18 1261.36 1792.42 1263.34 1794.15C1265.33 1795.89 1264.09 1793.17 1264.84 1792.71C1265.58 1792.25 1268.81 1793.81 1269.3 1792.81C1269.76 1791.89 1135.19 1722.04 1112.73 1710.44C1110.07 1709.06 1109.7 1709.98 1107.66 1708.4C1107.34 1708.16 1107.1 1707.97 1107.1 1707.97L1102.46 1709.4C1102.46 1709.4 1106.49 1712.53 1107.85 1712.94C1109.19 1713.36 1109.75 1712.6 1109.75 1712.6C1109.75 1712.6 1238.94 1780.84 1244.96 1781.09C1250.96 1781.35 1240.72 1776.01 1238.97 1773.22C1237.22 1770.45 1252.25 1773.61 1256.98 1771.67C1261.72 1769.73 1240.53 1762.34 1236.24 1762.73C1231.95 1763.14 1228.89 1767.34 1227.59 1773.02C1226.28 1778.71 1234.44 1767.3 1234.44 1767.3C1234.44 1767.3 1230.35 1773.78 1230.08 1778.24C1229.81 1782.71 1235.68 1771.35 1236.44 1770.64C1237.21 1769.91 1232.88 1776.11 1233.86 1780.67C1234.85 1785.23 1237.93 1774.7 1236.41 1776.67C1234.88 1778.64 1234.36 1783.36 1236.63 1781.96C1238.9 1780.57 1239.43 1776.94 1244.19 1776.83C1248.94 1776.71 1248.64 1786.65 1255.39 1786.43C1262.11 1786.21 1260.38 1785.8 1263.6 1786.08C1266.82 1786.35 1267.55 1789.29 1263.34 1788.93C1259.12 1788.58 1262.9 1776.37 1263.4 1775.36C1263.9 1774.36 1265.87 1775.58 1268.35 1776.32C1270.82 1777.06 1268.84 1779.5 1268.82 1783.14C1268.81 1786.79 1270.52 1791.36 1275.95 1791.3C1281.36 1791.23 1308.58 1796.08 1319.41 1790.29C1330.14 1784.55 1331.04 1776.94 1326.75 1766.06C1322.44 1755.16 1274.18 1728.11 1267.55 1724.84C1260.89 1721.56 1263.04 1739.16 1264.52 1742.43C1267.35 1745.35 1267.94 1727.58 1262.85 1724.88C1259.65 1721.7 1235.73 1716.59 1231.73 1712.77C1227.71 1708.94 1236.24 1714.03 1237.68 1724.89C1239.12 1735.74 1232.81 1740.1 1232.05 1741.86C1231.29 1743.63 1227.28 1736.42 1225.52 1735.98C1223.75 1735.54 1225.52 1735.98 1227.83 1730.96C1230.13 1725.95 1229.69 1717 1227.45 1711.53C1225.21 1706.05 1228.32 1693.84 1226.6 1684.78C1224.89 1675.7 1222.13 1674.34 1209.96 1672.13C1197.72 1669.9 1191.98 1678.45 1184.74 1681.05C1177.46 1683.66 1185.28 1679 1185.28 1679C1185.28 1679 1180.35 1679.49 1179.33 1678.04C1178.31 1676.62 1181.2 1674.3 1179.91 1672.82C1178.62 1671.36 1179.94 1669.39 1184.35 1667.54C1188.74 1665.68 1200.91 1656.36 1208.54 1658.08C1216.14 1659.78 1215.85 1664.71 1215.83 1667.84C1215.82 1670.97 1213.56 1666.52 1219.4 1665.65C1225.21 1664.78 1233.46 1674.86 1233.12 1688.62C1232.8 1702.41 1225.2 1707.07 1224.69 1707.8C1224.18 1708.53 1228.03 1699.52 1226.03 1696.17C1224.03 1692.82 1220.7 1699.25 1220.7 1699.25C1220.7 1699.25 1219.99 1692.62 1218.24 1689.28C1216.5 1685.95 1213.44 1686.39 1208.88 1683.25C1204.3 1680.1 1206.64 1675.39 1207.42 1673.39C1208.2 1671.38 1207.13 1678.33 1200.47 1680.19C1193.78 1682.06 1185.05 1678.15 1183.93 1686.75C1182.81 1695.36 1190.54 1728.24 1198.79 1728.28C1207 1728.31 1216.48 1721.1 1221.07 1718.16C1225.64 1715.23 1215.88 1732.89 1207.71 1734.45C1199.48 1736.03 1193.29 1736.75 1194.09 1733.91C1194.88 1731.07 1221.24 1728.96 1224.52 1731.64C1227.79 1734.33 1197.12 1739.52 1195.07 1739.31C1193 1739.13 1193.04 1736.2 1190.71 1735.18C1188.4 1734.16 1168.02 1740.98 1172.19 1742.19C1176.36 1743.39 1178.19 1742.24 1179.28 1738.6C1180.35 1734.98 1177.73 1736.32 1177.73 1736.32C1177.73 1736.32 1181.94 1731.66 1191.83 1727.07C1201.65 1722.51 1213.12 1727.63 1215.41 1728.12C1217.68 1728.62 1226.76 1736.35 1227.98 1744.62C1229.18 1752.88 1220.01 1760.47 1207.47 1764.09C1194.83 1767.74 1195.1 1764.58 1192.8 1763.31C1190.47 1762.03 1197.94 1765.64 1198.72 1765.43C1199.5 1765.24 1198.01 1757.13 1194.17 1753.6C1190.32 1750.04 1182.5 1753.31 1177.77 1758.22C1173.02 1763.14 1174.55 1766.49 1176.87 1770.18C1179.18 1773.87 1175.09 1764.67 1173.53 1763.46C1171.97 1762.25 1160.57 1771.72 1152.36 1772.64C1144.1 1773.56 1141.49 1768.73 1140.98 1767.07C1140.47 1765.4 1167.1 1750.3 1169.76 1746.8C1172.43 1743.29 1166.39 1743.53 1164.55 1743.09C1162.72 1742.65 1098.93 1779.04 1099.44 1781.28C1099.95 1783.53 1103.9 1775.07 1098.66 1778.2C1093.4 1781.35 1093.33 1786.57 1089.67 1791.79C1086 1797.03 1081.02 1797.76 1083.46 1800.43C1085.9 1803.1 1086.34 1792.08 1079.69 1792.95C1073.01 1793.81 1078.37 1806.41 1085.29 1806.65C1092.18 1806.89 1094.57 1793.85 1098.47 1790.29C1102.35 1786.76 1099.64 1784.07 1097.49 1781.98C1095.33 1779.89 1099.35 1786.81 1101.54 1786.43C1103.73 1786.06 1134.26 1768.7 1138.82 1768.27C1143.37 1767.85 1143.01 1776.21 1149.9 1778.68C1156.77 1781.15 1167.64 1775.86 1173.7 1773.7C1179.74 1771.54 1172.68 1771.2 1171.09 1773.48C1169.49 1775.75 1167.29 1785.52 1163.79 1792.78C1160.28 1800.05 1159.45 1804.05 1162.57 1808.88C1165.69 1813.71 1158.7 1798.85 1154.79 1793.95C1150.87 1789.03 1145.41 1778.58 1142.78 1774.56C1140.16 1770.55 1133.45 1772.69 1127.51 1774.36C1121.56 1776.03 1121.88 1772.51 1120.01 1770.18C1118.15 1767.83 1116.98 1775.36 1118.84 1777.17C1120.71 1778.95 1116.45 1773.42 1113.24 1770.14C1110.02 1766.86 1113.43 1776.16 1116.11 1778.85C1118.79 1781.52 1114.28 1774.87 1110.77 1772.93C1107.26 1770.99 1111.43 1783.92 1110.34 1783.83C1109.26 1783.75 1108.77 1780.41 1106.07 1778C1103.37 1775.58 1104.08 1783.05 1106.2 1787.34C1108.32 1791.62 1118.16 1787.22 1127.39 1784.14C1136.57 1781.08 1133.02 1785.68 1134.6 1788.52C1136.16 1791.36 1132.95 1790.57 1132.46 1787.27C1131.97 1783.95 1142.44 1781.55 1143.78 1781.67C1145.12 1781.77 1146.39 1786.21 1146.63 1788.95C1146.86 1791.67 1137.52 1792.28 1137.48 1794.46C1137.47 1796.62 1151.07 1826.09 1164.84 1825.36C1178.5 1824.64 1193.49 1781.25 1191.46 1766.67C1189.44 1752.1 1188.18 1771.93 1188.64 1780.84C1189.12 1789.77 1188.46 1803.61 1182.91 1818.25C1177.34 1832.96 1169.53 1857.56 1167.35 1855.74C1165.18 1853.91 1173.89 1857.85 1181.45 1862.27C1189 1866.66 1192.22 1866.87 1205.06 1872.7C1217.82 1878.48 1195.9 1878.82 1191.07 1877.41C1186.22 1876 1192.24 1866.87 1192.24 1866.87C1192.24 1866.87 1207.23 1871.15 1223.16 1872.15C1238.95 1873.14 1241.58 1869.47 1242.07 1874.99C1242.57 1880.54 1228.93 1878.06 1217.29 1878.45C1205.57 1878.84 1199.16 1876.22 1181.4 1870.1C1163.45 1863.91 1166.74 1863.55 1167.32 1860.78C1167.9 1858.01 1165.1 1864.01 1161.72 1873.38C1158.33 1882.77 1122.15 1951.96 1121.93 1969.9C1121.71 1987.87 1132.84 2097.59 1127.64 2103.52C1122.44 2109.47 1102.35 2106.79 1102.23 2115.09C1102.13 2123.4 1147.86 2118.49 1150.12 2117.86C1152.38 2117.23 1153.11 2102.64 1152.56 2100.31C1152.02 2097.98 1136.19 2102.25 1131.09 2101.72C1125.97 2101.19 1127.17 2095.89 1127.17 2095.89C1127.17 2095.89 1136.84 2094.63 1141.95 2092.83C1147.05 2091.04 1149.8 2095.67 1153.73 2095.63C1157.65 2095.6 1154.23 1998.36 1154.26 1994.91C1154.29 1991.46 1154.31 1990.3 1154.34 1987.43C1154.38 1984.56 1154.95 1982.28 1154.95 1982.28C1154.95 1982.28 1154.95 1982.28 1153.89 1978.23C1152.82 1974.18 1153.89 1978.23 1156.68 1977.16C1159.47 1976.09 1189.56 1934.03 1193.97 1922.98C1198.38 1911.98 1188.1 1913.15 1185.98 1908.54C1183.84 1903.94 1190.29 1909.89 1194.6 1911.79C1198.91 1913.7 1193.56 1907.81 1192 1899.89C1190.44 1891.95 1197.38 1900.72 1199.99 1911.5C1202.6 1922.27 1188.69 1970.6 1190.73 1987.12C1192.76 2003.67 1245.99 2080.58 1251.78 2087.89C1257.54 2095.19 1257.02 2093.51 1266.48 2092.28C1275.88 2091.06 1280.04 2093.83 1280.04 2093.83C1280.04 2093.83 1278.46 2098.34 1271.67 2100.67C1264.87 2103.01 1255.95 2097.47 1255.95 2097.47C1255.95 2097.47 1230.91 2110.27 1233.03 2113.66C1235.15 2117.04 1272.16 2113.04 1280.51 2111.79C1288.81 2110.53 1289.51 2100.82 1289 2097.47C1288.49 2094.12 1291.96 2109 1293.5 2111.79C1295.04 2114.56 1229.01 2210.87 1153.73 2215.87" stroke="#543F3A" stroke-width="2" stroke-linecap="round" stroke-linejoin="round"/>
</g>
<g id="Vector-4" clip-path="url(#clip2_0_1)">
<path id="Vector_3" d="M443.599 1354.35L443.149 1406.51C443.149 1406.51 421.553 1406.25 421.764 1402.77C421.957 1399.59 426.546 1399.9 426.701 1403.14C426.905 1407.41 419.889 1408.34 418.234 1404.04C416.898 1400.57 420.815 1385.12 421.06 1383.32C422.579 1372.18 421.696 1369.14 418.845 1369.77C416.341 1370.33 415.599 1378.2 423.959 1383.77C432.319 1389.35 427.188 1397.63 421.978 1397.81C416.767 1397.99 414.083 1392.17 417.467 1389.02C419.988 1386.67 424.961 1389.42 423.894 1392.9C422.848 1396.31 417.982 1398.5 413.013 1393.91C411.031 1392.08 408.065 1387.52 404.916 1385.72L406.783 1423.61H455V1429.46H261.432V1438.48H448.546V1525.07H406.333V1512.89L405.816 1489.89C406.716 1490.48 410.582 1493.53 412.563 1495.37C417.532 1499.96 422.398 1497.77 423.444 1494.36C424.511 1490.88 419.538 1488.13 417.018 1490.48C413.633 1493.63 416.317 1499.45 421.528 1499.27C426.739 1499.09 431.869 1490.81 423.509 1485.23C415.149 1479.65 415.891 1471.79 418.396 1471.23C421.246 1470.6 422.129 1473.64 420.61 1484.78C420.365 1486.58 416.448 1502.03 417.784 1505.5C419.439 1509.8 426.456 1508.86 426.251 1504.6C426.096 1501.36 421.507 1501.05 421.314 1504.23C421.104 1507.71 443.599 1513.8 443.599 1513.8L443.149 1455.81C443.149 1455.81 393.211 1457.9 393.222 1455.62C393.226 1454.68 393.222 1526.87 393.222 1526.87L340.086 1527.77C340.086 1527.77 340.097 1516.53 340.086 1515.6C340.078 1515.01 340.07 1514.41 340.062 1513.8C339.897 1502 339.556 1487.28 339.904 1487.33C342.465 1487.75 344.722 1494.58 346.555 1496.27C351.524 1500.86 356.39 1498.68 357.436 1495.26C358.503 1491.78 353.53 1489.03 351.009 1491.38C347.625 1494.54 350.309 1500.35 355.52 1500.17C360.73 1500 365.861 1491.71 357.501 1486.13C349.141 1480.56 349.883 1472.69 352.387 1472.14C355.238 1471.51 356.121 1474.54 354.602 1485.68C354.357 1487.48 350.44 1502.93 351.776 1506.4C353.431 1510.7 360.448 1509.77 360.243 1505.5C360.088 1502.27 355.499 1501.95 355.306 1505.14C354.768 1514.02 377.029 1515.6 377.029 1515.6V1457.87C377.029 1457.87 332.346 1455.55 329.351 1455.62V1524.75C325.897 1524.81 322.261 1524.87 318.556 1524.93C294.801 1525.29 268.185 1525.34 268.179 1523.72C268.149 1515.19 267.557 1489.63 268.179 1489.89C269.984 1490.65 273.84 1496.27 275.376 1497.69C280.345 1502.28 289.302 1501.11 290.348 1497.69C291.415 1494.21 286.443 1491.46 283.922 1493.81C280.537 1496.97 283.222 1502.78 288.432 1502.61C293.643 1502.43 298.773 1494.14 290.413 1488.56C282.053 1482.99 282.795 1475.12 285.3 1474.57C288.15 1473.94 289.033 1476.97 287.514 1488.11C287.269 1489.91 283.352 1505.36 284.689 1508.83C286.344 1513.13 293.36 1512.2 293.155 1507.93C293.001 1504.7 288.411 1504.39 288.219 1507.57C288.008 1511.04 311.809 1515.6 311.809 1515.6V1455.81H261.432V1533.64H454.394V1548C401.768 1549.8 257.903 1548 257.903 1548C257.903 1548 256.483 1591.61 257.903 1611C257.903 1611 441.965 1574 438.052 1630.88C437.153 1643.95 394.94 1641.7 383.177 1641.23C372.038 1640.78 352.665 1639.61 344.495 1625.46C339.547 1616.89 343.139 1606.78 354.391 1606.52C370.427 1606.16 373.064 1618.18 369.234 1625.46C363.515 1636.34 335.198 1646.39 317.656 1646.39C317.656 1646.39 277.456 1651.03 264.741 1648.62C252.025 1646.2 248.3 1642.52 245.951 1635.44C243.6 1628.36 242.624 1617.89 243.451 1590.68C245.951 1570.93 246.861 1221.23 246.861 1205.73C249.981 1200.72 254.759 1196.77 262.021 1194.72C269.283 1192.67 279.031 1192.53 285.78 1192.51C292.529 1192.48 296.28 1192.57 298.25 1193.9C300.221 1195.23 300.413 1197.8 301.188 1200.65C301.964 1203.51 303.324 1206.63 306.829 1208.29C310.334 1209.95 315.983 1210.14 331.376 1210.78C346.768 1211.43 371.905 1212.53 386.488 1212.54C401.071 1212.54 405.101 1211.44 408.073 1209.74C411.047 1208.05 412.963 1205.75 414.518 1203.07C416.072 1200.4 417.266 1197.35 425.223 1196.6C433.18 1195.84 447.901 1197.38 457.46 1200.31C467.019 1203.25 471.419 1207.57 472.934 1215.01C472.934 1215.01 471.662 1607.67 471.369 1625.46C468.733 1638.91 462.155 1639.52 458.855 1641.23C455.555 1642.93 451.768 1644.59 449.634 1646.39C447.498 1648.19 447.016 1650.12 446.836 1652C446.657 1653.87 446.779 1655.68 415.524 1654.52C384.268 1653.37 321.057 1658 290.348 1658C290.348 1658 245.353 1658.52 240.5 1653C235.647 1647.48 233.508 1637.15 232.5 1625.24C232.5 1581.93 233.352 1207.59 233.352 1207.59C237.076 1193.6 243.096 1186.71 272.93 1183.84C302.764 1180.96 356.413 1182.09 391.217 1183.02C426.021 1183.96 441.981 1184.69 454.23 1186.64C466.481 1188.6 476.504 1191.76 482 1198C487.918 1256.85 485.362 1583.29 485.362 1627.05C482.606 1639.15 478.351 1645.06 473.067 1649.07C467.782 1653.07 461.47 1655.17 457.403 1656.71C453.336 1658.26 447.351 1667.1 448.546 1670C448.546 1675.51 513.32 1701.26 536.5 1675.81C568 1641.23 606.161 1684.18 646 1697M443.599 1354.35C443.599 1354.35 393.661 1356.45 393.672 1354.16C393.676 1353.22 393.672 1418.64 393.672 1418.64H339.904L339.696 1392.94C342.732 1393.08 344.462 1392.53 346.443 1394.36C351.412 1398.95 356.278 1396.76 357.324 1393.35C358.391 1389.87 353.418 1387.12 350.898 1389.47C347.513 1392.62 350.198 1398.44 355.408 1398.26C360.619 1398.09 365.749 1389.8 357.389 1384.22C349.029 1378.65 349.772 1370.78 352.276 1370.23C355.126 1369.59 356.009 1372.63 354.49 1383.77C354.245 1385.57 350.328 1401.02 351.665 1404.49C353.32 1408.79 360.336 1407.86 360.131 1403.59C359.977 1400.36 355.387 1400.05 355.195 1403.23C354.984 1406.7 376.579 1406.96 376.579 1406.96L377.029 1354.8L327.102 1354.61C327.102 1377.85 327.102 1396.3 327.102 1419.54L280.773 1419.99V1392.95C283.809 1393.08 285.539 1392.53 287.52 1394.36C292.489 1398.95 297.355 1396.77 298.401 1393.35C299.468 1389.87 294.495 1387.12 291.975 1389.47C288.59 1392.62 291.274 1398.44 296.485 1398.26C301.696 1398.09 306.826 1389.8 298.466 1384.22C290.106 1378.65 290.848 1370.78 293.353 1370.23C296.203 1369.59 297.086 1372.63 295.567 1383.77C295.322 1385.57 291.405 1401.02 292.742 1404.49C294.397 1408.79 301.413 1407.86 301.208 1403.59C301.053 1400.36 296.464 1400.05 296.271 1403.23C296.061 1406.7 317.656 1406.96 317.656 1406.96L318.106 1354.8H274.926V1420.5H268.179V1354.61C268.181 1354.13 268.18 1345.01 268.179 1339.27L454.394 1338.82C454.393 1337.46 454.394 1331.71 454.394 1330.7L268.179 1331.6V1245.2H318.556V1304.99C318.556 1304.99 294.755 1300.44 294.965 1296.96C295.158 1293.78 299.747 1294.09 299.902 1297.33C300.107 1301.59 293.09 1302.53 291.435 1298.23C290.099 1294.76 294.016 1279.3 294.261 1277.5C295.78 1266.37 294.897 1263.33 292.047 1263.96C289.542 1264.52 288.8 1272.38 297.16 1277.96C305.52 1283.53 300.39 1291.82 295.179 1292C289.969 1292.18 287.284 1286.36 290.669 1283.21C293.189 1280.85 298.162 1283.61 297.095 1287.09C296.049 1290.5 287.092 1291.68 282.123 1287.09C280.587 1285.67 276.731 1280.04 274.926 1279.29C274.304 1279.03 274.896 1304.59 274.926 1313.11C274.932 1314.73 301.547 1314.68 325.303 1314.33C329.008 1314.27 332.644 1314.21 336.098 1314.14V1245.01C339.092 1244.94 383.776 1247.27 383.776 1247.27V1304.99C383.776 1304.99 361.515 1303.41 362.053 1294.53C362.246 1291.35 366.835 1291.66 366.99 1294.9C367.194 1299.16 360.178 1300.1 358.523 1295.8C357.186 1292.33 361.104 1276.87 361.349 1275.07C362.867 1263.93 361.984 1260.9 359.134 1261.53C356.63 1262.09 355.887 1269.95 364.248 1275.53C372.608 1281.11 367.477 1289.39 362.267 1289.57C357.056 1289.75 354.372 1283.93 357.756 1280.78C360.277 1278.43 365.25 1281.18 364.183 1284.65C363.137 1288.07 358.271 1290.26 353.302 1285.66C351.469 1283.97 349.212 1277.14 346.651 1276.73C346.303 1276.67 346.643 1291.4 346.808 1303.19C346.817 1303.8 346.825 1304.4 346.833 1304.99C346.844 1305.92 346.833 1317.17 346.833 1317.17L399.969 1316.27C399.969 1316.27 399.973 1244.07 399.969 1245.01C399.958 1247.3 449.896 1245.2 449.896 1245.2L450.345 1303.19C450.345 1303.19 427.851 1297.1 428.061 1293.63C428.254 1290.45 432.843 1290.76 432.998 1293.99C433.202 1298.26 426.186 1299.2 424.531 1294.9C423.195 1291.42 427.112 1275.97 427.357 1274.17C428.876 1263.03 427.993 1260 425.142 1260.63C422.638 1261.19 421.896 1269.05 430.256 1274.63C438.616 1280.2 433.485 1288.49 428.275 1288.67C423.064 1288.85 420.38 1283.03 423.764 1279.87C426.285 1277.52 431.258 1280.27 430.191 1283.75C429.145 1287.17 424.279 1289.35 419.31 1284.76C417.328 1282.93 413.462 1279.87 412.563 1279.29L413.08 1302.29V1314.46C413.08 1314.46 466.393 1315.85 500.5 1314.36C631.68 1308.62 744.5 1176.92 829.5 1245.01C914.5 1313.11 1223.33 1240.37 1269 1141.5M443.599 1354.35C443.599 1354.35 443.625 1406.92 443.599 1406.92" stroke="#543F3A" stroke-width="2" stroke-linecap="round" stroke-linejoin="round"/>
</g>
<g id="Vector_4" clip-path="url(#clip3_0_1)">
<path id="Vector_5" d="M683.5 619.5C806.873 612.995 637.999 1060.43 730.049 1083.89C763.569 1092.43 815.547 1091.06 818.621 1084.75C821.68 1078.44 811.041 1066.35 818.621 1054.63C826.2 1042.91 809.609 1023.98 818.621 1001.44C827.632 978.908 854.515 947.168 856.324 949.879C858.132 952.591 850.552 966.103 854.877 967.64C859.202 969.176 858.75 950.542 863.979 949.714C869.208 948.885 879.394 952.124 879.937 954.655C880.479 957.185 879.892 1091.93 880.841 1096.23C881.79 1100.52 886.115 1099.03 886.793 1098.35C887.471 1097.67 887.2 947.831 885.844 944.727C884.488 941.624 802.783 942.016 800.749 941.082C798.714 940.133 798.579 934.047 799.393 933.64C800.206 933.234 880.826 937.15 882.725 935.81C884.623 934.454 878.852 884.246 877.225 879.199C875.597 874.153 822.93 805.627 820.761 804.377C818.591 803.111 814.989 806.184 814.989 808.519C814.989 810.869 870.187 882.453 873.246 883.703C876.305 884.969 879.605 877.256 876.893 864C874.181 850.743 866.209 828.027 867.294 826.4C868.379 824.773 878.385 823.689 879.47 824.502C880.555 825.316 890.696 881.158 893.409 882.242C896.121 883.327 921.95 813.279 922.763 810.839C923.577 808.399 919.117 806.787 918.303 807.992C917.489 809.212 893.951 871.035 892.866 874.801C891.781 878.552 900.175 934.846 900.446 941.338C900.717 947.831 890.847 948.78 890.576 945.39C890.304 942.016 993.528 945.526 994.869 946.204C996.225 946.882 997.31 950.934 997.175 952.29C997.039 953.645 904.243 949.578 903.972 948.373C903.701 947.153 903.565 940.389 904.922 939.711C906.278 939.033 988.254 942.558 989.339 941.338C990.424 940.118 977.524 834.821 973.923 829.594C970.321 824.366 794.992 831.221 791.391 831.944C787.789 832.667 809.624 928.639 812.066 930.522C814.507 932.405 819.103 932.149 818.696 930.658C818.289 929.166 770.837 808.504 771.907 806.516C772.991 804.527 842.43 791.557 846.936 793.711C851.441 795.865 861.462 822.649 861.01 824.005C860.558 825.361 850.371 826.716 850.733 824.095C851.095 821.474 875.446 821.926 875.627 819.41C875.808 816.895 869.675 798.231 870.85 797.869C872.026 797.507 971.632 797.598 973.531 800.445C975.43 803.292 978.127 822.077 974.481 823.568C970.834 825.059 972.13 771.01 970.698 768.75C969.252 766.491 962.214 777.231 945.442 773.616C928.67 770.016 919.373 742.419 921.633 722.956C923.894 703.478 944.357 690.764 952.118 689.875C959.879 688.987 972.416 702.047 979.89 710.438C987.38 718.828 985.391 763.629 965.454 773.631C945.518 783.634 928.655 769.458 925.853 764.322C923.05 759.185 925.039 756.473 925.672 758.281C926.305 760.089 929.454 792.356 927.299 793.079C925.129 793.802 919.991 781.088 916.841 783.98C913.692 786.872 911.431 794.344 908.176 791.919C904.937 789.478 895.187 781.645 880.495 781.826C865.787 782.007 851.547 800.4 856.504 800.038C861.462 799.677 868.59 783.814 886.628 775.966C904.665 768.118 903.58 761.806 903.942 754.515C904.304 747.209 903.038 688.429 925.581 670.036C948.125 651.643 980.056 665.532 988.344 690.598C996.647 715.665 992.307 761.505 996.376 787.068C1000.43 812.632 1014.64 800.596 1013.55 806.139C1012.47 811.683 999.616 805.868 999.345 810.462C999.073 815.057 1004.75 836.839 1000.84 837.367C996.918 837.894 990.831 819.923 988.389 826.008C985.948 832.094 983.929 846.435 982.03 839.671C980.131 832.908 977.705 788.695 977.434 781.118C977.163 773.541 983.929 823.041 990.288 818.582C996.647 814.123 990.228 804.121 1001.79 804.467C1013.34 804.813 1026.54 813.174 1029.24 832.094C1031.95 851.03 1031.28 900.123 1024.51 934.74C1017.74 969.357 999.525 987.931 997.371 985.942C995.201 983.954 989.203 965.697 975.686 967.052C962.154 968.408 959.185 968.815 961.883 961.373C964.595 953.932 971.211 955.423 970.939 958.27C970.668 961.117 962.681 974.901 955.795 974.765C948.893 974.629 888.556 958.27 893.559 956.101C898.562 953.932 959.984 972.189 957.272 976.527C954.559 980.851 944.96 990.868 949.692 990.868C954.424 990.868 959.969 982.749 969.719 988.835C979.468 994.921 972.296 1003.04 952.811 1011.28C933.327 1019.52 904.379 1016.28 896.935 1014.13C889.491 1011.96 891.209 1003.63 893.017 1003.08C894.825 1002.54 897.523 1012.37 911.688 1011.66C925.853 1010.93 934.683 1004.17 932.513 1003.9C930.343 1003.63 917.459 1009.4 910.964 1007.86C904.469 1006.32 904.017 1001.46 913.496 1000.01C922.959 998.566 930.177 993.429 936.763 994.423C943.348 995.418 941.992 998.928 947.492 997.406C952.992 995.87 957.588 989.648 965.258 990.1C972.928 990.552 981.488 1002.18 979.966 1006.96C978.444 1011.73 967.157 1008.49 969.508 1007.59C971.859 1006.69 988.902 1013.27 992.865 1007.5C996.828 1001.73 999.993 991.094 996.376 991.185C992.774 991.275 991.418 1003.08 993.754 1022.56C996.105 1042.04 1003.31 1056.46 998.26 1065.66C993.211 1074.87 968.86 1100.1 977.509 1099.92C986.174 1099.74 990.318 1077.92 1008.36 1066.02C1026.39 1054.12 1036.85 1048.71 1035.06 1051.06C1033.27 1053.41 994.839 1078.46 991.946 1090.37C989.052 1102.27 1013.77 1086.04 1026.57 1096.32C1039.38 1106.59 1052.37 1105.87 1061.2 1101.36C1070.05 1096.86 1132.99 1046 1125.95 1045.64C1118.92 1045.28 1093.48 1071.25 1084.47 1090.53C1075.46 1109.83 1087.53 1113.61 1094.57 1113.97C1101.6 1114.33 1134.24 1094.86 1139.29 1100.26C1144.34 1105.67 1143.07 1114.69 1154.98 1109.81C1166.88 1104.95 1213.96 1088 1215.77 1081.15C1217.58 1074.29 1172.47 1032.64 1137.17 1036.17C1101.86 1039.68 1101.32 1024.27 1085.36 1024.4C1069.4 1024.54 1056.55 1035.22 1059.65 1035.49C1062.76 1035.76 1081.43 1030.89 1090.63 1016.69C1099.82 1002.48 1105.39 958.134 1108.63 960.56C1111.87 963 1101.86 998.43 1105.64 1005.72C1109.42 1013.03 1162.32 1004.77 1194.79 1023.98C1227.26 1043.19 1238.08 1062.53 1234.29 1061.98C1230.5 1061.44 1206.83 1046.85 1209.26 1053.87C1211.7 1060.9 1230.35 1067.26 1232.12 1073.07C1233.88 1078.89 1227.25 1089.16 1223.86 1083.89C1220.48 1078.62 1251.72 1072.12 1254.16 1044C1256.6 1015.87 1245.11 1002.35 1249.97 974.223C1254.84 946.098 1254.84 885.376 1250.11 859.812C1245.38 834.248 1223.45 829.925 1209.66 854.54C1195.88 879.154 1198.57 924.858 1201.41 933.655C1204.25 942.453 1219.13 944.607 1217.23 939.741C1215.33 934.876 1175.83 928.654 1161.35 921.348C1146.87 914.042 1139.58 923.653 1135.51 937.301C1131.46 950.964 1128.34 955.83 1126.98 955.83C1125.62 955.83 1113.45 951.1 1114.26 947.168C1115.07 943.251 1133.11 909.297 1135.99 910.111C1138.88 910.924 1143.93 916.513 1141.67 918.32C1139.41 920.128 1117.59 898.481 1111.37 899.746C1105.15 901.012 1117.14 909.478 1112.36 911.466C1107.59 913.455 1099.92 914.976 1096.59 918.953C1093.25 922.93 1050.96 1013.03 1050.14 1019.66C1049.33 1026.28 1052.85 1033.45 1056.64 1038.52C1060.42 1043.59 1052.24 1053.4 1031.34 1044.2C1010.43 1035.01 995.683 1017.35 1005.22 1012.95C1014.76 1008.55 1048.44 1023.63 1047.63 1030.67C1046.81 1037.7 1024.63 1014.31 1012.18 1017.68C999.736 1021.06 1030.64 1043.25 1041.81 1040.26C1052.98 1037.28 1020.1 1025.65 1017.94 1020.73C1015.77 1015.78 1028.89 1016.27 1044.85 990.703C1060.81 965.139 1082.89 924.451 1082.98 920.113C1083.07 915.79 1072.31 914.419 1072.49 911.722C1072.67 909.011 1076.27 905.591 1077.45 905.591C1078.62 905.591 1088.27 913.53 1088.81 908.92C1089.35 904.326 1079.08 903.332 1079.8 899.37C1080.52 895.408 1082.33 893.781 1084.12 893.781C1085.93 893.781 1093.41 900.816 1096.12 898.647C1098.83 896.478 1089.56 890.422 1086.11 889.337C1082.66 888.253 1077.27 895.092 1073.67 899.822C1070.06 904.552 1068.12 913.078 1069.57 915.82C1071.01 918.576 1080.66 918.034 1078.67 922.674C1076.68 927.314 1067.44 930.854 1063.92 928.022C1060.39 925.19 1068.99 923.834 1067.37 918.893C1065.74 913.952 1057.36 910.442 1058.37 912.671C1059.38 914.901 1062.09 905.847 1066.15 904.627C1070.2 903.407 1069.39 899.355 1067.77 897.05C1066.15 894.745 1058.1 896.447 1059.32 897.517C1060.54 898.587 1077.31 893.736 1077.04 891.371C1076.77 889.006 1066.49 884.411 1066.82 887.319C1067.16 890.226 1081.5 889.413 1081.37 885.285C1081.23 881.158 1072.64 880.073 1068.32 881.158C1063.99 882.242 1055.81 893.932 1053.91 902.789C1052.01 911.647 1056.35 932.405 1063.86 933.625C1071.36 934.846 1069.54 931.26 1067.17 931.998C1064.8 932.737 1038.9 979.058 1039.17 981.499C1039.44 983.939 1049.27 990.16 1051.76 986.635C1062.85 970.954 1114.52 871.004 1120.61 860.731C1126.69 850.457 1137.78 846.254 1144.28 858.968C1150.77 871.682 1133.91 904.853 1131.65 906.57C1129.39 908.288 1126.33 905.305 1127.24 903.422C1128.14 901.524 1141.9 872.089 1140.23 862.222C1138.55 852.355 1130.31 857.357 1126.78 861.951C1123.27 866.546 1091.07 931.547 1092.79 932.179C1094.51 932.812 1101.71 929.558 1099.92 928.037C1098.11 926.5 1089.19 939.124 1090.36 939.847C1091.54 940.57 1099.37 938.853 1097.49 938.039C1095.61 937.226 1086.4 942.995 1087.94 946.61C1089.47 950.211 1104.16 946.52 1101.02 945.074C1097.87 943.628 1098.3 951.024 1091.28 951.928C1084.24 952.832 1083.52 956.613 1088.75 958.149C1093.98 959.686 1101.47 956.523 1101.65 958.511C1101.83 960.499 1086.14 1001.38 1082.35 1002.87C1078.56 1004.37 1072.47 998.687 1074.49 994.89C1076.53 991.109 1092.22 963.783 1092.76 964.326C1093.3 964.868 1077.81 998.882 1069.76 1005.16C1061.72 1011.45 1070.98 1018.75 1061.17 1016.73C1051.36 1014.7 1063.48 1003.15 1068.08 995.101C1072.67 987.057 1085.66 963.663 1089.04 961.976C1092.41 960.289 1098.85 959.882 1106.95 950.497C1115.08 941.127 1120.12 946.354 1126.35 950.045C1132.57 953.736 1214.27 1005.04 1233.94 989.166C1253.61 973.304 1247.29 868.715 1242.6 847.987C1237.92 827.244 1204 819.862 1198.77 820.405C1193.54 820.947 1179.06 843.98 1156.33 846.827C1133.61 849.674 1133.75 841.012 1135.84 840.334C1137.94 839.656 1146.25 841.344 1157.28 834.52C1168.31 827.696 1175.34 817.482 1172.16 818.025C1168.98 818.567 1158.02 834.053 1143.89 835.815C1129.75 837.578 1131.3 833.586 1132.31 831.01C1133.32 828.434 1135.16 826.475 1135.55 828.569C1135.96 830.663 1101.6 888.012 1098.21 889.895C1094.84 891.793 1089.68 888.479 1090.44 886.852C1091.19 885.225 1127.16 827.018 1128.46 821.866C1129.74 816.729 1130.26 817.558 1131.97 818.1C1133.69 818.642 1138.42 824.005 1134.36 824.683C1130.31 825.361 1116.88 818.085 1115.14 807.465C1113.37 796.845 1110.27 791.301 1108.31 787.445C1106.35 783.588 1102.63 769.127 1104.66 768.78C1106.7 768.449 1108.85 780.35 1112.51 775.68C1116.16 771.01 1136.19 749.845 1138.15 754.184C1140.1 758.507 1138.89 766.491 1143.5 765.542C1148.09 764.593 1154.45 761.083 1158.99 765.677C1163.52 770.272 1168.45 788.469 1170.56 785.291C1172.65 782.112 1172.11 761.685 1180.57 762.499C1189.02 763.312 1189.89 777.578 1190.84 774.128C1191.79 770.679 1195.71 726.903 1166.22 716.629C1136.73 706.355 1119.42 720.5 1113.92 725.818C1108.42 731.136 1122.93 722.399 1121.86 725.276C1120.77 728.168 1104 736.724 1098.5 745.928C1093 755.117 1096.6 772.622 1098.68 771.176C1100.76 769.73 1100.94 754.229 1104.54 755.856C1108.14 757.482 1108.23 770.995 1112.03 766.31C1115.81 761.625 1120.95 739.27 1127.72 736.739C1134.48 734.209 1125.82 751.788 1132.13 748.64C1138.45 745.492 1146.03 733.772 1152.96 733.501C1159.91 733.229 1147.01 759.2 1156.29 756.398C1165.57 753.596 1175.05 742.87 1179.74 745.672C1184.42 748.474 1167.56 761.173 1172.97 761.083C1178.38 760.992 1184.97 754.229 1188.02 761.806C1191.08 769.383 1188.11 791.015 1182.43 794.359C1176.75 797.703 1174.04 790.232 1176.29 790.578C1178.52 790.909 1181.5 807.284 1189.47 814.515C1197.46 821.745 1178.38 837.035 1160.31 838.918C1142.26 840.816 1151.5 860.083 1179.81 844.221C1208.13 828.358 1208.51 825.11 1242.6 832.094C1268.34 837.367 1253.36 926.423 1258.34 986.635C1263.4 1047.84 1288.35 1105.97 1268.34 1143" stroke="#543F3A" stroke-width="2" stroke-miterlimit="10"/>
</g>
<g id="Vector-1" clip-path="url(#clip4_0_1)">
<path id="Vector_6" d="M685 619.5C603.5 619.5 330.28 689.897 278.107 622.51C274.989 619.105 212.67 184.468 212.045 174.8C211.404 165.135 217.632 160.385 228.724 159.959C239.816 159.534 489.437 168.455 499.096 169.346C508.751 170.22 516.318 180.66 519.344 192.457C522.348 204.226 622.835 570.217 624.173 584.143C625.511 598.069 614.876 604.425 600.409 605.643C585.943 606.862 307.051 622.795 300.502 622.51C293.965 622.207 287.445 616.458 285.246 606.71C283.046 596.961 215.835 185.5 216.207 174.525C216.579 163.549 229.461 163.856 231.001 164.72C232.526 165.588 299.254 592.372 302.668 595.797C303.168 596.3 316.132 595.722 336.228 594.515C442.053 586.809 341.357 593.929 544.009 580.272C544.009 580.272 593.362 578.255 596.012 577.708C601.616 576.553 599.792 569.496 598.429 563.105C597.066 556.714 501.701 195.431 500.369 190.135C499.021 184.843 494.829 184.185 485.911 184.372C477.59 184.547 280.115 179.356 253.059 178.66C251.599 178.622 250.708 180.084 251.455 181.338C282.038 232.636 473.164 215.208 473.164 215.208L477.452 231.555C348.646 228.116 288.104 247.018 288.104 247.018L289.385 255.025C392.833 233.538 480.191 240.84 480.191 240.84L484.583 259.064C415.992 252.016 343.156 259.077 294.446 267.427C294.446 267.427 305.786 263.07 305.593 259.215C305.416 255.687 299.506 254.716 299.234 258.205C298.875 262.805 307.88 265.829 310.106 261.606C311.903 258.195 307.21 240.204 306.935 238.169C305.231 225.574 306.435 222.513 310.088 224.015C313.297 225.338 314.076 234.136 303.196 237.84C292.316 241.543 298.73 252.055 305.429 253.736C312.129 255.417 315.712 249.831 311.429 245.422C308.239 242.135 301.78 243.721 303.075 247.823C304.344 251.851 310.555 255.626 317.05 252.03C319.987 250.403 321.583 247.842 326.801 249.6C333.814 251.965 338.759 249.507 337.98 247.051C337.112 244.318 331.387 244.548 330.514 247.424C329.642 250.303 337.388 251.332 338.715 248.715C340.046 246.099 335.07 230.982 336.185 230.015C337.301 229.051 350.827 227.773 351.215 228.039C351.525 228.252 351.64 229.161 351.549 229.275C351.276 229.6 337.657 230.861 337.388 231.21C337.223 231.426 337.374 233.072 337.671 233.102C337.968 233.133 350.512 231.579 351.838 231.411C352.254 231.358 352.146 233.689 352.753 238.179C353.361 242.669 354.72 248.096 349.497 248.207C344.275 248.317 343.529 243.275 347.785 243.387C352.041 243.499 353.296 246.138 353.821 247.795C355.329 252.566 354.884 256.445 359.758 257.997C366.285 260.075 371.816 257.941 371.037 255.488C370.169 252.755 364.344 252.944 363.471 255.824C362.599 258.703 370.345 259.732 371.672 257.115C373.004 254.499 367.483 238.662 369.259 239.272C370.918 239.844 370.822 243.72 374.27 245.259C377.718 246.799 378.705 250.033 377.919 250.709C376.699 251.752 376.893 247.543 379.701 249.91C381.787 251.668 384.644 254.893 388.621 256.018C395.688 258.018 400.374 254.349 399.446 251.904C398.512 249.446 393.524 250.385 394.247 252.367C394.813 253.921 401.215 254.018 400.346 251.281C399.478 248.548 393.449 248.833 392.576 251.712C391.704 254.591 399.45 255.62 400.777 253.003C402.109 250.387 397.449 234.865 398.187 235.756C399.455 237.29 400.532 239.962 404.216 241.844C406.783 243.156 407.009 245.117 406.942 246.175C406.797 248.403 403.946 249.141 405.787 247.049C406.933 245.753 406.529 258.323 414.469 261.194C421.448 263.716 426.417 261.144 425.638 258.691C424.77 255.958 418.879 255.778 418.178 259.021C417.539 261.985 425.052 262.929 426.379 260.312C427.71 257.695 423.279 245.262 424.395 244.297C425.51 243.333 439.462 242.13 439.663 242.504C440.162 243.418 439.809 245.282 440.416 249.769C441.023 254.256 442.383 259.686 437.16 259.797C431.938 259.907 431.29 254.42 435.546 254.532C439.802 254.644 440.756 257.019 441.974 258.507C444.495 261.581 448.023 264.858 453.607 266.623C460.645 268.85 465.662 266.605 464.879 264.151C464.011 261.419 458.188 261.57 457.316 264.45C456.444 267.329 464.19 268.358 465.517 265.741C466.848 263.124 463.043 246.368 463.103 247.898C463.222 250.965 464.58 256.358 466.05 260.618C467.292 264.211 471.194 267.119 475.326 267.543L486.631 268.705L490.285 282.559C490.285 282.559 395.758 274.788 301.315 284.256L306.983 317.388C384.547 296.879 496.917 303.337 496.917 303.337L501.205 319.684C372.4 316.245 311.857 335.147 311.857 335.147L313.138 343.154C416.587 321.667 503.945 328.969 503.945 328.969L508.337 347.193C439.746 340.145 366.91 347.206 318.2 355.556C318.2 355.556 329.54 351.199 329.347 347.344C329.17 343.816 323.259 342.845 322.987 346.334C322.629 350.934 331.634 353.958 333.859 349.735C335.657 346.324 330.964 328.333 330.689 326.298C328.985 313.703 330.189 310.642 333.841 312.144C337.051 313.467 337.829 322.265 326.949 325.969C316.069 329.672 322.484 340.183 329.183 341.865C335.882 343.546 339.466 337.96 335.183 333.551C331.993 330.264 325.534 331.85 326.828 335.952C328.097 339.98 334.308 343.754 340.804 340.159C343.741 338.532 345.336 335.971 350.555 337.729C357.568 340.094 362.513 337.636 361.733 335.18C360.865 332.447 355.141 332.677 354.268 335.553C353.395 338.432 361.142 339.461 362.469 336.844C363.8 334.228 358.824 319.111 359.939 318.144C361.055 317.18 374.581 315.902 374.969 316.168C375.279 316.381 375.394 317.29 375.302 317.404C375.03 317.729 361.41 318.99 361.141 319.339C360.976 319.555 361.128 321.201 361.425 321.231C361.722 321.262 374.265 319.708 375.591 319.54C376.007 319.487 375.9 321.818 376.507 326.308C377.114 330.798 378.474 336.225 373.251 336.336C368.028 336.446 367.283 331.404 371.539 331.516C375.795 331.628 377.05 334.267 377.574 335.924C379.082 340.695 378.638 344.574 383.512 346.126C390.039 348.204 395.569 346.07 394.791 343.617C393.922 340.884 388.097 341.073 387.225 343.953C386.353 346.832 394.099 347.861 395.426 345.244C396.757 342.627 391.237 326.791 393.012 327.401C394.672 327.972 394.575 331.849 398.023 333.388C401.471 334.928 402.459 338.162 401.672 338.838C400.452 339.881 400.646 335.672 403.455 338.039C405.54 339.797 408.397 343.022 412.375 344.147C419.442 346.147 424.127 342.478 423.199 340.033C422.265 337.574 417.278 338.514 418.001 340.496C418.567 342.05 424.969 342.146 424.1 339.41C423.232 336.677 417.202 336.962 416.33 339.841C415.457 342.72 423.204 343.749 424.531 341.132C425.862 338.516 421.203 322.994 421.94 323.885C423.208 325.419 424.286 328.091 427.97 329.973C430.537 331.285 430.762 333.246 430.696 334.304C430.55 336.532 427.699 337.27 429.54 335.178C430.686 333.882 430.282 346.452 438.222 349.323C445.201 351.845 450.17 349.273 449.391 346.82C448.523 344.087 442.632 343.907 441.932 347.15C441.292 350.114 448.806 351.058 450.133 348.441C451.464 345.824 447.033 333.39 448.148 332.426C449.264 331.462 463.216 330.259 463.417 330.633C463.916 331.547 463.563 333.411 464.17 337.898C464.777 342.384 466.137 347.815 460.914 347.925C455.691 348.036 455.044 342.549 459.3 342.661C463.556 342.773 464.51 345.148 465.728 346.636C468.248 349.71 471.777 352.987 477.36 354.752C484.398 356.979 489.415 354.734 488.632 352.28C487.764 349.548 481.942 349.699 481.07 352.579C480.197 355.458 487.944 356.487 489.271 353.87C490.602 351.253 486.796 334.497 486.857 336.027C486.975 339.094 488.334 344.487 489.804 348.747C491.046 352.34 494.948 355.248 499.08 355.672L510.385 356.834L514.039 370.688C514.039 370.688 411.493 365.882 317.05 375.351L325.406 406.177C402.97 385.668 515.34 392.126 515.34 392.126L519.628 408.474C390.823 405.034 330.28 423.936 330.28 423.936L331.561 431.943C435.01 410.456 522.368 417.758 522.368 417.758L526.76 435.982C458.169 428.934 385.333 435.995 336.623 444.345C336.623 444.345 347.963 439.988 347.77 436.133C347.593 432.605 341.682 431.634 341.41 435.123C341.052 439.723 350.057 442.747 352.282 438.524C354.08 435.113 349.387 417.122 349.112 415.087C347.408 402.492 348.612 399.431 352.264 400.933C355.474 402.256 356.252 411.054 345.372 414.758C334.492 418.461 340.907 428.972 347.606 430.654C354.305 432.335 357.889 426.749 353.606 422.34C350.416 419.053 343.957 420.639 345.251 424.741C346.52 428.769 352.731 432.543 359.227 428.948C362.164 427.321 363.759 424.76 368.978 426.518C375.991 428.883 380.936 426.425 380.156 423.969C379.288 421.236 373.563 421.466 372.691 424.342C371.818 427.221 379.564 428.25 380.892 425.633C382.223 423.017 377.247 407.9 378.362 406.933C379.478 405.969 393.004 404.691 393.392 404.957C393.702 405.17 393.817 406.079 393.725 406.193C393.453 406.518 379.833 407.779 379.564 408.128C379.399 408.344 379.551 409.99 379.848 410.02C380.145 410.051 392.688 408.497 394.014 408.329C394.43 408.276 394.322 410.607 394.93 415.097C395.537 419.587 396.896 425.014 391.674 425.125C386.451 425.235 385.706 420.193 389.962 420.305C394.218 420.417 395.473 423.056 395.997 424.713C397.505 429.484 397.061 433.363 401.935 434.915C408.462 436.993 413.992 434.859 413.214 432.406C412.345 429.673 406.52 429.862 405.648 432.742C404.775 435.621 412.522 436.65 413.849 434.033C415.18 431.416 409.66 415.58 411.435 416.19C413.095 416.762 412.998 420.638 416.446 422.177C419.894 423.717 420.882 426.951 420.095 427.627C418.875 428.67 419.069 424.461 421.878 426.828C423.963 428.586 426.82 431.811 430.798 432.936C437.864 434.936 442.55 431.267 441.622 428.822C440.688 426.363 435.7 427.303 436.423 429.285C436.99 430.839 443.391 430.935 442.523 428.199C441.655 425.466 435.625 425.751 434.753 428.63C433.88 431.509 441.626 432.538 442.954 429.921C444.285 427.305 439.626 411.783 440.363 412.674C441.631 414.208 442.708 416.88 446.393 418.762C448.96 420.074 449.185 422.035 449.119 423.093C448.973 425.321 446.122 426.059 447.963 423.967C449.109 422.671 448.705 435.241 456.645 438.112C463.624 440.634 468.593 438.062 467.814 435.609C466.946 432.876 461.055 432.696 460.355 435.939C459.715 438.903 467.228 439.847 468.556 437.23C469.887 434.613 465.456 422.179 466.571 421.215C467.687 420.251 481.639 419.048 481.839 419.422C482.339 420.336 481.986 422.2 482.593 426.687C483.2 431.174 484.56 436.604 479.337 436.714C474.114 436.825 473.467 431.338 477.723 431.45C481.979 431.562 482.933 433.937 484.151 435.425C486.671 438.499 490.2 441.776 495.783 443.541C502.821 445.768 507.838 443.523 507.055 441.069C506.187 438.337 500.365 438.488 499.493 441.368C498.62 444.247 506.366 445.276 507.694 442.659C509.025 440.042 505.219 423.286 505.28 424.816C505.398 427.883 506.757 433.276 508.227 437.536C509.469 441.129 513.371 444.037 517.503 444.461L528.808 445.623L532.462 459.477C532.462 459.477 423.498 452.462 329.055 461.931L336.623 496.199C414.187 475.69 540.994 481.392 540.994 481.392L545.282 497.74C416.476 494.3 355.934 513.202 355.934 513.202L357.215 521.209C460.663 499.722 548.021 507.024 548.021 507.024L552.413 525.248C483.822 518.2 410.986 525.261 362.276 533.611C362.276 533.611 373.616 529.254 373.423 525.399C373.246 521.871 367.336 520.9 367.064 524.389C366.705 528.989 375.71 532.013 377.936 527.79C379.733 524.379 375.04 506.388 374.765 504.353C373.061 491.758 374.265 488.697 377.918 490.199C381.127 491.522 381.906 500.32 371.026 504.024C360.146 507.727 366.56 518.239 373.259 519.92C379.959 521.601 383.542 516.015 379.259 511.606C376.069 508.319 369.61 509.905 370.905 514.007C372.174 518.035 378.385 521.81 384.88 518.214C387.817 516.587 389.413 514.026 394.631 515.784C401.644 518.149 406.589 515.691 405.81 513.235C404.942 510.502 399.217 510.732 398.344 513.608C397.472 516.487 405.218 517.516 406.545 514.899C407.876 512.283 402.9 497.166 404.015 496.199C405.131 495.235 418.657 493.957 419.045 494.223C419.355 494.436 419.47 495.345 419.379 495.459C419.106 495.784 405.487 497.045 405.217 497.394C405.053 497.61 405.204 499.256 405.501 499.286C405.798 499.317 418.341 497.763 419.668 497.595C420.084 497.542 419.976 499.873 420.583 504.363C421.191 508.853 422.55 514.28 417.327 514.391C412.105 514.501 411.359 509.459 415.615 509.571C419.871 509.683 421.126 512.322 421.651 513.979C423.158 518.75 422.714 522.629 427.588 524.181C434.115 526.259 439.646 524.125 438.867 521.672C437.999 518.939 432.174 519.128 431.301 522.008C430.429 524.887 438.175 525.916 439.502 523.299C440.834 520.683 435.313 504.846 437.089 505.456C438.748 506.027 438.651 509.904 442.1 511.443C445.548 512.983 446.535 516.217 445.748 516.893C444.529 517.936 444.723 513.726 447.531 516.094C449.616 517.852 452.474 521.077 456.451 522.202C463.518 524.202 468.204 520.533 467.276 518.088C466.342 515.629 461.354 516.569 462.077 518.551C462.643 520.105 469.045 520.201 468.176 517.465C467.308 514.732 461.278 515.017 460.406 517.896C459.534 520.775 467.28 521.804 468.607 519.187C469.938 516.571 465.279 501.049 466.017 501.94C467.284 503.474 468.362 506.146 472.046 508.028C474.613 509.34 474.839 511.301 474.772 512.359C474.627 514.587 471.775 515.325 473.617 513.233C474.763 511.937 474.359 524.507 482.299 527.378C489.278 529.9 494.247 527.328 493.468 524.875C492.6 522.142 486.709 521.962 486.008 525.205C485.369 528.169 492.882 529.113 494.209 526.496C495.54 523.879 491.109 511.445 492.225 510.481C493.34 509.517 507.292 508.314 507.493 508.688C507.992 509.602 507.639 511.466 508.246 515.953C508.853 520.44 510.213 525.87 504.99 525.98C499.768 526.091 499.12 520.604 503.376 520.716C507.632 520.828 508.586 523.203 509.804 524.691C512.325 527.765 515.853 531.042 521.437 532.807C528.475 535.034 533.492 532.789 532.709 530.335C531.841 527.603 526.018 527.754 525.146 530.634C524.274 533.513 532.02 534.542 533.347 531.925C534.678 529.308 530.873 512.552 530.933 514.082C531.052 517.149 532.41 522.542 533.88 526.802C535.122 530.395 539.024 533.303 543.156 533.727L554.461 534.889L558.115 548.743C558.115 548.743 371.305 518.778 310.482 611.491C310.178 611.953 310.272 612.38 310.822 612.442C327.366 614.301 589.494 601.419 601.064 600.148C612.978 598.824 621.836 592.82 619.237 579.234C616.635 565.633 511.5 188.5 507.369 177.858C473.163 39 -158.455 259.717 -93.4999 0.5" stroke="#543F3A" stroke-width="2"/>
</g>
<defs>
<clipPath id="clip0_0_1">
<rect width="1152" height="509" fill="white" transform="translate(3 2214)"/>
</clipPath>
<clipPath id="clip1_0_1">
<rect width="686" height="561" fill="white" transform="translate(645 1656)"/>
</clipPath>
<clipPath id="clip2_0_1">
<rect width="1039" height="558" fill="white" transform="translate(231 1140)"/>
</clipPath>
<clipPath id="clip3_0_1">
<rect width="594" height="526" fill="white" transform="translate(683 618)"/>
</clipPath>
<clipPath id="clip4_0_1">
<rect width="685" height="653" fill="white"/>
</clipPath>
</defs>
</svg>
